<svg version="1.2" xmlns="http://www.w3.org/2000/svg" viewBox="0 0 48 48" width="48" height="48">
	<title>coin-svg</title>
	<style>
		.s0 { fill: #ffa23a } 
		.s1 { fill: #f8c641;stroke: #ffa23a;stroke-width: 1.4 } 
		.s2 { fill: #fb6238 } 
	</style>
	<g id="Layer">
		<path id="Layer" fill-rule="evenodd" class="s0" d="m25.6 44.4c-10.4 0-18.8-8.9-18.8-19.9 0-11 8.4-19.9 18.8-19.9 10.4 0 18.8 8.9 18.8 19.9 0 11-8.4 19.9-18.8 19.9z"/>
		<path id="Layer" fill-rule="evenodd" class="s0" d="m25.6 3.9l2 0.1 1.9 0.3 1.9 0.5 1.8 0.7 1.7 0.9 1.6 1 1.5 1.2 1.4 1.3 1.2 1.5 1.1 1.6 1 1.7 0.8 1.8 0.7 1.9 0.4 2 0.3 2 0.1 2.1-0.1 2.1-0.3 2-0.4 2-0.7 1.9-0.8 1.8-1 1.7-1.1 1.6-1.2 1.5-1.4 1.3-1.5 1.2-1.6 1-1.7 0.8-1.8 0.7-1.9 0.6-1.9 0.3-2 0.1-2-0.1-1.9-0.3-1.9-0.6-1.8-0.7-1.7-0.8-1.6-1-1.5-1.2-1.3-1.3-1.3-1.5-1.1-1.6-1-1.7-0.8-1.8-0.7-1.9-0.4-2-0.3-2-0.1-2.1 0.1-2.1 0.3-2 0.4-2 0.7-1.9 0.8-1.8 1-1.7 1.1-1.6 1.3-1.5 1.3-1.3 1.5-1.2 1.6-1 1.7-0.9 1.8-0.7 1.9-0.5 1.9-0.3zm0 1.4l-1.8 0.1-1.8 0.3-1.8 0.5-1.6 0.6-1.6 0.8-1.5 1-1.4 1.1-1.3 1.2-1.2 1.4-1 1.5-0.9 1.5-0.8 1.7-0.6 1.8-0.4 1.8-0.3 1.9-0.1 2 0.1 1.9 0.3 2 0.4 1.8 0.6 1.8 0.8 1.6 0.9 1.6 1 1.5 1.2 1.4 1.3 1.2 1.4 1.1 1.5 1 1.6 0.7 1.6 0.7 1.8 0.5 1.8 0.3 1.8 0.1 1.9-0.1 1.8-0.3 1.7-0.5 1.7-0.7 1.6-0.7 1.5-1 1.3-1.1 1.3-1.2 1.2-1.4 1.1-1.5 0.9-1.6 0.7-1.6 0.6-1.8 0.5-1.8 0.2-2 0.1-1.9-0.1-2-0.2-1.9-0.5-1.8-0.6-1.8-0.7-1.7-0.9-1.5-1.1-1.5-1.2-1.4-1.3-1.2-1.3-1.1-1.5-1-1.6-0.8-1.7-0.6-1.7-0.5-1.8-0.3z"/>
	</g>
	<g id="Layer">
		<path id="Layer" fill-rule="evenodd" class="s1" d="m23 43.9c-10.4 0-18.8-8.9-18.8-19.9 0-11 8.4-19.9 18.8-19.9 10.4 0 18.8 8.9 18.8 19.9 0 11-8.4 19.9-18.8 19.9z"/>
		<path id="Layer" fill-rule="evenodd" class="s2" d="m22.5 37.6q-0.4 0-0.7-0.3-0.3-0.3-0.3-0.8v-2.1q-1.8-0.3-3-1.3-1.2-1-1.9-2.5-0.2-0.4 0-0.9 0.2-0.5 0.6-0.7 0.4-0.1 0.8 0 0.4 0.2 0.6 0.7 0.7 1.3 1.7 1.9 1.1 0.7 2.5 0.7 1.7 0 2.8-1 1.1-0.9 1.1-2.5 0-1.7-0.9-2.6-1-0.9-3.8-1.9-2.6-0.8-3.9-2.3-1.3-1.4-1.3-3.6 0-2.1 1.3-3.5 1.3-1.4 3.4-1.6v-2.1q0-0.5 0.3-0.8 0.3-0.3 0.7-0.3 0.5 0 0.8 0.3 0.3 0.3 0.3 0.8v2.1q1.3 0.2 2.4 0.8 1 0.7 1.7 1.7 0.2 0.4 0.1 0.8-0.2 0.4-0.6 0.6-0.4 0.2-0.8 0.1-0.5-0.2-0.7-0.6-0.5-0.7-1.3-1-0.7-0.3-1.8-0.3-1.6 0-2.6 0.8-1 0.8-1 2.1 0 1.5 1.1 2.4 1.1 0.9 4 1.9 2.5 0.8 3.6 2.3 1.2 1.5 1.2 3.8 0 2.4-1.3 3.8-1.4 1.5-4 1.9v2.1q0 0.5-0.3 0.8-0.3 0.3-0.8 0.3z"/>
	</g>
</svg>