<svg version="1.2" xmlns="http://www.w3.org/2000/svg" viewBox="0 0 55 54" width="55" height="54">
	<path id="Path 0" fill-rule="evenodd" d="m10.3 10.9h35.5l0.5 0.2c0.3 0.2 0.7 0.3 0.8 0.5 0.2 0.1 0.6 0.4 0.8 0.6 0.2 0.3 0.5 0.7 0.6 0.9 0.1 0.2 0.3 0.6 0.3 0.9 0.2 0.4 0.2 0.9 0.2 4.3-0.1 3.8-0.1 3.9-0.2 4.2-0.1 0.1-0.3 0.3-0.4 0.3q-0.2 0.2-0.9 0.3c-0.4 0-0.8 0.1-1 0.2-0.1 0-0.4 0.1-0.6 0.2-0.2 0.1-0.6 0.4-0.9 0.7-0.3 0.3-0.6 0.7-0.7 1-0.2 0.2-0.3 0.7-0.4 1-0.1 0.2-0.1 0.7-0.1 0.9 0 0.3 0 0.7 0.1 1 0.1 0.3 0.2 0.7 0.4 1 0.1 0.3 0.4 0.7 0.7 1 0.3 0.2 0.7 0.5 0.9 0.6 0.2 0.1 0.5 0.2 0.6 0.3 0.2 0 0.6 0.1 1 0.2q0.7 0 0.9 0.2c0.1 0.1 0.3 0.3 0.4 0.4 0.1 0.2 0.1 0.3 0.2 4 0 2.4 0 4-0.1 4.3-0.1 0.2-0.2 0.6-0.3 0.9-0.2 0.3-0.5 0.8-0.7 1-0.2 0.3-0.6 0.6-0.8 0.7-0.1 0.1-0.5 0.3-1.3 0.6h-35.4l-0.5-0.2c-0.3-0.1-0.7-0.3-0.9-0.4-0.2-0.1-0.5-0.4-0.7-0.7-0.3-0.2-0.5-0.6-0.6-0.8-0.2-0.3-0.3-0.7-0.4-0.9-0.1-0.4-0.1-1-0.1-4.4 0-3.8 0-3.9 0.2-4.1 0.1-0.1 0.3-0.3 0.4-0.4q0.2-0.1 0.9-0.2c0.4-0.1 0.9-0.2 1.1-0.3 0.2 0 0.5-0.2 0.7-0.3 0.2-0.1 0.6-0.5 0.8-0.7 0.3-0.3 0.6-0.7 0.7-1.1 0.2-0.3 0.3-0.8 0.4-1.2 0-0.4 0-0.8-0.1-1.1 0-0.4-0.2-0.8-0.3-1.1-0.1-0.3-0.4-0.8-0.7-1-0.2-0.3-0.6-0.6-0.8-0.7-0.2-0.1-0.5-0.3-0.7-0.4-0.2-0.1-0.7-0.2-1.1-0.2-0.5-0.1-0.8-0.1-0.9-0.3-0.2-0.1-0.3-0.2-0.4-0.3-0.2-0.3-0.2-0.4-0.2-4.1 0-2.4 0-4 0.1-4.2 0-0.3 0.2-0.7 0.3-1 0.1-0.3 0.4-0.7 0.7-1 0.2-0.2 0.5-0.5 0.7-0.6 0.1-0.1 0.5-0.3 0.8-0.4zm-0.2 3.1c-0.1 0.1-0.2 0.3-0.2 0.4-0.1 0.2-0.1 1.3-0.1 3.1v2.9c0.5 0.2 0.9 0.3 1.1 0.4 0.3 0.1 0.7 0.4 1.1 0.6 0.3 0.2 0.8 0.6 1 0.9 0.3 0.2 0.6 0.7 0.9 1 0.2 0.3 0.5 0.9 0.6 1.3 0.1 0.3 0.3 0.9 0.4 1.3 0 0.3 0.1 0.8 0.1 1.2 0 0.3-0.1 0.8-0.1 1.2-0.1 0.3-0.3 0.9-0.4 1.2-0.1 0.4-0.4 1-0.6 1.3-0.3 0.3-0.6 0.8-0.9 1.1-0.2 0.2-0.7 0.6-1 0.8-0.4 0.3-0.8 0.5-1.1 0.6-0.2 0.1-0.6 0.2-0.8 0.3l-0.3 0.1c0 5.9 0 6 0.2 6.2 0.1 0.2 0.3 0.3 0.4 0.4 0.2 0.2 0.3 0.2 17.7 0.2h17.4c0.4-0.3 0.5-0.5 0.6-0.6 0.2-0.2 0.2-0.4 0.2-3.2 0-2.9 0-3.1-0.1-3.1-0.1 0-0.5-0.1-0.8-0.2-0.4-0.2-1-0.5-1.3-0.7-0.3-0.2-0.8-0.6-1-0.9-0.3-0.2-0.6-0.7-0.9-1-0.2-0.3-0.5-0.9-0.6-1.3-0.1-0.3-0.3-0.9-0.4-1.2 0-0.4-0.1-0.9-0.1-1.2 0-0.4 0.1-0.9 0.1-1.2 0.1-0.4 0.2-0.9 0.4-1.3 0.1-0.3 0.4-0.9 0.6-1.2 0.2-0.3 0.6-0.8 0.8-1.1 0.3-0.3 0.8-0.7 1.1-0.9 0.3-0.2 0.9-0.5 1.3-0.6 0.3-0.2 0.7-0.3 0.8-0.3 0.1 0 0.1-0.2 0.1-3.1 0-2.9 0-3-0.2-3.2-0.1-0.2-0.3-0.3-0.4-0.4-0.2-0.2-0.3-0.2-17.6-0.2-13.8 0-17.4 0-17.6 0.1-0.2 0-0.3 0.2-0.4 0.3zm20.6 1.8l1.3 0.4c0.9 0.4 1.2 0.5 1.1 0.6 0 0.1-1.7 4.9-3.8 10.8-2.2 5.8-3.9 10.6-3.9 10.6-0.1 0-0.6-0.1-1.3-0.4q-1.2-0.4-1.1-0.5c0-0.1 1.7-4.8 3.7-10.4 2.1-5.6 3.8-10.5 3.9-10.7zm-8.5 3.7c0.2 0 0.7 0.1 0.9 0.2 0.3 0.1 0.6 0.2 0.8 0.4 0.2 0.1 0.6 0.4 0.8 0.6q0.3 0.5 0.6 0.9c0.1 0.3 0.2 0.7 0.3 0.9 0.1 0.2 0.1 0.7 0.1 1 0 0.3 0 0.8-0.1 1.1-0.1 0.2-0.2 0.6-0.4 0.8-0.1 0.3-0.4 0.7-0.6 0.9-0.3 0.3-0.7 0.6-0.9 0.7-0.3 0.2-0.7 0.3-0.9 0.4-0.2 0.1-0.7 0.1-1 0.1-0.4 0-0.8-0.1-1.1-0.1-0.3-0.1-0.7-0.3-0.9-0.5-0.2-0.1-0.6-0.4-0.9-0.7-0.2-0.3-0.5-0.7-0.6-1-0.1-0.3-0.3-0.8-0.3-1.1q-0.1-0.6 0-1.2c0-0.3 0.2-0.8 0.3-1.2 0.2-0.3 0.5-0.7 0.8-1.1 0.3-0.3 0.7-0.6 1-0.7 0.3-0.2 0.8-0.4 1.1-0.4 0.3 0 0.7 0 1 0zm-1.3 3.1c-0.2 0.2-0.3 0.5-0.4 0.7 0 0.3 0 0.4 0.2 0.7 0.1 0.3 0.3 0.5 0.4 0.6q0.3 0.2 0.7 0.2c0.2 0 0.5-0.1 0.6-0.1 0.2-0.1 0.4-0.3 0.5-0.4 0.1-0.2 0.2-0.5 0.2-0.8 0-0.3 0-0.5-0.2-0.7-0.1-0.2-0.3-0.4-0.4-0.4-0.1-0.1-0.4-0.2-0.5-0.2-0.2-0.1-0.4 0-0.6 0-0.2 0-0.4 0.2-0.5 0.4zm14.4 5.3q0.7 0 1.2 0.1c0.2 0.1 0.6 0.3 0.9 0.4 0.2 0.2 0.6 0.5 0.8 0.8 0.3 0.3 0.5 0.7 0.7 1 0.1 0.3 0.2 0.8 0.3 1.1 0.1 0.4 0.1 0.7 0 1.1-0.1 0.4-0.2 0.9-0.4 1.2-0.1 0.4-0.4 0.8-0.7 1.1q-0.5 0.5-1.1 0.8c-0.3 0.2-0.8 0.3-1.1 0.4-0.4 0-0.8 0-1.1 0-0.2-0.1-0.6-0.2-0.8-0.3-0.2 0-0.6-0.2-0.8-0.3-0.2-0.2-0.5-0.5-0.7-0.7-0.2-0.2-0.6-0.7-0.7-1.1-0.3-0.5-0.3-0.7-0.4-1.4 0-0.6 0-0.9 0.2-1.3 0-0.2 0.2-0.7 0.3-0.9 0.1-0.2 0.4-0.6 0.7-0.9 0.2-0.2 0.7-0.6 0.9-0.7 0.3-0.2 0.7-0.3 0.9-0.4 0.1 0 0.6 0 0.9 0zm-1.1 3.4c-0.1 0.1-0.2 0.4-0.2 0.6 0 0.2 0.1 0.4 0.2 0.6 0 0.1 0.2 0.3 0.3 0.4 0.1 0.1 0.4 0.2 0.5 0.3q0.3 0 0.6 0 0.4-0.1 0.7-0.4c0.2-0.3 0.3-0.5 0.3-0.7 0.1-0.3 0-0.5-0.1-0.8-0.1-0.2-0.3-0.5-0.5-0.6-0.2-0.1-0.4-0.2-0.7-0.2-0.3 0-0.5 0.1-0.7 0.2-0.1 0.1-0.3 0.4-0.4 0.6z"/>
</svg>