<svg width="97" height="80" xmlns="http://www.w3.org/2000/svg" xmlns:xlink="http://www.w3.org/1999/xlink" xml:space="preserve" overflow="hidden"><defs><clipPath id="clip0"><rect x="2007" y="1082" width="97" height="80"/></clipPath></defs><g clip-path="url(#clip0)" transform="translate(-2007 -1082)"><path d="M2072.28 1139.3 2060.06 1149.23 2061.23 1150.68 2073.45 1140.75ZM2037.49 1139.3 2025.27 1149.23 2026.44 1150.68 2038.66 1140.75ZM2036.95 1132.87C2041.97 1132.87 2046.39 1135.42 2049.01 1139.29L2050.05 1141.23 2051.72 1140.11C2052.67 1139.7 2053.71 1139.48 2054.81 1139.48 2055.91 1139.48 2056.95 1139.7 2057.9 1140.11L2059.57 1141.23 2060.62 1139.29C2063.23 1135.42 2067.66 1132.87 2072.67 1132.87 2080.71 1132.87 2087.22 1139.39 2087.22 1147.44 2087.22 1155.48 2080.71 1162 2072.67 1162 2064.64 1162 2058.13 1155.48 2058.13 1147.44L2058.63 1144.95 2058.1 1144.15C2057.25 1143.31 2056.09 1142.78 2054.81 1142.78 2053.53 1142.78 2052.37 1143.31 2051.53 1144.15L2051.21 1144.62 2051.49 1147.44C2051.49 1155.48 2044.98 1162 2036.95 1162 2028.91 1162 2022.4 1155.48 2022.4 1147.44 2022.4 1139.39 2028.91 1132.87 2036.95 1132.87ZM2020.91 1110.92C2021.26 1110.92 2021.61 1111.23 2021.61 1111.58 2021.61 1111.93 2022.49 1112.76 2023.54 1113.38 2024.53 1114.03 2026.58 1114.95 2028.04 1115.39 2029.5 1115.88 2033.06 1116.66 2035.92 1117.19 2040.48 1117.98 2043.05 1118.11 2055.21 1118.15 2066.25 1118.15 2070.17 1117.98 2073.61 1117.41 2076.01 1117.01 2079.57 1116.27 2081.5 1115.74 2083.43 1115.26 2085.89 1114.3 2087 1113.64 2088.11 1112.98 2089.1 1112.11 2089.22 1111.67 2089.33 1111.27 2089.63 1110.92 2089.98 1110.92 2090.33 1110.92 2092.61 1111.58 2095.12 1112.33 2097.57 1113.11 2100.61 1114.43 2101.78 1115.31 2103.53 1116.53 2103.94 1117.15 2104 1118.46 2104 1119.6 2103.53 1120.52 2102.6 1121.31 2101.84 1122.01 2099.68 1123.15 2097.81 1123.94 2095.94 1124.68 2092.14 1125.82 2089.39 1126.39 2086.65 1127.01 2081.56 1127.79 2078 1128.19 2074.43 1128.54 2069.23 1129.07 2066.31 1129.33 2063.39 1129.55 2058.83 1129.77 2056.08 1129.77 2053.34 1129.77 2047.2 1129.46 2042.35 1129.07 2037.56 1128.72 2030.96 1128.01 2027.74 1127.49 2024.53 1127.01 2020.21 1126.13 2018.1 1125.52 2016 1124.95 2013.25 1124.03 2011.97 1123.46 2010.68 1122.89 2009.05 1121.88 2008.29 1121.18 2007.47 1120.39 2007 1119.34 2007 1118.37 2007 1117.19 2007.53 1116.49 2009.22 1115.31 2010.39 1114.43 2013.37 1113.11 2015.77 1112.37 2018.16 1111.58 2020.5 1110.92 2020.91 1110.92ZM2041.07 1082C2042.82 1082 2044.81 1082.53 2047.9 1083.75 2051.47 1085.16 2052.87 1085.46 2055.5 1085.46 2058.13 1085.46 2059.53 1085.16 2063.1 1083.75 2066.08 1082.57 2068.24 1082 2069.82 1082 2071.8 1082 2072.68 1082.35 2075.31 1084.06 2077 1085.24 2079.57 1087.52 2080.92 1089.23 2082.32 1090.9 2084.07 1093.48 2084.89 1094.93 2085.71 1096.37 2086.76 1098.74 2087.23 1100.19 2087.76 1101.63 2088.22 1103.78 2088.52 1107.15L2085.3 1108.64C2083.55 1109.43 2080.8 1110.35 2079.17 1110.75 2077.59 1111.1 2073.61 1111.71 2070.4 1112.06 2065.9 1112.59 2061.87 1112.72 2053.16 1112.54 2045.27 1112.37 2040.13 1112.02 2036.51 1111.45 2033.65 1111.01 2029.79 1110.13 2028.04 1109.52 2026.28 1108.91 2024.24 1108.03 2023.48 1107.59 2022.19 1106.8 2022.13 1106.67 2022.78 1103.69 2023.13 1102.03 2024.18 1098.96 2025.11 1096.9 2026.11 1094.84 2028.09 1091.64 2029.61 1089.71 2031.19 1087.83 2033.82 1085.33 2035.52 1084.15 2038.2 1082.31 2038.96 1082 2041.07 1082Z" fill="#453D3B" fill-rule="evenodd"/></g></svg>