<svg width="145" height="137" xmlns="http://www.w3.org/2000/svg" xmlns:xlink="http://www.w3.org/1999/xlink" xml:space="preserve" overflow="hidden"><defs><clipPath id="clip0"><rect x="1322" y="841" width="145" height="137"/></clipPath><clipPath id="clip1"><path d="M1389.5 843.5C1353.6 843.5 1324.5 872.602 1324.5 908.5 1324.5 944.398 1353.6 973.5 1389.5 973.5 1425.4 973.5 1454.5 944.398 1454.5 908.5 1454.5 872.602 1425.4 843.5 1389.5 843.5ZM1322 841 1467 841 1467 978 1322 978Z" fill-rule="evenodd" clip-rule="evenodd"/></clipPath></defs><g clip-path="url(#clip0)" transform="translate(-1322 -841)"><g clip-path="url(#clip1)"><path d="M1333.53 910.092C1333.53 874.193 1362.63 845.092 1398.53 845.092 1434.43 845.092 1463.53 874.193 1463.53 910.092 1463.53 945.99 1434.43 975.092 1398.53 975.092 1362.63 975.092 1333.53 945.99 1333.53 910.092Z" fill="#FFA23A" fill-rule="evenodd"/><path d="M1398.53 847.386 1392.13 847.688 1385.93 848.651 1379.9 850.22 1374.11 852.33 1368.63 854.981 1363.5 858.115 1358.67 861.737 1354.21 865.777 1350.17 870.239 1346.55 875.068 1343.42 880.191 1340.77 885.673 1338.66 891.462 1337.09 897.495 1336.12 903.697 1335.82 910.092 1336.12 916.488 1337.09 922.75 1338.65 928.719 1340.77 934.511 1343.42 939.998 1346.55 945.183 1350.17 950.007 1354.21 954.469 1358.67 958.51 1363.5 962.131 1368.62 965.26 1374.1 967.85 1379.9 969.964 1385.93 971.532 1392.13 972.496 1398.53 972.798 1404.92 972.496 1411.19 971.532 1417.15 969.965 1422.96 967.85 1428.44 965.258 1433.62 962.127 1438.44 958.51 1442.9 954.469 1446.95 950.007 1450.56 945.183 1453.69 940.007 1456.29 934.52 1458.4 928.719 1459.97 922.75 1460.93 916.488 1461.23 910.092 1460.93 903.697 1459.97 897.495 1458.4 891.462 1456.29 885.663 1453.7 880.182 1450.57 875.068 1446.95 870.239 1442.9 865.777 1438.44 861.737 1433.62 858.119 1428.43 854.983 1422.95 852.33 1417.15 850.219 1411.19 848.651 1404.92 847.688ZM1398.53 842.798 1405.38 843.121 1412.12 844.157 1418.52 845.84 1424.73 848.103 1430.62 850.95 1436.19 854.315 1441.36 858.197 1446.15 862.532 1450.48 867.32 1454.36 872.491 1457.73 878.001 1460.52 883.895 1462.78 890.097 1464.46 896.564 1465.5 903.236 1465.82 910.092 1465.5 916.946 1464.46 923.683 1462.78 930.089 1460.52 936.288 1457.74 942.177 1454.37 947.75 1450.48 952.927 1446.15 957.714 1441.36 962.049 1436.19 965.931 1430.61 969.301 1424.72 972.084 1418.52 974.344 1412.12 976.026 1405.38 977.063 1398.53 977.386 1391.67 977.063 1385 976.026 1378.53 974.345 1372.33 972.084 1366.44 969.299 1360.93 965.928 1355.76 962.049 1350.97 957.714 1346.63 952.927 1342.75 947.75 1339.39 942.186 1336.54 936.298 1334.28 930.089 1332.59 923.683 1331.56 916.946 1331.23 910.092 1331.56 903.236 1332.59 896.564 1334.27 890.097 1336.54 883.886 1339.39 877.992 1342.75 872.491 1346.63 867.32 1350.97 862.532 1355.76 858.197 1360.93 854.318 1366.43 850.953 1372.32 848.103 1378.53 845.839 1385 844.157 1391.67 843.121Z" fill="#FFA23A" fill-rule="evenodd"/></g><path d="M1324.5 908.5C1324.5 872.602 1353.6 843.5 1389.5 843.5 1425.4 843.5 1454.5 872.602 1454.5 908.5 1454.5 944.398 1425.4 973.5 1389.5 973.5 1353.6 973.5 1324.5 944.398 1324.5 908.5Z" stroke="#FFA23A" stroke-width="4.58333" stroke-miterlimit="8" fill="#F8C641" fill-rule="evenodd"/><path d="M1387.97 953C1386.88 953 1385.99 952.646 1385.28 951.937 1384.57 951.229 1384.21 950.333 1384.21 949.25L1384.21 942.5C1380.21 941.833 1376.79 940.417 1373.95 938.25 1371.11 936.083 1368.9 933.333 1367.31 930 1366.9 929.083 1366.9 928.125 1367.31 927.125 1367.73 926.125 1368.44 925.417 1369.44 925 1370.36 924.583 1371.3 924.583 1372.26 925 1373.22 925.417 1373.95 926.083 1374.45 927 1375.95 929.833 1377.91 931.958 1380.33 933.375 1382.75 934.792 1385.55 935.5 1388.72 935.5 1392.72 935.5 1396.02 934.5 1398.61 932.5 1401.2 930.5 1402.49 927.75 1402.49 924.25 1402.49 920.583 1401.34 917.75 1399.05 915.75 1396.75 913.75 1392.43 911.708 1386.09 909.625 1380.08 907.708 1375.6 905.167 1372.63 902 1369.67 898.833 1368.19 894.875 1368.19 890.125 1368.19 885.542 1369.67 881.708 1372.63 878.625 1375.6 875.542 1379.46 873.792 1384.21 873.375L1384.21 866.75C1384.21 865.667 1384.57 864.771 1385.28 864.063 1385.99 863.354 1386.88 863 1387.97 863 1389.05 863 1389.95 863.354 1390.66 864.063 1391.37 864.771 1391.72 865.667 1391.72 866.75L1391.72 873.375C1394.73 873.792 1397.42 874.709 1399.8 876.125 1402.18 877.542 1404.16 879.375 1405.74 881.625 1406.33 882.458 1406.45 883.354 1406.12 884.313 1405.79 885.271 1405.12 885.958 1404.12 886.375 1403.2 886.792 1402.24 886.833 1401.24 886.5 1400.24 886.167 1399.4 885.542 1398.73 884.625 1397.57 883.125 1396.13 882.021 1394.42 881.313 1392.7 880.604 1390.64 880.25 1388.22 880.25 1384.38 880.25 1381.33 881.125 1379.08 882.875 1376.83 884.625 1375.7 887 1375.7 890 1375.7 893.167 1376.95 895.729 1379.46 897.688 1381.96 899.646 1386.59 901.667 1393.35 903.75 1399.03 905.5 1403.22 908.021 1405.93 911.313 1408.64 914.604 1410 918.75 1410 923.75 1410 929 1408.46 933.229 1405.37 936.438 1402.28 939.646 1397.73 941.708 1391.72 942.625L1391.72 949.25C1391.72 950.333 1391.37 951.229 1390.66 951.937 1389.95 952.646 1389.05 953 1387.97 953Z" fill="#FB6238" fill-rule="evenodd"/></g></svg>