<svg version="1.2" xmlns="http://www.w3.org/2000/svg" viewBox="0 0 512 512" width="512" height="512">
	<title>1874923</title>
	<style>
		.s0 { fill: #ffe09f } 
		.s1 { fill: #ffeaa8 } 
		.s2 { fill: #e5646e } 
		.s3 { fill: #db4655 } 
		.s4 { fill: #95d6a4 } 
		.s5 { fill: #ff8086 } 
		.s6 { fill: #b3e59f } 
	</style>
	<g id="Background">
		<path id="Path 0" class="s0" d="m16.5 116v57c0 31.4-0.3 57-0.8 57-0.4 0-3.6-2.6-7.2-5.8-3.6-3.1-7-7-7.5-8.7-0.6-1.8-1-19.8-1-45.3 0-23.2 0.4-43.2 0.9-44.5 0.5-1.2 2-3.5 3.5-5.1 1.4-1.6 3.6-3.2 4.8-3.7 1.3-0.4 3.4-0.8 7.3-0.9zm-1 167c0.6 0 1 12.2 1 34.7 0 24.5 0.4 36 1.2 38.8 0.7 2.2 2.6 6.1 4.3 8.7 1.6 2.7 5.1 6.4 7.8 8.3 2.6 1.9 7 4.2 9.7 5 4.4 1.3 32.8 1.5 472.5 1.5v2.7c0 1.6-1 4.3-2.2 6.2-1.3 1.9-3.6 4.4-7.9 7.6h-491.8l-2.8-2.1c-1.5-1.1-3.8-3.6-7.4-8.9l0.1-43.3c0-28.8 0.4-43.9 1.1-45.5 0.6-1.2 3.8-4.8 7.2-7.9 3.4-3.2 6.7-5.7 7.2-5.8z"/>
		<path id="Path 1" fill-rule="evenodd" class="s1" d="m17.1 116l483.4 0.1 3.7 2.2c2.1 1.2 4.7 3.8 5.8 5.7 1.8 3.3 1.9 5.6 2 47 0 39.7-0.2 43.7-1.8 46.1-0.9 1.4-4.9 5.7-8.8 9.5-4.6 4.5-8.1 9-10 12.9-2.6 5.5-2.9 6.9-2.9 16.5 0 9.8 0.2 10.9 3.3 17.5 2.5 5.2 5.3 8.8 10.7 14 4 3.9 7.8 8 8.4 9.2 0.7 1.6 1.1 15 1.1 83.3h-233.7c-206 0-234.4-0.2-238.8-1.5-2.7-0.8-7.1-3.1-9.7-5-2.7-1.9-6.2-5.6-7.8-8.2-1.7-2.7-3.6-6.6-4.3-8.8-0.8-2.8-1.2-14.3-1.2-38.8 0-19.1-0.3-34.7-0.7-34.7-0.5 0 1-3.5 3.3-7.7 3.5-6.7 4.2-8.9 4.6-15.8 0.4-5.7 0.1-9.7-1.1-14-0.9-3.3-3-8-4.6-10.5-1.6-2.5-2.6-4.6-2.2-4.7 0.4-0.2 0.6-24.5 0.4-54-0.2-29.6 0-55.3 0.3-57zm231 41.4c-0.1 10 0 10.7 2.4 13.1 1.4 1.4 3.7 2.5 5.3 2.5 1.5 0 3.8-0.8 5.2-1.9 2.4-1.9 2.5-2.6 2.8-13.1l0.2-11c-4.6-4.7-6.9-6-8.1-6-1.1 0-3.3 1.3-4.9 2.9-2.7 2.8-2.8 3.2-2.9 13.5zm0.1 47.7c-0.2 5.7 0.2 11.5 0.7 12.9 0.6 1.3 2.3 3.1 3.8 3.8 2.4 1.2 3.3 1.2 6.1 0 1.8-0.7 3.7-2.5 4.3-3.8 0.6-1.4 0.9-7.2 0.7-12.9-0.3-9.7-0.5-10.5-2.8-12.3-1.4-1.1-3.7-1.9-5.1-1.9-1.5 0-3.7 0.9-5 2-2.2 1.7-2.4 2.7-2.7 12.2zm-0.1 51c-0.1 8.9 0.1 10.7 1.9 13.1 1.6 2.2 2.8 2.8 6 2.8 3.2 0 4.4-0.6 6-2.8 1.8-2.4 2.1-4.2 2-13 0-10-0.1-10.3-3-13.2-1.6-1.7-3.9-3-5.1-3-1.1 0-3.3 1.3-4.9 2.9-2.7 2.8-2.8 3.3-2.9 13.2zm0.1 47.5c-0.2 5.4-0.1 10.9 0.2 12.1 0.4 1.2 1.6 3.2 2.9 4.3 1.2 1.1 3.3 2 4.7 2 1.4 0 3.5-0.9 4.8-2 1.2-1.1 2.5-3.1 2.8-4.3 0.3-1.2 0.4-6.7 0.2-12.1-0.3-9.1-0.5-10-2.8-11.8-1.4-1.1-3.7-1.9-5.1-1.9-1.5 0-3.7 0.9-5 2-2.1 1.7-2.4 2.8-2.7 11.7zm1.4 39.5c-1.2 1.8-1.6 4.8-1.6 12.4-0.1 8.5 0.2 10.4 2 12.7 1.6 2.2 2.8 2.8 6 2.8 3.2 0 4.4-0.6 6-2.8 1.8-2.4 2.1-4.2 2-13 0-9.2-0.2-10.5-2.2-12.7-1.3-1.3-3.2-2.6-4.3-2.9-1.1-0.3-3-0.1-4.1 0.4-1.2 0.4-2.9 1.9-3.8 3.1z"/>
		<path id="Path 2" class="s2" d="m83 223l-0.5 41.5-16.5 0.5v-17.8c0-14.6 0.3-18.1 1.6-20 0.9-1.3 2.6-2.7 3.8-3.2 1.1-0.5 4.2-0.9 11.6-1zm115 42v57l-110.5 0.1-2.2-2.3c-2.1-2.2-2.2-3-2.3-27.8 0-14-0.1-25.8 0-26.3 0-0.4 25.9-0.7 115-0.7z"/>
		<path id="Path 3" class="s3" d="m66 265h16.9l0.1 26.3c0.1 25.6 0.2 26.3 4.5 30.8l110.5-0.1v6c0 5-0.4 6.4-4.9 11h-60.1c-46 0-60.6-0.3-62.5-1.3-1.4-0.6-2.9-2.2-3.5-3.5-0.6-1.3-1-15.4-1-35.7z"/>
		<path id="Path 4" class="s4" d="m340 174.3c5.6 0.2 8.9 1 13 2.9 3 1.5 7.2 4.5 9.3 6.7 2 2.3 4.7 6 5.8 8.3 1.2 2.4 2.5 6.8 3 9.8 0.5 3.3 0.4 7.5-0.2 10.5-0.5 2.7-1.8 6.8-2.9 9-1 2.2-3.8 6-6.2 8.5-2.4 2.4-6.8 5.5-9.8 6.9-4.4 2.1-7.1 2.5-13.5 2.5-5.8 0-9.2-0.5-12.5-2-2.5-1.1-6.7-4-9.4-6.5-3-2.7-6-6.8-7.7-10.4-2.3-4.8-2.9-7.4-2.9-13 0-3.9 0.7-9 1.6-11.5 0.8-2.5 2.9-6.4 4.5-8.8 1.6-2.3 4.8-5.5 7.2-7.1 2.3-1.6 6.2-3.6 8.7-4.5 3.1-1.1 6.9-1.5 12-1.3zm82.5 99.1c4.2 0.2 9 1.1 12 2.4 2.9 1.3 7.1 4.3 10.1 7.4 3.3 3.4 5.8 7.3 7.2 11 1.4 3.6 2.2 8.1 2.2 11.8 0 3.5-0.8 8.2-1.9 11.2-1.1 3-4.1 7.7-6.8 10.6-2.9 3.2-7 6.5-10.3 8-4.6 2.3-6.8 2.7-14 2.7-7.8 0-9-0.3-14.9-3.5-3.5-1.9-7.7-5.1-9.4-7-1.7-1.9-4.1-5.8-5.4-8.5-1.3-2.8-2.6-7.5-2.9-10.5-0.5-3.9-0.1-7.3 1.1-11.5 1-3.3 2.8-7.6 4-9.5 1.3-1.9 3.6-4.7 5.1-6.1 1.6-1.5 4-3.4 5.4-4.3 1.4-0.9 4.5-2.3 7-3.1 2.8-0.9 7.1-1.4 11.5-1.1z"/>
		<path id="Path 5" class="s5" d="m83.1 223l109.7 0.5 5.3 5-0.1 36.5h-115.5l0.3-21z"/>
		<path id="Path 6" class="s6" d="m101.5 157.6c2.8 0.3 6.6 1.4 8.5 2.4 1.9 1 5.4 3.7 7.7 6.1 2.4 2.4 6.4 8.1 9 12.6 2.7 4.5 5 8.2 5.3 8.2 0.3 0 3-4.1 6-9 3-5 7.6-11.1 10.3-13.5 3.2-3 6.4-4.9 10.2-6 3.6-1 7-1.3 9.8-0.9 2.3 0.4 6.4 1.9 9.1 3.4 2.8 1.5 6 4.3 7.6 6.6 1.5 2.2 3.2 5.6 3.9 7.5 0.6 1.9 1.1 5.1 1.1 7 0 1.9-0.7 5.8-1.7 8.5-0.9 2.8-3.3 6.6-5.3 8.5-1.9 2-6.2 5.4-9.5 7.6-3.3 2.3-11.2 6.9-29 16.4h-25l-10.5-5.6c-5.8-3.2-13-7.3-16-9.3-3-1.9-7.5-5.3-9.9-7.5-2.4-2.3-5.1-5.7-6.1-7.6-1-1.9-2.1-5.3-2.5-7.5-0.4-2.6-0.1-6 0.9-9.7 1.1-3.8 2.9-7.2 5.3-9.9 2.1-2.3 5.1-4.8 6.8-5.7 1.7-0.8 4.3-1.9 6-2.3 1.7-0.4 5.3-0.6 8-0.3zm336.2 16.4q3.3 0 5.8 2.5c1.6 1.6 2.5 3.6 2.5 5.5 0 2.4-10.9 17-58.5 78.3-32.2 41.3-59.6 76-60.8 77-1.2 1-3.4 1.8-4.9 1.7-1.6 0-3.9-1.1-5.3-2.5-1.7-1.7-2.5-3.6-2.5-5.7 0-2.8 8.7-14.5 57.6-77.3 31.7-40.7 58.7-75.2 60.2-76.7 1.8-2 3.6-2.8 5.9-2.8z"/>
		<path id="Path 7" class="s1" d="m99.2 174c2.6 0 4.1 1 7.3 4.4 2.2 2.4 6.7 9.2 10 15 3.3 5.9 5.7 10.9 5.2 11.1-0.4 0.3-4.2-1.4-8.5-3.6-4.2-2.3-10.3-5.9-13.5-8-3.1-2.2-6.4-4.9-7.2-6.2-0.8-1.2-1.5-3.5-1.5-5 0.1-1.5 1.2-3.9 2.5-5.2q2.4-2.5 5.7-2.5zm65.8 0c1.4 0 3.7 0.8 5.3 2 2.1 1.5 2.7 2.8 2.7 5.8 0.1 3-0.6 4.3-3.7 7.2-2.1 2-7 5.4-10.8 7.7-3.8 2.2-8.9 5-11.3 6.2-2.3 1.1-4.4 1.9-4.7 1.6-0.3-0.3 1.8-4.7 4.6-9.8 2.8-5 6.7-11.3 8.6-13.9 1.9-2.7 4.2-5.2 5.1-5.8 0.9-0.5 2.8-1 4.2-1zm175.5 16.6c2.2 0.3 5.4 1.3 7 2.3 1.6 1 4.1 4 5.4 6.7 1.9 3.9 2.3 5.9 1.8 9.4-0.3 2.5-1.4 5.6-2.5 7-1 1.4-3.4 3.5-5.3 4.8-2.4 1.6-4.8 2.2-8.1 2.2-2.7 0-6.2-0.7-7.8-1.5-1.6-0.8-4.1-3-5.5-4.8-1.3-1.7-2.7-4.5-3.1-6.2-0.3-1.7-0.4-4.7 0-6.8 0.3-2 2.1-5.5 3.9-7.7 2-2.4 4.7-4.4 6.8-5 1.8-0.5 5.2-0.7 7.4-0.4zm83 99.1c1.6 0.3 4.2 1.2 5.8 1.9 1.5 0.8 3.6 2.6 4.8 4.2 1.1 1.5 2.4 4.4 3 6.5 0.5 2.3 0.5 5.1 0 7.5-0.6 2-1.9 4.9-3 6.5-1.2 1.5-3.5 3.4-5.1 4.2-1.6 0.8-5 1.5-7.5 1.5-2.5 0-6-0.7-7.7-1.5-1.8-0.8-4.4-2.9-5.7-4.7-1.6-2.1-2.7-5.1-2.9-8.3-0.3-3.6 0.1-6.1 1.4-8.9 1.1-2.1 3.3-4.8 4.9-6 1.6-1.1 4.4-2.3 6-2.7 1.6-0.4 4.4-0.5 6-0.2z"/>
	</g>
</svg>