<svg width="142" height="142" xmlns="http://www.w3.org/2000/svg" xmlns:xlink="http://www.w3.org/1999/xlink" xml:space="preserve" overflow="hidden"><defs><clipPath id="clip0"><rect x="1823" y="1097" width="142" height="142"/></clipPath><clipPath id="clip1"><rect x="1848" y="1160" width="26" height="24"/></clipPath><clipPath id="clip2"><rect x="1848" y="1160" width="26" height="24"/></clipPath><clipPath id="clip3"><rect x="1848" y="1160" width="26" height="24"/></clipPath><clipPath id="clip4"><rect x="1848" y="1160" width="26" height="24"/></clipPath><clipPath id="clip5"><rect x="1874" y="1139" width="37" height="36"/></clipPath><clipPath id="clip6"><rect x="1874" y="1139" width="37" height="36"/></clipPath><clipPath id="clip7"><rect x="1874" y="1139" width="37" height="36"/></clipPath><clipPath id="clip8"><rect x="1874" y="1139" width="37" height="36"/></clipPath><clipPath id="clip9"><rect x="1915" y="1160" width="26" height="24"/></clipPath><clipPath id="clip10"><rect x="1915" y="1160" width="26" height="24"/></clipPath><clipPath id="clip11"><rect x="1915" y="1160" width="26" height="24"/></clipPath><clipPath id="clip12"><rect x="1915" y="1160" width="26" height="24"/></clipPath></defs><g clip-path="url(#clip0)" transform="translate(-1823 -1097)"><path d="M1894 1227.17C1885.91 1227.17 1878.27 1225.61 1871.07 1222.51 1863.87 1219.4 1857.59 1215.16 1852.21 1209.79 1846.84 1204.41 1842.6 1198.13 1839.49 1190.93 1836.39 1183.73 1834.83 1176.09 1834.83 1168 1834.83 1159.82 1836.39 1152.12 1839.49 1144.92 1842.6 1137.73 1846.84 1131.46 1852.21 1126.14 1857.59 1120.81 1863.87 1116.6 1871.07 1113.49 1878.27 1110.39 1885.91 1108.83 1894 1108.83 1902.18 1108.83 1909.88 1110.39 1917.07 1113.49 1924.27 1116.6 1930.54 1120.81 1935.86 1126.14 1941.19 1131.46 1945.4 1137.73 1948.51 1144.92 1951.61 1152.12 1953.17 1159.82 1953.17 1168 1953.17 1176.09 1951.61 1183.73 1948.51 1190.93 1945.4 1198.13 1941.19 1204.41 1935.86 1209.79 1930.54 1215.16 1924.27 1219.4 1917.07 1222.51 1909.88 1225.61 1902.18 1227.17 1894 1227.17ZM1894 1218.29C1908 1218.29 1919.89 1213.39 1929.65 1203.57 1939.41 1193.76 1944.29 1181.9 1944.29 1168 1944.29 1154 1939.41 1142.11 1929.65 1132.35 1919.89 1122.59 1908 1117.71 1894 1117.71 1880.1 1117.71 1868.24 1122.59 1858.43 1132.35 1848.61 1142.11 1843.71 1154 1843.71 1168 1843.71 1181.9 1848.61 1193.76 1858.43 1203.57 1868.24 1213.39 1880.1 1218.29 1894 1218.29Z"/><g clip-path="url(#clip1)"><g clip-path="url(#clip2)"><g clip-path="url(#clip3)"><g clip-path="url(#clip4)"><path d="M153.258 117.425C153.446 117.425 153.632 117.477 153.82 117.582 154.007 117.687 154.148 117.844 154.242 118.054L157.188 125.045 164.805 125.709C165.04 125.732 165.239 125.808 165.402 125.936 165.566 126.064 165.672 126.222 165.719 126.408 165.764 126.594 165.77 126.787 165.736 126.985 165.701 127.183 165.59 127.363 165.402 127.527L159.646 132.525 161.366 139.935C161.413 140.168 161.395 140.378 161.313 140.564 161.231 140.751 161.108 140.902 160.945 141.019 160.781 141.135 160.595 141.199 160.382 141.211 160.173 141.223 159.973 141.17 159.787 141.054L153.258 137.139 146.73 141.054C146.543 141.17 146.344 141.223 146.133 141.211 145.923 141.199 145.735 141.135 145.572 141.019 145.408 140.902 145.285 140.751 145.203 140.564 145.121 140.378 145.104 140.168 145.15 139.935L146.87 132.525 141.114 127.527C140.927 127.363 140.816 127.183 140.781 126.985 140.746 126.787 140.751 126.594 140.798 126.408 140.845 126.222 140.95 126.064 141.114 125.936 141.278 125.808 141.477 125.732 141.711 125.709L149.327 125.045 152.275 118.054C152.369 117.844 152.51 117.687 152.696 117.582 152.884 117.477 153.07 117.425 153.258 117.425Z" fill="#F8C641" fill-rule="evenodd" transform="matrix(1 0 0 1.0089 1707.24 1041.53)"/></g></g></g></g><g clip-path="url(#clip5)"><g clip-path="url(#clip6)"><g clip-path="url(#clip7)"><g clip-path="url(#clip8)"><path d="M225.494 172.771C225.77 172.771 226.045 172.848 226.321 173.002 226.595 173.157 226.803 173.388 226.941 173.697L231.277 183.983 242.484 184.96C242.829 184.994 243.121 185.106 243.362 185.294 243.603 185.483 243.759 185.714 243.828 185.988 243.895 186.263 243.904 186.545 243.852 186.837 243.801 187.128 243.638 187.394 243.362 187.634L234.893 194.988 237.423 205.892C237.492 206.234 237.465 206.543 237.345 206.817 237.225 207.092 237.044 207.314 236.803 207.486 236.563 207.657 236.288 207.751 235.976 207.769 235.669 207.786 235.374 207.709 235.1 207.537L225.494 201.777 215.889 207.537C215.613 207.709 215.321 207.786 215.011 207.769 214.701 207.751 214.426 207.657 214.185 207.486 213.944 207.314 213.763 207.092 213.642 206.817 213.522 206.543 213.496 206.234 213.565 205.892L216.095 194.988 207.626 187.634C207.351 187.394 207.187 187.128 207.136 186.837 207.084 186.545 207.092 186.263 207.161 185.988 207.23 185.714 207.385 185.483 207.626 185.294 207.867 185.106 208.16 184.994 208.504 184.96L219.71 183.983 224.047 173.697C224.185 173.388 224.393 173.157 224.667 173.002 224.943 172.848 225.218 172.771 225.494 172.771Z" fill="#F8C641" fill-rule="evenodd" transform="matrix(1.00588 0 0 1 1665.68 967.229)"/></g></g></g></g><g clip-path="url(#clip9)"><g clip-path="url(#clip10)"><g clip-path="url(#clip11)"><g clip-path="url(#clip12)"><path d="M153.258 117.425C153.446 117.425 153.632 117.477 153.82 117.582 154.007 117.687 154.148 117.844 154.242 118.054L157.188 125.045 164.805 125.709C165.04 125.732 165.239 125.808 165.402 125.936 165.566 126.064 165.672 126.222 165.719 126.408 165.764 126.594 165.77 126.787 165.736 126.985 165.701 127.183 165.59 127.363 165.402 127.527L159.646 132.525 161.366 139.935C161.413 140.168 161.395 140.378 161.313 140.564 161.231 140.751 161.108 140.902 160.945 141.019 160.781 141.135 160.595 141.199 160.382 141.211 160.173 141.223 159.973 141.17 159.787 141.054L153.258 137.139 146.73 141.054C146.543 141.17 146.344 141.223 146.133 141.211 145.923 141.199 145.735 141.135 145.572 141.019 145.408 140.902 145.285 140.751 145.203 140.564 145.121 140.378 145.104 140.168 145.15 139.935L146.87 132.525 141.114 127.527C140.927 127.363 140.816 127.183 140.781 126.985 140.746 126.787 140.751 126.594 140.798 126.408 140.845 126.222 140.95 126.064 141.114 125.936 141.278 125.808 141.477 125.732 141.711 125.709L149.327 125.045 152.275 118.054C152.369 117.844 152.51 117.687 152.696 117.582 152.884 117.477 153.07 117.425 153.258 117.425Z" fill="#F8C641" fill-rule="evenodd" transform="matrix(1 0 0 1.0089 1774.24 1041.53)"/></g></g></g></g></g></svg>