<svg width="138" height="123" xmlns="http://www.w3.org/2000/svg" xmlns:xlink="http://www.w3.org/1999/xlink" xml:space="preserve" overflow="hidden"><defs><clipPath id="clip0"><rect x="1511" y="1652" width="138" height="123"/></clipPath></defs><g clip-path="url(#clip0)" transform="translate(-1511 -1652)"><path d="M1547.23 1652C1553.09 1652 1558.9 1653.41 1564.65 1656.22 1570.4 1659.03 1575.52 1663.66 1580 1670.09 1585.06 1663.66 1590.29 1659.03 1595.7 1656.22 1601.1 1653.41 1606.8 1652 1612.78 1652 1623.01 1652 1631.61 1655.47 1638.56 1662.42 1645.52 1669.37 1649 1678.01 1649 1688.35 1649 1701.44 1643.77 1713.99 1633.3 1725.99 1622.84 1737.99 1610.48 1750.6 1596.22 1763.8L1587.07 1772.24C1585.12 1774.08 1582.76 1775 1580 1775 1577.24 1775 1574.88 1774.08 1572.93 1772.24L1563.79 1763.8C1549.52 1750.6 1537.16 1737.99 1526.7 1725.99 1516.23 1713.99 1511 1701.44 1511 1688.35 1511 1678.01 1514.48 1669.37 1521.44 1662.42 1528.39 1655.47 1536.99 1652 1547.23 1652Z" fill="#E93330" fill-rule="evenodd"/></g></svg>