<svg version="1.2" xmlns="http://www.w3.org/2000/svg" viewBox="0 0 512 512" width="512" height="512">
	<title>store</title>
	<style>
		.s0 { fill: #fca629 } 
		.s1 { fill: #706f7f } 
		.s2 { fill: #e60d28 } 
		.s3 { fill: #b9bbc1 } 
		.s4 { fill: #0fb0c0 } 
		.s5 { fill: #e9eaeb } 
		.s6 { fill: #fc502a } 
		.s7 { fill: #fdc74f } 
		.s8 { fill: #8b8996 } 
		.s9 { fill: #ffffff } 
		.s10 { fill: #00c6c8 } 
		.s11 { fill: #f2f2f2 } 
	</style>
	<g id="Background">
		<path id="Path 0" class="s0" d="m421.1 26.9l51.1 0.6 2.4 2.8c2.4 2.7 2.4 3 2.4 43.7h-56v-23.5z"/>
		<path id="Path 1" class="s1" d="m488.5 438.4c10.4 0.1 12.5 0.4 15.5 2.2 2 1.2 4.5 4.1 5.7 6.5 2.1 4 2.3 5.8 2.3 20.2 0 14.7-0.1 15.8-2 16.7-1.2 0.6-12.7 1-54 1v-46l10.3-0.3c5.6-0.2 15.6-0.3 22.2-0.3z"/>
		<path id="Path 2" class="s2" d="m9.9 143c4.7 0 20.8 0.3 62.9 1.3l-0.1 19.1c-0.2 18.2-0.3 19.4-2.8 24.6-1.4 3-4.1 7.3-6.1 9.5-1.9 2.2-6.2 5.4-9.4 7.2-3.5 1.9-8.7 3.6-12.9 4.3-5.9 1-8 0.9-13.5-0.5-3.8-0.9-8.8-3.2-12-5.4-3-2.1-7.1-6.2-9.2-9.2-2-3-4.4-8.1-5.2-11.4-1.1-4.1-1.7-11.2-1.8-22.1-0.1-8.8 0.2-16.4 0.7-16.7 0.5-0.4 4.7-0.7 9.4-0.7zm502.1 0v16.7c0 12.1-0.4 18.5-1.6 22.8-0.8 3.3-3.2 8.5-5.3 11.5-2.1 3-6.2 7.1-9.2 9.2-3.1 2.1-8.2 4.4-11.9 5.3-5.5 1.4-7.6 1.5-13.5 0.5-4.2-0.7-9.4-2.4-12.9-4.3-3.2-1.8-7.5-5-9.4-7.2-2-2.2-4.7-6.5-6.1-9.5-2.5-5.2-2.6-6.5-3.1-44l18.7-0.3c10.4-0.1 26.8-0.3 54.3-0.7zm-366 1h73l-0.5 38.6-3.1 6.4c-1.9 3.9-5 8.1-7.7 10.5-2.4 2.2-6.4 5-8.8 6.2-2.4 1.2-6.9 2.6-9.9 3.1-3.3 0.5-7.9 0.5-11.5 0-3.3-0.5-8-1.9-10.5-3.1-2.5-1.2-6.8-4.5-9.5-7.2-2.8-2.8-6-7-7.2-9.5-1.2-2.5-2.7-7.7-3.2-11.5-0.6-3.8-1.1-13-1.1-20.3zm146 0h73l-0.2 19.8c-0.3 18.8-0.4 20-2.8 24.7-1.4 2.8-4.7 7.3-7.5 10-2.7 2.8-7 6-9.5 7.2-2.5 1.3-7 2.6-10 3.1-3.3 0.6-7.9 0.6-11.5 0-3.3-0.5-8-1.8-10.4-3.1-2.4-1.2-6.4-4-8.8-6.2-2.5-2.2-5.8-6.6-7.4-10-1.6-3.3-3.4-8.9-3.9-12.5-0.5-3.5-0.9-12.4-1-19.7z"/>
		<path id="Path 3" class="s3" d="m438.4 177.2l1.6 5.1c0.9 2.9 2.7 7.2 4.2 9.7 1.4 2.5 4.2 6 6.2 7.8 2 1.7 5.7 4.3 8.4 5.6 2.6 1.3 6.5 2.7 8.7 3.1 2.2 0.3 5 0.8 8.5 1.5v229h-57v-49h7.3c5.7 0.1 7.7-0.3 12.2-3.8l0.3-63.4c0.2-49.5 0-63.9-1-66.1-0.8-1.6-2.6-3.2-4.3-3.8-1.6-0.5-5.6-0.9-14.5-0.9v-47l4.5-2.7c3.1-1.9 5.9-4.9 8.7-9.3 2.2-3.6 4.6-8.6 5.2-11.2z"/>
		<path id="Path 4" class="s4" d="m113.1 251.9l52.1 0.6 1.9 2.5c1.9 2.4 2 4.7 1.9 184l-55.5-0.5-0.2-93.3zm269.9 0.1h23.8c13 0 25.1 0.4 26.7 0.9 1.7 0.6 3.5 2.2 4.3 3.8 1 2.2 1.2 16.6 0.7 129.5l-2.5 1.9c-2.3 1.9-4.2 2-53 1.9v-69z"/>
		<path id="Path 5" class="s5" d="m429.5 143.4c5.5 0 8 0.1 5.5 0.3-2.5 0.2-7 0.2-10 0-3-0.2-1-0.3 4.5-0.3zm-356.2 33.1l1.4 5.5c0.8 3 2.8 7.7 4.6 10.4 1.8 2.7 4.8 6.3 6.8 8 2 1.7 5.6 4.1 8 5.3 2.4 1.2 7.1 2.6 10.4 3.1 3.4 0.5 8.3 0.5 11.2 0 2.9-0.4 7.5-1.9 10.3-3.3 2.7-1.4 6.6-4 8.6-5.8 2-1.7 4.6-4.8 5.7-6.7 1.2-1.9 3.1-6.2 6.4-15.5l1.2 4.7c0.6 2.7 2.6 7.1 4.3 10 1.8 2.8 4.9 6.5 6.9 8.2 2 1.7 5.6 4.1 8 5.3 2.4 1.2 7.1 2.6 10.4 3.1 3.6 0.5 8.2 0.5 11.5 0 3-0.5 7.5-1.9 9.9-3.1 2.4-1.2 6-3.6 8-5.3 2-1.7 4.7-4.8 6.1-7 1.3-2.1 3.4-6.6 6.7-15.9l1.2 4.7c0.6 2.7 2.6 7.1 4.3 10 1.8 2.8 4.9 6.5 6.9 8.2 2 1.7 5.6 4.1 8 5.3 2.4 1.2 7.1 2.6 10.4 3.1 3.6 0.5 8.2 0.5 11.5 0 3-0.5 7.5-1.9 9.9-3.1 2.4-1.2 6-3.6 8-5.3 2-1.7 5.1-5.4 6.8-8.2 1.8-2.9 3.8-7.3 5.6-14.7l2.1 6c1.2 3.3 3.3 7.8 4.6 9.9 1.4 2.2 4.1 5.3 6.1 7 2 1.7 5.6 4.1 8 5.3 2.4 1.2 6.9 2.6 9.9 3.1 3.3 0.5 7.9 0.5 11.5 0 3.3-0.5 8-1.9 10.4-3.1 2.4-1.2 6-3.6 8-5.3 2-1.7 5.1-5.4 6.8-8.2 1.8-2.9 3.8-7.3 5.6-14.7l2.1 6c1.2 3.3 3.1 7.6 4.3 9.5 1.1 1.9 3.7 5 5.7 6.7 2 1.8 5.8 4.4 8.6 5.8 2.7 1.4 7.4 2.9 10.2 3.3 3 0.5 7.9 0.5 11.3 0 3.3-0.5 7.2-1.6 8.7-2.4 1.6-0.7 2.9-1.2 3-1 0.2 0.2 0.2 10.7-0.3 46.1l-27.2 0.8c-15 0.4-63.2 0.7-187.2 0.6l-2 2.2c-2 2.1-2 3.5-2 66.5 0 60.4 0.1 64.4 1.8 66.1 1.7 1.7 7.6 1.8 216.7 2.3v49h-250v-90.8c0.1-88.6 0-90.8-3.8-95.7l-46.4 0.3c-25.5 0.1-47.2 0.4-48.3 0.6-1.1 0.3-2.6 1.6-3.3 3-0.9 2-1.2 22.6-1.2 182.6h-30v-229l2.2-0.4c1.3-0.3 4.1-0.8 6.3-1.1 2.2-0.4 6.1-1.8 8.7-3.1 2.7-1.3 6.6-4.1 8.9-6.1 2.2-2.1 5.4-6.5 7-9.8 1.6-3.3 3.2-7.6 3.6-9.5z"/>
		<path id="Path 6" class="s6" d="m34.4 74h31.8c17.5 0 31.8 0.1 31.8 0.3 0 0.1-5.4 15.3-12 33.7-6.6 18.4-12.3 34.1-12.5 34.8-0.4 0.9-8.5 1.1-37 0.9-20.1-0.1-36.5-0.3-36.5-0.5 0-0.1 7.7-15.7 17.2-34.7zm189.6 0v2.3c0 1.2-0.9 15.5-2 31.7-1.2 16.2-2.3 31-3 36h-36c-33.6 0-36-0.1-36-1.7 0-1 1.4-8.1 3.1-15.8 1.6-7.7 4.8-22.5 7-33 2.1-10.4 3.9-19.1 3.9-19.2 0-0.2 14.2-0.3 63-0.3zm63.5 0h63l7.3 34.2c4 18.9 7.3 34.6 7.2 35.1 0 0.4-16.2 0.7-36 0.7-27.9 0-36.1-0.3-36.4-1.3-0.2-0.6-1.5-16.4-2.8-35zm190 0l34.5 69-36.2 0.6c-19.9 0.3-36.6 0.2-36.9-0.2-0.4-0.5-6.1-15.9-12.8-34.4-6.6-18.4-12-33.8-12.1-34.2 0-0.4 14.3-0.8 63.5-0.8z"/>
		<path id="Path 7" class="s7" d="m421 27v47h-386v-20.3c0-16.9 0.2-20.6 1.6-22.5 0.9-1.3 2.6-2.7 3.8-3.2 1.1-0.5 87.3-0.9 380.6-1z"/>
		<path id="Path 8" class="s8" d="m31 438.5c9.1 0.3 108.4 0.5 425 0.5v46h-226.8c-181.6 0-227-0.2-228-1.2-0.9-0.9-1.2-5.7-1.2-17.1 0-12.9 0.3-16.4 1.8-19.3 0.9-2.1 3.1-4.6 4.7-5.7 1.7-1.2 4.1-2.4 5.5-2.9 1.4-0.4 9.9-0.6 19-0.3z"/>
		<path id="Path 9" class="s9" d="m98.2 74h31.4c17.3 0 31.4 0.2 31.4 0.5 0 0.3-2.3 11.2-5 24.3-2.8 13-6 28.2-9.5 43.7l-36.3 0.2c-23.6 0.2-36.2 0-36.2-0.7 0-0.6 5.4-16.1 12.1-34.5zm125.8 0l63.5 0.5 2.2 29c1.2 15.9 2.2 31.4 2.3 39.5h-35.8c-19.6 0-35.9-0.1-36.2-0.4-0.3-0.2 0.5-14.1 1.7-30.8 1.2-16.7 2.2-32 2.3-34.1zm189.4 0.1l12 33.2c6.5 18.3 12 33.8 12.2 34.5 0.3 1-7.5 1.3-36.2 1.3-20 0-36.5-0.4-36.5-0.8 0-0.4-3.1-15.4-7-33.2-3.8-17.9-7-33.1-7-33.8 0-1 6.9-1.2 62.5-1.2z"/>
		<path id="Path 10" class="s10" d="m113 253l0.5 186h-47.5v-90c0-65.8 0.3-90.6 1.1-92.3 0.7-1.2 1.7-2.5 2.3-2.9 0.6-0.4 10.7-0.8 43.6-0.8zm91.3 0h178.7v137l-89.5-0.3c-84.3-0.2-89.5-0.3-91.2-2-1.7-1.7-1.8-5.7-1.8-66.1 0-61.8 0.1-64.5 1.9-66.5z"/>
		<path id="Path 11" class="s11" d="m146.5 142.2c0-0.1-0.1 8.2-0.1 18.6-0.2 14.6-0.6 19.7-1.8 23.2-1 2.5-2.7 6.3-4 8.5-1.3 2.2-4 5.5-6 7.3-2 1.7-5.8 4.3-8.6 5.7-2.8 1.4-7.6 2.9-10.8 3.3-3.2 0.5-8.1 0.5-11.2 0-3-0.5-7.5-1.9-9.9-3.1-2.4-1.2-6-3.6-8-5.3-2-1.7-5-5.3-6.8-8-1.8-2.7-3.9-7.6-4.8-10.9-1.1-4.2-1.5-10.8-1.5-38.5l36.8-0.3c20.2-0.1 36.7-0.3 36.7-0.5zm72.5 0.3l73.5 0.6-0.1 17.7c-0.1 11-0.6 19.4-1.4 22.2-0.7 2.5-2.7 6.7-4.4 9.4-1.7 2.7-4.7 6.3-6.7 8-2 1.7-5.6 4.1-8 5.3-2.4 1.2-7.1 2.6-10.4 3.1-3.6 0.5-8.2 0.5-11.5 0-3-0.5-7.5-1.9-9.9-3.1-2.4-1.2-6-3.6-8-5.3-2-1.7-5-5.3-6.7-8-1.7-2.7-3.8-7.5-4.7-10.6-1.3-4.4-1.7-10-1.7-22.5zm146 0.5h22.8c12.5 0 29.2 0.3 51.4 1.5l-0.4 18c-0.1 9.9-0.7 18.6-1.3 19.5-0.5 0.8-1.1 2.2-1.2 3.2-0.2 1-1.5 3.7-3 6-1.5 2.3-3.6 5.3-4.7 6.6-1.2 1.3-4.3 3.8-7.1 5.6-2.7 1.8-5.9 3.5-7 3.9-1.1 0.4-4.2 1-7 1.5-2.7 0.5-7.6 0.5-10.7 0-3.2-0.5-8-2-10.8-3.3-2.7-1.4-6.6-4-8.6-5.8-2-1.8-4.7-5-6-7.2-1.3-2.2-3.2-6.7-4.4-10-1.7-5.2-2-8.5-2-22.8z"/>
		<path id="Path 12" class="s9" d="m141.5 328.6c1.1 0.3 3 1.7 4.3 3 1.9 2.1 2.2 3.5 2.2 11.4 0 7.9-0.3 9.3-2.3 11.6q-2.2 2.7-5.4 2.8c-2.2 0.1-4-0.7-5.5-2.2-2-1.9-2.3-3.4-2.6-11-0.2-6.6 0.1-9.3 1.3-11.2 0.9-1.3 2.6-3 3.8-3.7 1.2-0.7 3.1-1 4.2-0.7z"/>
	</g>
</svg>