<svg version="1.2" xmlns="http://www.w3.org/2000/svg" viewBox="0 0 512 512" width="512" height="512">
	<title>3225091</title>
	<style>
		.s0 { fill: #eb423f } 
		.s1 { fill: #a82a27 } 
		.s2 { fill: #e9eef2 } 
		.s3 { fill: #eba72e } 
	</style>
	<g id="Background">
		<path id="Path 0" class="s0" d="m24 184h432v176h-432v-88z"/>
		<path id="Path 1" class="s1" d="m72 152h416v176h-32v-144h-384v-16zm-3.1 72h102.1l2.5 2.5c1.6 1.6 2.5 3.6 2.5 5.5 0 1.8-0.9 4-4.9 8h-102.1l-2.5-2.5c-1.6-1.6-2.5-3.6-2.5-5.5 0.1-1.9 1.1-4.1 2.5-5.5zm0 32h102.1l5 5v54l-4.9 5h-102.1l-5-5 0.1-54.1 2.4-2.5z"/>
		<path id="Path 2" class="s2" d="m295.5 224.1c2.2 0 5.8 0.5 8 1.1 2.4 0.8 6 3.2 9 6.3 3.1 3 5.5 6.6 6.3 9 0.6 2.2 1.2 5.6 1.2 7.5 0 1.9-0.6 5.3-1.2 7.5-0.8 2.4-3.2 6-6.3 9-3 3.1-6.6 5.5-9 6.3-2.2 0.6-5.6 1.2-7.5 1.2-1.9 0-5.3-0.6-7.5-1.2-2.4-0.8-6-3.2-9-6.3-3.1-3-5.5-6.6-6.3-9-0.6-2.2-1.2-5.6-1.2-7.5 0-1.9 0.6-5.3 1.2-7.5 0.8-2.4 3.2-6 6.3-9 2.7-2.8 6.6-5.6 8.5-6.2 1.9-0.6 5.3-1.1 7.5-1.2zm64.7-0.1c1.7 0 3.8 1 5.3 2.5 1.4 1.4 2.5 3.7 2.5 5.3 0.1 2.1-7.3 12-33 44.2-18.2 22.8-33.9 42.1-34.8 42.8-0.9 0.7-2.9 1.2-4.5 1.2-1.5 0-3.8-1.1-5.2-2.5-1.4-1.4-2.5-3.7-2.5-5.2-0.1-2.2 7.3-12.1 33-44.3 18.2-22.8 33.9-42.1 34.8-42.8 0.9-0.6 2.9-1.2 4.4-1.2zm-0.7 48.1c2.2 0 5.8 0.5 8 1.1 2.4 0.8 6 3.2 9 6.3 3.1 3 5.5 6.6 6.3 9 0.6 2.2 1.2 5.6 1.2 7.5 0 1.9-0.6 5.3-1.2 7.5-0.8 2.4-3.2 6-6.3 9-3 3.1-6.6 5.5-9 6.3-2.2 0.6-5.6 1.2-7.5 1.2-1.9 0-5.3-0.6-7.5-1.2-2.4-0.8-6-3.2-9-6.3-3.1-3-5.5-6.6-6.3-9-0.6-2.2-1.2-5.6-1.2-7.5 0-1.9 0.6-5.3 1.2-7.5 0.8-2.4 3.2-6 6.3-9 2.7-2.8 6.6-5.6 8.5-6.2 1.9-0.6 5.3-1.1 7.5-1.2z"/>
		<path id="Path 3" class="s3" d="m216 200c1.9 0 3.9 0.9 5.5 2.5 1.6 1.6 2.5 3.6 2.5 5.5 0 1.8-0.9 4-2.5 5.5-1.5 1.6-3.5 2.5-5.5 2.5-1.9 0-3.9-0.9-5.5-2.5-1.6-1.6-2.5-3.6-2.5-5.5 0.1-1.9 1.1-4.1 2.5-5.5 1.5-1.6 3.5-2.5 5.5-2.5zm0 32c1.9 0 3.9 0.9 5.5 2.5 1.6 1.6 2.5 3.6 2.5 5.5 0 1.8-0.9 4-2.5 5.5-1.5 1.6-3.5 2.5-5.5 2.5-1.9 0-3.9-0.9-5.5-2.5-1.6-1.6-2.5-3.6-2.5-5.5 0.1-1.9 1.1-4.1 2.5-5.5 1.5-1.6 3.5-2.5 5.5-2.5zm0 32c1.9 0 3.9 0.9 5.5 2.5 1.6 1.6 2.5 3.6 2.5 5.5 0 1.8-0.9 4-2.5 5.5-1.5 1.6-3.5 2.5-5.5 2.5-1.9 0-3.9-0.9-5.5-2.5-1.6-1.6-2.5-3.6-2.5-5.5 0.1-1.9 1.1-4.1 2.5-5.5 1.5-1.6 3.5-2.5 5.5-2.5zm0 32c1.9 0 3.9 0.9 5.5 2.5 1.6 1.6 2.5 3.6 2.5 5.5 0 1.8-0.9 4-2.5 5.5-1.5 1.6-3.5 2.5-5.5 2.5-1.9 0-3.9-0.9-5.5-2.5-1.6-1.6-2.5-3.6-2.5-5.5 0.1-1.9 1.1-4.1 2.5-5.5 1.5-1.6 3.5-2.5 5.5-2.5zm0 32c1.9 0 3.9 0.9 5.5 2.5 1.6 1.6 2.5 3.6 2.5 5.5 0 1.8-0.9 4-2.5 5.5-1.5 1.6-3.5 2.5-5.5 2.5-1.9 0-3.9-0.9-5.5-2.5-1.6-1.6-2.5-3.6-2.5-5.5 0.1-1.9 1.1-4.1 2.5-5.5 1.5-1.6 3.5-2.5 5.5-2.5z"/>
		<path id="Path 4" class="s0" d="m296 240c1.9 0 3.9 0.9 5.5 2.5 1.6 1.6 2.5 3.6 2.5 5.5 0 1.8-0.9 4-2.5 5.5-1.5 1.6-3.5 2.5-5.5 2.5-1.9 0-3.9-0.9-5.5-2.5-1.6-1.6-2.5-3.6-2.5-5.5 0.1-1.9 1.1-4.1 2.5-5.5 1.5-1.6 3.5-2.5 5.5-2.5zm-216 32h16v32h-16v-16zm32 0h16v32h-16v-16zm32 0h16v32h-16v-16zm216 16c1.9 0 3.9 0.9 5.5 2.5 1.6 1.6 2.5 3.6 2.5 5.5 0 1.8-0.9 4-2.5 5.5-1.5 1.6-3.5 2.5-5.5 2.5-1.9 0-3.9-0.9-5.5-2.5-1.6-1.6-2.5-3.6-2.5-5.5 0.1-1.9 1.1-4.1 2.5-5.5 1.5-1.6 3.5-2.5 5.5-2.5z"/>
	</g>
</svg>