<svg version="1.2" xmlns="http://www.w3.org/2000/svg" viewBox="0 0 512 512" width="512" height="512">
	<title>thumbs-up</title>
	<style>
		.s0 { fill: #ee6161 } 
		.s1 { fill: #fee45a } 
		.s2 { fill: #fed2a4 } 
		.s3 { fill: #f37c7c } 
		.s4 { fill: #ffe5c2 } 
	</style>
	<g id="Background">
		<path id="Path 0" class="s0" d="m147.7 253c2.1 0 5.6 0.6 7.7 1.3 2.1 0.6 5.7 2.8 7.9 4.7 2.2 1.9 4.9 5.3 5.9 7.5 1.7 3.8 1.8 10.2 1.8 229l-3 5.3c-2.2 3.9-4.3 6-13.5 11.2h-57.7c-53.3 0-58-0.1-60.8-1.7-1.6-1-3.9-3.5-5-5.5-1.8-3.5-2-5.4-1.5-41.3l42.5-0.6c29.4-0.3 43.6-0.9 46-1.7 1.9-0.7 5.3-2.3 7.5-3.6 2.2-1.3 6-4.6 8.4-7.2 2.5-2.7 5.4-6.9 6.5-9.4 2.1-4.4 2.1-6.2 2.4-95 0.1-49.8 0.4-91.1 0.7-91.8 0.2-0.7 2.1-1.2 4.2-1.2z"/>
		<path id="Path 1" class="s1" d="m301.7 0c1.8 0 4 0.3 4.9 0.8 0.9 0.4 4.9 7.2 8.9 15.2 4 8 8.1 14.9 9.1 15.4 1.1 0.5 8.9 1.9 17.4 3.2 11.3 1.7 16 2.8 17.2 4.1 1 1 2.1 3.2 2.5 5 0.8 3 0.3 3.6-11.4 15.5-10.9 10.9-12.2 12.7-12.3 15.8 0 1.9 0.9 8.5 2 14.5 1.1 6 2 12.9 2 15.3 0 3.4-0.5 4.6-2.7 6.2-1.6 1.2-3.9 2-5.3 2-1.4 0-8.6-3.2-16-7-7.4-3.9-14.4-7-15.5-7-1.1 0-8 3.2-15.2 7-8.7 4.6-14.4 7-16.5 7-2 0-4.2-0.9-5.6-2.3-1.5-1.5-2.2-3.3-2.2-5.7 0-1.9 0.9-8.7 2-15 1.1-6.3 2-12.8 2-14.5 0-2.5-2.1-5-12-15-9.4-9.4-11.9-12.6-12-14.8 0-1.5 0.5-3.6 1-4.7 0.6-1.1 1.8-2.4 2.8-2.9 0.9-0.5 8.2-1.9 16.2-3.1 8-1.2 15.5-2.8 16.8-3.6 1.3-0.8 4.8-6.7 8.3-14.2 3.4-7 7.1-13.7 8.2-15 1.3-1.4 3.2-2.2 5.4-2.2zm133.6 64.1c0.9-0.1 2.6 0.4 3.7 0.9 1.1 0.6 4.4 5.9 7.5 12.5 3.8 8 6.2 11.8 7.8 12.4 1.2 0.4 6.3 1.4 11.2 2 5 0.7 10.5 1.7 12.3 2.2 1.7 0.5 3.7 1.9 4.3 3.2 0.6 1.2 0.8 3.4 0.5 5-0.4 1.7-3.9 5.7-9.6 11-7.6 6.9-9 8.7-9 11.2 0 1.7 0.8 7.7 1.7 13.5 1.4 8.5 1.5 11 0.5 13.3-0.7 1.6-2.3 3-3.9 3.4-2.2 0.5-5.3-0.7-26.8-11.8l-12.7 6.3c-11.5 5.7-12.9 6.2-15.2 5.1-1.4-0.7-3-2.3-3.5-3.5-0.7-1.6-0.3-5.8 1-13.3 1-6.1 1.9-12.1 1.9-13.5-0.1-1.8-2.8-5.2-9.5-12-6.3-6.3-9.5-10.3-9.5-11.7 0-1.3 1-3.3 2.3-4.6 1.8-1.9 4.1-2.5 12.2-3.6 5.5-0.6 11.5-1.6 13.3-2.2 2.8-0.8 3.9-2.2 9.2-12.8 3.3-6.5 6.5-12.1 7.2-12.4 0.7-0.3 2.1-0.6 3.1-0.6z"/>
		<path id="Path 2" class="s2" d="m170.7 444.1l11.9 6.6c6.6 3.6 14.4 7.4 17.4 8.5 5.2 1.7 10.1 1.8 186.5 1.8l6-3c3.3-1.6 6.3-3 6.8-3 0.4 0 1.9 2.1 3.4 4.7q2.7 4.8 3.1 10.8c0.3 3.9-0.1 7.9-1.2 11.5-1.1 3.7-3.1 7-6.1 10.2-2.5 2.7-6.6 5.8-14 9.3l-87.5 0.3c-60.3 0.2-89.5 0-94-0.8-4.9-0.8-9.6-2.8-31.5-14.8l-0.4-21z"/>
		<path id="Path 3" class="s3" d="m143.5 253l-0.5 91.7c-0.5 89.9-0.5 91.9-2.6 96.3-1.1 2.5-4 6.7-6.5 9.4-2.4 2.6-6.2 5.9-8.4 7.2-2.2 1.3-5.6 2.9-7.5 3.6-2.4 0.8-16.7 1.3-89 2.3l0.2-100.7c0.3-100 0.3-100.7 2.4-103.5 1.1-1.5 3.6-3.6 5.5-4.5 3.1-1.6 7.8-1.8 106.4-1.8z"/>
		<path id="Path 4" class="s4" d="m308.5 153.5c3.3 0.3 8 1.5 10.5 2.6 2.5 1.1 6.4 3.6 8.8 5.5 2.6 2.1 5.3 5.7 7.2 9.7 1.7 3.4 3.5 9.4 4.1 13.2 0.7 4.4 0.9 15.5 0.6 29.5-0.4 18.8-0.8 23.8-2.6 30.5-1.2 4.4-4.7 13.6-7.8 20.5-5.2 11.7-5.5 12.7-2.7 17.5l38.4 0.5c33.7 0.5 39.1 0.8 43 2.4 2.5 0.9 6.3 3.1 8.5 4.7 2.2 1.7 5.2 4.7 6.7 6.7 1.5 2 3.4 5.7 4.3 8.2 1 2.5 1.8 7.6 1.8 11.5 0.1 5.9-0.4 8-3 13.5-1.7 3.6-4.6 7.9-6.5 9.5-1.8 1.7-4.2 3.6-5.3 4.2-1.9 1.1-1.9 1.2 1.3 4.7 1.7 2 4.2 5.5 5.3 7.9 1.3 2.5 2.4 6.9 2.7 10.7 0.2 3.6-0.1 8.3-0.7 10.5-0.6 2.2-2.4 6.1-4.1 8.8-1.6 2.6-4.9 6.1-7.3 7.7-2.3 1.7-4.6 3.2-5.2 3.3-0.6 0.2 0.2 1.9 1.7 3.8 1.5 1.9 3.4 5.4 4.3 7.9 0.8 2.5 1.5 6.5 1.5 9 0 2.5-0.4 6.1-1 8-0.5 1.9-2.2 5.4-3.7 7.7-1.5 2.3-4.6 5.5-6.8 7.1-2.2 1.6-5.7 3.4-7.7 4.1-2.1 0.6-3.8 1.4-3.8 1.9 0 0.4 1.9 2.3 8.5 7.9l-13 6.3h-181.5l-6.2-2.4c-3.5-1.2-11-5-27.3-14.2l-0.6-160.9 6.2-13c3.4-7.1 8.1-15.7 10.4-19 2.3-3.3 6.6-7.9 9.6-10.2 3-2.3 9.2-5.9 13.9-8.1 4.7-2.1 18.4-9.6 30.5-16.6 12.1-7 23.6-13.8 25.5-15 3.1-2 4.4-4.5 11-20 6-14.1 8.3-18.6 11.5-21.7 2.3-2.3 5.9-4.6 8.5-5.5 2.9-0.9 6.7-1.2 10.5-0.9z"/>
		<path id="Path 5" class="s1" d="m167.3 64.1c0.9-0.1 2.6 0.4 3.7 0.9 1.1 0.6 4.4 5.8 7.4 11.8 2.9 5.9 6 11.3 6.7 11.9 0.8 0.7 6.1 2 11.9 2.8 5.8 0.8 11.5 1.7 12.7 2 1.3 0.3 3 1.2 3.8 2 0.8 0.8 1.5 3 1.5 4.8-0.1 2.7-1.5 4.6-19.1 22.2l4.6 27.7-2.8 2.4c-1.5 1.3-3.4 2.4-4.2 2.4-0.8 0-6.8-2.7-25-12.2l-12.3 6.1c-6.7 3.4-13.2 6-14.3 5.9-1.2-0.2-3.1-1.4-4.1-2.8-2-2.5-2-2.6 0.1-15.2 1.4-8.3 1.8-13.4 1.2-14.5-0.5-1-4.6-5.4-9.1-9.8-4.5-4.4-8.7-8.9-9.2-10-0.7-1.4-0.6-2.9 0.4-4.8 0.9-1.9 2.4-3.1 4.8-3.7 1.9-0.4 7.6-1.4 12.5-2.1 4.9-0.7 9.8-1.6 10.7-2.1 1-0.4 4.5-6.2 7.8-12.7 3.3-6.5 6.5-12.1 7.2-12.4 0.7-0.3 2.1-0.6 3-0.6z"/>
	</g>
</svg>