<svg version="1.2" xmlns="http://www.w3.org/2000/svg" viewBox="0 0 512 512" width="512" height="512">
	<title>drink</title>
	<style>
		.s0 { fill: #fff1a0 } 
		.s1 { fill: #54d8ff } 
		.s2 { fill: #8de5ff } 
		.s3 { fill: #ffe341 } 
		.s4 { fill: #fff9d6 } 
		.s5 { fill: #ff6c4a } 
		.s6 { fill: #ff4c3b } 
	</style>
	<g id="Background">
		<path id="Path 0" class="s0" d="m145 137.1l96 0.1c52.7 0 95.9 0.1 95.9 0.2 0.1 0 3.7 10.6 16.1 46.6h-113c-112.3 0-113 0-113-2 0-1.1 3-10.7 6.6-21.2 4.6-13.4 7.4-20 9-21.5zm247.5 46.9c12.2 0 14.4 0.3 17.2 2 1.8 1.1 4 3 4.8 4.3 0.9 1.2 1.8 4.9 2.1 8.2 0.4 5 0.2 6.6-1.5 9.3-1.2 1.7-3.6 4.1-5.4 5.2-1.7 1.1-5.2 2.3-7.7 2.6-2.5 0.4-9.7 0.4-27.5-0.7l3.4-2.2c1.9-1.2 4.3-3.5 5.5-5 1.6-2.2 2-4.1 1.9-8.2-0.2-4-0.9-6.2-3-9.1-1.6-2.1-3.7-4-4.8-4.2-1.7-0.4-1.8-0.6-0.5-1.3 0.8-0.5 7.8-0.9 15.5-0.9z"/>
		<path id="Path 1" class="s1" d="m355.3 0.1c2.2-0.1 4.4 0.6 5.5 1.6 1 1 3.3 6.1 5 11.3 2.5 7.2 3.1 10.1 2.4 12-0.5 1.4-1.6 3-2.3 3.6-0.8 0.6-6.7 3-24.9 9.4l-5.3-15c-2.8-8.3-5-15.2-4.7-15.3 0.3-0.2 5-2 10.5-4 5.5-2 11.7-3.6 13.7-3.6z"/>
		<path id="Path 2" class="s2" d="m329.8 8.1c0.7-0.1 3.3 5.9 6.2 14.7 2.8 8.1 4.6 14.9 4.1 15.2-0.5 0.3-16 5.7-68.1 23.5l-0.5 76h-31v-41.5c0-38.7 0.1-41.8 1.9-46.5 1.1-2.7 3.8-7 6-9.4 2.3-2.4 5.9-5.2 8.1-6.3 2.2-1.2 19.3-7.4 38-13.9 18.7-6.4 34.6-11.8 35.2-11.8z"/>
		<path id="Path 3" class="s3" d="m352 137c14.2 0 15.1 0.1 17.4 2.3 1.7 1.5 4.6 8.6 9.5 22.9 3.9 11.5 7.1 21 7.1 21.3 0 0.3-7.4 0.5-16.5 0.5-14.8 0-16.6-0.2-17.1-1.7-0.3-1-3.9-11.5-8-23.3-4.1-11.8-7.4-21.6-7.4-21.8 0-0.1 6.8-0.2 15-0.2z"/>
		<path id="Path 4" class="s4" d="m126.6 182.8c0.3 0.9 26.5 1.2 126.2 1.2 81.5 0 125.2 0.4 124.2 1-1.3 0.8-1.2 1 0.3 1 0.9 0 3 1.7 4.7 3.7 1.6 2.1 3.2 5.4 3.6 7.3 0.3 1.9 0.1 5.1-0.5 7-0.6 1.9-2.3 4.7-3.8 6.2-1.6 1.5-3.9 3.1-5.3 3.7-1.6 0.6-52.1 1-136 1.2-131.4 0.2-133.6 0.2-137-1.7-1.9-1.1-4.5-3.6-5.8-5.5-1.5-2.3-2.2-4.9-2.2-7.9 0-2.5 0.8-6.1 1.8-8 0.9-1.9 3.3-4.5 5.2-5.8 3.1-2 4.7-2.3 13.8-2.2 7.5 0 10.2-0.3 10.3-1.3 0-1 0.1-1 0.5 0z"/>
		<path id="Path 5" class="s5" d="m355 215l-0.5 2.8c-0.2 1.5-7.2 67.3-15.5 146.2-8.3 78.9-15.3 144.5-16 148h-81c-79.7 0-81 0-83-2-1.1-1.1-2.2-3.5-2.5-5.2-0.3-1.8-7.2-67.2-15.5-145.3-8.3-78.1-15-142.6-15-143.2 0-1 23.6-1.3 229-1.3z"/>
		<path id="Path 6" class="s6" d="m355 215.1l15.5 0.1c10.6 0 15.4 0.4 15.5 1.2 0 0.6-6.7 65-15 143.1-8.3 78.1-15.2 143.5-15.5 145.3-0.3 1.7-1.4 4.1-2.5 5.2-1.8 1.8-3.3 2-30 2l0.5-3.3c0.3-1.7 7.3-67.1 15.5-145.2 8.3-78.1 15.2-143.4 15.5-145.2z"/>
	</g>
</svg>