<svg version="1.2" xmlns="http://www.w3.org/2000/svg" viewBox="0 0 512 512" width="512" height="512">
	<title>noodles</title>
	<style>
		.s0 { fill: #ef3829 } 
		.s1 { fill: #ffde3e } 
		.s2 { fill: #efcb37 } 
		.s3 { fill: #f2e7cb } 
		.s4 { fill: #d12626 } 
	</style>
	<g id="Background">
		<path id="Path 0" class="s0" d="m24.7 240h462.8l-0.7 12.7c-0.4 7.1-1.7 18.2-2.7 24.8-1.1 6.6-3.6 17.6-5.5 24.5-1.8 6.9-5.4 17.4-7.9 23.5-2.4 6.1-6 14.1-7.9 18-2 3.9-5.8 10.8-8.6 15.5-2.7 4.7-8.3 13-12.4 18.5-4.1 5.5-10.9 13.8-15.1 18.5-4.2 4.7-11.2 11.6-15.4 15.4-4.3 3.8-12.3 10.3-17.8 14.4-5.5 4.1-14.2 9.9-28.5 18.2v43h-218v-43l-9.3-5.4c-5-2.9-13.7-8.7-19.2-12.8-5.5-4.1-12.9-10.1-16.5-13.3-3.6-3.3-9.9-9.5-14-13.9-4.1-4.3-9.9-10.8-12.8-14.5-2.9-3.6-8.2-10.9-11.7-16.1-3.5-5.2-8.8-14.2-11.9-20-3-5.8-7.6-15.7-10.1-22-2.6-6.3-6.3-17.1-8.1-24-1.9-6.9-4.4-17.9-5.5-24.5-1-6.6-2.2-17.7-2.6-24.7z"/>
		<path id="Path 1" class="s1" d="m147 25v215h-29l0.4-98.8c0.3-73 0.7-99.5 1.6-101.7 0.6-1.6 2.2-4.4 3.4-6 1.2-1.6 4.7-4.2 7.7-5.8 3.9-1.9 6.9-2.7 15.9-2.7zm14 0h23v215h-23v-107.5zm37 0h23v215h-23v-107.5zm36.5 0h5.5c3 0 7.2 0.6 9.4 1.3 2.1 0.6 5.4 2.6 7.4 4.2 1.9 1.6 4.4 4.8 5.6 7 2.1 4 2.1 4.5 2.6 202.5h-30l-0.3-107.5z"/>
		<path id="Path 2" class="s2" d="m147 25h14v215h-14v-107.5zm37 0h14v215h-14v-107.5zm37.1-0.1l13.4 0.6 0.5 214.5h-14v-107.5z"/>
		<path id="Path 3" class="s3" d="m118.5 53.5l0.5 28.5h-18.5c-14.4 0-19.2-0.3-21.5-1.5-1.7-0.8-4-3-5.2-4.8-1.4-2.1-2.1-4.8-2.2-7.7 0-2.5 0.8-5.7 1.7-7.3 0.9-1.5 2.9-3.5 4.5-4.4 1.5-1 4-2.1 5.7-2.4 1.7-0.4 10.2-0.6 35-0.4zm146.6-0.5l221.4 0.5 0.5 28.5h-222.5l0.3-14.5zm-146.6 64.5l0.5 28.5h-18.5c-14.4 0-19.2-0.3-21.5-1.5-1.7-0.8-4-3-5.2-4.7-1.4-2.2-2.1-4.9-2.2-7.8 0-2.5 0.8-5.7 1.7-7.2 0.9-1.6 2.9-3.6 4.4-4.5 1.6-1 4.1-2 5.8-2.4 1.6-0.4 10.2-0.6 35-0.4zm146.6-0.5l221.4 0.5 0.5 28.5h-222.5l0.3-14.5z"/>
		<path id="Path 4" class="s4" d="m437.1 269c1.1 0 3.1 1.1 7.4 4.8l-1.2 6.9c-0.7 3.7-2.3 9.9-3.5 13.8-1.8 5.5-2.8 7.2-4.8 7.9-1.4 0.5-3.7 0.6-5.3 0.2-1.5-0.3-3.2-1.6-3.8-2.9-0.9-1.7-0.5-4.7 2-14.7 2.2-8.9 3.7-13 5.2-14.3 1.2-0.9 3-1.7 4-1.7zm-17.9 51c1.5 0 3.7 0.9 4.8 2 1.1 1.1 2 3.1 2 4.5 0 1.4-1.2 4.6-2.7 7.2-1.5 2.7-5.7 9.3-9.4 14.8-3.8 5.5-10.2 13.8-14.3 18.5-4.1 4.7-11.5 12-16.3 16.3-4.8 4.3-13.3 10.9-18.8 14.6-5.5 3.8-11.5 7.6-13.3 8.5-1.7 0.9-4 1.6-5 1.6-0.9 0-2.7-1-4-2.3-1.2-1.2-2.2-3.3-2.2-4.7 0-1.4 0.5-3.2 1.2-4.1 0.7-0.9 4.9-3.8 9.3-6.5 4.4-2.7 12.3-8.3 17.5-12.5 5.2-4.2 12.8-11.2 16.8-15.5 4.1-4.3 10.1-11.5 13.4-15.9 3.3-4.4 7.9-11.1 10.1-15 2.2-3.9 5-8 6-9.3 1.2-1.3 3.2-2.2 4.9-2.2z"/>
	</g>
</svg>