<svg version="1.2" xmlns="http://www.w3.org/2000/svg" viewBox="0 0 512 512" width="512" height="512">
	<title>4490701</title>
	<style>
		.s0 { fill: #70dcba } 
		.s1 { fill: #18c08b } 
		.s2 { fill: #d4d4ff } 
		.s3 { fill: #b0ebd8 } 
		.s4 { fill: #efedff } 
		.s5 { fill: #30cd9c } 
	</style>
	<g id="Background">
		<path id="Path 0" class="s0" d="m257.5 0.2c7.4 0.3 10 0.8 14.5 3.1 3.5 1.7 12 8.5 23.3 18.7 9.7 8.8 17.7 16.5 17.7 17 0 0.5-4.4 6-9.8 12.1-5.3 6-10.4 12.1-11.2 13.5-1 1.7-2.1 2.3-3.5 2-1.1-0.3-6.1-1-11-1.6-4.9-0.5-14.7-1-21.8-1-7 0-17.8 0.7-23.9 1.5-6.2 0.8-15.8 2.6-21.3 3.9-5.5 1.4-13.8 3.8-18.5 5.5-4.7 1.6-12.3 4.7-17 6.9-4.7 2.1-12.8 6.5-18 9.7-5.2 3.1-12.9 8.3-17 11.4-4.1 3.1-11.4 9.4-16.3 14.1-4.9 4.7-11.8 11.9-15.2 16-3.5 4.1-9.3 12-12.9 17.5-3.7 5.5-9.1 14.9-12 21-3 6.1-6.8 15.1-8.6 20-1.7 4.9-4.2 13.5-5.6 19-1.3 5.5-3.1 15.1-3.9 21.3-0.8 6.1-1.5 17.2-1.5 24.4 0 7.3 0.7 18 1.5 23.8 0.8 5.8 1.8 12.6 3 20h-42l-7.1-7.8c-4-4.2-8.9-9.7-10.9-12.2-2.1-2.5-4.7-6.5-5.9-9-1.7-3.6-2.1-6.5-2.1-15 0-9.4 0.3-11.1 2.7-16 1.8-3.5 8.7-12.1 35.8-42l-5-23.5c-2.7-12.9-5-25.6-5-28.3 0-2.6 0.7-7.2 1.6-10.2 0.8-3 3.2-7.9 5.2-10.9 2-2.9 5.1-6.3 6.7-7.6 1.7-1.2 4.8-3.1 7-4.2 2.2-1.1 13.4-5 25-8.7 11.6-3.7 21.5-7.3 22.2-7.9 0.6-0.7 4.2-10.6 7.9-22.2 3.7-11.6 7.6-22.8 8.7-25 1.1-2.2 3-5.4 4.2-7 1.3-1.6 4.7-4.7 7.6-6.7 3-2 7.9-4.4 10.9-5.2 3-0.9 7.6-1.6 10.3-1.6 2.6 0 15.3 2.3 51.7 10l16.8-15.2c9.2-8.3 18.3-16.3 20.1-17.7 1.9-1.4 5.8-3.4 8.5-4.4 3.8-1.3 7.4-1.7 14.1-1.5zm80.5 132c0.8-0.1 5.3 0.3 10 0.8 4.8 0.6 10.7 2 13.5 3.3 2.7 1.3 6.7 3.9 8.8 5.8 2.2 1.9 5.2 6.1 6.9 9.4 2.1 4.3 3.2 8.5 3.8 14.5 0.6 5.5 0.6 12.2-0.1 19-0.6 5.8-2.1 14.1-3.4 18.5-1.3 4.4-3.6 10.7-5 14-1.5 3.3-5 9.6-7.9 14-2.9 4.4-7.7 10.5-10.7 13.6-3 3-7.9 7.4-10.9 9.6-3 2.3-8.6 5.7-12.5 7.6-3.9 2-10.4 4.5-14.5 5.7-4.1 1.1-10.9 2.3-15 2.7-7.4 0.6-7.6 0.5-17-4-5.2-2.5-12.1-6.7-15.3-9.4-3.1-2.6-7.1-6.5-11.7-12.3l4.8-6.7c2.7-3.8 8.9-11 13.8-16.2 4.9-5.2 12-12 15.9-15.1 3.9-3.1 10.4-8 14.5-10.7 4.1-2.8 12-7.3 17.5-10 5.5-2.8 14.1-6.5 19-8.3 4.9-1.8 9.8-4.3 10.8-5.4 1-1.2 1.8-3.3 1.7-4.8 0-1.6-1.1-3.9-2.5-5.3-1.4-1.4-3.4-2.5-4.5-2.5-1.1 0-5.7 1.4-10.3 3.1-4.5 1.6-12.9 5.3-18.7 8-5.8 2.8-14.3 7.5-19 10.6-4.7 3-12.6 8.8-17.5 12.8-4.9 4-12.8 11.2-17.4 16.1-4.6 4.9-10.3 11.3-16.6 19.7l-1.2-2.9c-0.7-1.6-2-6.3-2.9-10.4-1-4.4-1.5-10-1.2-13.5 0.3-4.5 1.4-8.1 4.7-14.5 2.3-4.7 6.4-11.4 9.1-15 2.6-3.6 7.9-9.4 11.6-13 3.8-3.6 9.6-8.4 12.9-10.6 3.3-2.3 8.7-5.5 12-7.1 3.3-1.7 9.4-4.2 13.5-5.6 4.1-1.3 10.9-3 15-3.6 4.1-0.6 9.1-1.3 11-1.4 1.9-0.2 4.2-0.4 5-0.5zm-90.8 191.5l4.7 0.7c2.5 0.4 7.1 1.8 10.1 3.2 3 1.4 6.5 3.5 7.8 4.7 1.4 1.4 2.2 3.4 2.2 5.4 0 1.9-0.8 4.1-2 5.3-1.1 1.1-3.3 2-5 2-1.6 0-5.4-1.2-8.3-2.6-2.8-1.5-7.6-2.9-10.5-3.3-4.6-0.5-5.1-0.8-4.6-2.6 0.4-1.1 1.8-4.4 3.1-7.4zm32.8 38.3l2.1 2.7c1.1 1.6 2 4.3 1.9 6.3 0 1.9-0.6 6.4-1.4 10-0.7 3.6-2.7 9.2-4.4 12.5-1.6 3.3-5.2 8.1-7.8 10.7-2.7 2.6-7.3 5.8-10.4 7.1-3 1.4-7 2.7-12.5 3.7l-6.2-14.5 6.1-1.3c3.4-0.7 7.5-2.1 9.1-3.1 1.7-1.1 4.3-3.6 5.8-5.8 1.5-2.1 3.4-6 5.7-13.3h-8.2c-6.8 0-8.8-0.3-11-2-2.1-1.5-2.8-2.9-2.8-5.5 0-2.2 0.8-4.3 2-5.5 1.8-1.8 3.4-2 32-2zm5 77l6.2 7.7c3.4 4.3 9.7 11.6 14 16.3 4.3 4.7 7.8 9 7.8 9.7 0 0.7-8 8.5-17.7 17.3-11.2 10.1-19.8 17-23.3 18.8-4.9 2.4-6.6 2.7-16 2.7-9.4 0-11-0.3-16-2.7-3.5-1.8-12.1-8.7-42-35.8l-23.5 5c-12.9 2.7-25.6 5-28.2 5-2.6 0-7.2-0.7-10.3-1.6-3-0.8-7.9-3.2-10.8-5.2-3-2.1-6.4-5.1-7.6-6.7-1.3-1.7-3.2-4.8-4.3-7-1.1-2.2-3.2-7.7-4.7-12.3-1.4-4.5-2.6-8.9-2.6-9.7 0-1.3 10.6-1.5 179-1.5z"/>
		<path id="Path 1" class="s1" d="m347.8 160.1c1.2-0.1 3.3 1 4.7 2.4 1.4 1.4 2.5 3.7 2.5 5.3 0.1 1.5-0.7 3.6-1.7 4.8-1 1.1-5.9 3.6-10.8 5.4-4.9 1.8-13.5 5.5-19 8.3-5.5 2.7-13.4 7.2-17.5 10-4.1 2.7-10.6 7.6-14.5 10.7-3.9 3.1-11.2 10.2-16.4 15.6-5.1 5.4-12.6 14.8-16.6 20.9-3.9 6.1-7.9 12.2-8.8 13.8-0.9 1.5-2.7 3.2-4 3.8-1.7 0.9-3 0.9-5.5-0.2-2.6-1.1-4.3-3.1-7.4-8.9-2.2-4.1-6.1-10.4-8.6-14-2.6-3.6-7.8-9.8-11.7-13.9-3.8-4-10.8-10.2-15.5-13.7-4.7-3.6-12.3-8.4-17-10.8-4.7-2.5-12.3-5.8-17-7.6-4.7-1.7-9.3-4.1-10.3-5.3-1-1.2-1.8-3.1-1.8-4.2 0-1.1 0.9-3.2 2.1-4.7q2-2.8 4.7-2.8c1.6 0 6.4 1.2 10.8 2.7 4.4 1.5 12.3 4.9 17.5 7.5 5.2 2.7 13.1 7.5 17.4 10.6 4.4 3.1 12.1 9.8 17.2 14.7 5 4.9 11.8 12.6 15.1 17 3.2 4.4 6.2 8.7 6.5 9.5 0.6 1.3 0.8 1.3 1.6 0 0.6-0.8 3.7-5.1 6.9-9.5 3.3-4.4 9.7-12 14.4-16.9 4.6-4.9 12.5-12.1 17.4-16.1 4.9-4 12.8-9.8 17.5-12.8 4.7-3.1 13.2-7.8 19-10.6 5.8-2.7 14.1-6.3 18.5-8 4.4-1.6 9-3 10.2-3z"/>
		<path id="Path 2" fill-rule="evenodd" class="s2" d="m25.6 298.8c0.3 0.9 5.5 1.2 21.4 1.2 11.6 0 21-0.3 21-0.8 0-0.4 42.9-0.4 95.2-0.1 52.4 0.3 96.5 0.7 100.8 0.9l-4.8 5.7c-2.6 3.2-6.4 8.5-12 17.8l-7.9 0.5c-6.3 0.5-9.3 1.3-15.6 4.3-5 2.4-9.5 5.5-12.9 8.9-3.1 3.2-6.5 8.1-8.5 12.3-2.1 4.3-3.6 9.5-4.1 13.5-0.4 3.6-0.4 9.4 0 13 0.5 4.2 2 9 4.2 13.5 2.3 4.7 5.3 8.8 9.3 12.5 3.2 3.1 8.3 6.7 11.3 8.2 3 1.5 7.5 3.1 10 3.7 2.5 0.6 6.7 1 14.5 1l3.7 5.8c2 3.2 5.9 8.5 8.7 11.8 2.8 3.3 4.9 6.1 4.8 6.3-0.2 0.1-55 0.2-243.2 0.2l-5-2.3c-2.8-1.3-6.5-3.9-8.4-5.8-1.8-1.9-4.3-5.2-5.4-7.4-1.3-2.5-2.2-6.8-2.5-11.5-0.5-6.6-0.2-8.1 2.1-13 1.9-3.9 6.1-9 26.6-29.5l-12.2-12.5c-6.8-6.9-13.2-14.3-14.2-16.5-1.2-2.6-2-6.6-2.1-11.5-0.2-4.1 0.3-9.1 0.9-11 0.7-2 2.5-5.3 4.2-7.5 1.6-2.1 5-5.2 7.5-6.7 2.5-1.6 6.2-3.2 8.3-3.6 2-0.4 3.8-1.2 3.8-1.7 0-0.6 0.2-0.4 0.5 0.2zm213.9 40.4c0.6 0 0.2 3.1-0.9 7.7-1.3 5.5-1.9 11.7-1.9 21.7-0.1 10 0.4 16 1.6 21 1 3.9 2 7.8 2.2 8.7 0.5 1.6 0.1 1.7-3.5 0.8-2.2-0.6-5.7-1.8-7.8-2.9-2-1-5.7-4.1-8.2-6.8-3-3.3-5.1-6.8-6.4-10.8-1.2-4-1.7-7.9-1.5-11.5 0.3-3.1 1.6-8 3.2-11.3 1.8-3.7 4.3-7 7.4-9.5 2.6-2 6.9-4.5 9.7-5.4 2.8-1 5.5-1.7 6.1-1.7z"/>
		<path id="Path 3" class="s3" d="m365 29.1c3-0.1 8 0.6 11 1.5 3 0.8 7.9 3.2 10.9 5.2 2.9 2 6.3 5 7.6 6.7 1.2 1.6 3.1 4.8 4.2 7 1.1 2.2 5 13.4 8.7 25 3.7 11.6 7.3 21.5 7.9 22.2 0.7 0.6 10.6 4.2 22.2 7.8 11.6 3.7 22.8 7.7 25 8.8 2.2 1.1 5.4 3 7 4.2 1.6 1.3 4.7 4.7 6.7 7.6 2 3 4.4 7.9 5.2 10.9 0.9 3 1.6 7.6 1.6 10.2 0 2.7-2.2 15.4-10 51.8l16.5 18.3c10.8 11.8 17.5 20.1 19.2 23.7 2.1 4.2 2.8 7.4 3.1 13.5 0.3 5.4-0.1 9.8-1.1 13.5-0.9 3-3.3 7.8-5.4 10.6-2.1 2.8-7.4 9-19.8 22.4h-42l0.7-4.2c0.4-2.4 1.4-9.2 2.2-15.3 0.9-6.1 1.6-17.1 1.6-24.5 0-7.4-0.7-18.2-1.4-24-0.8-5.8-2.4-14.6-3.5-19.5-1.2-4.9-3.3-12.6-4.8-17-1.4-4.4-4.6-12.5-7-18-2.4-5.5-6.8-14.1-9.8-19-2.9-4.9-8.2-12.8-11.7-17.5-3.4-4.6-10.4-12.7-15.3-17.9-4.9-5.1-13.1-12.6-18-16.6-4.9-4-13.1-9.9-18-13-4.9-3.1-13.5-7.8-19-10.5-5.5-2.6-14.1-6.2-19-8-4.9-1.7-13.5-4.2-19-5.6-5.5-1.3-10.1-2.7-10.2-2.9-0.2-0.3 0.4-1.5 1.2-2.7 0.9-1.3 5.9-7.3 21-24.5l23-5c12.6-2.8 25.5-5.2 28.5-5.2zm-80.1 409.9h60.6c53.1 0 60.5 0.2 60.5 1.5 0 0.8-1.2 5.2-2.6 9.8-1.5 4.5-3.5 10-4.7 12.2-1.1 2.2-3 5.4-4.2 7-1.3 1.6-4.7 4.7-7.6 6.7-3 2-7.9 4.4-10.9 5.2-3 0.9-7.5 1.6-10 1.6-2.5 0-15.3-2.3-52.5-10.3l-10.2-11.6c-5.6-6.4-12-14-14.3-16.8z"/>
		<path id="Path 4" class="s4" d="m443.8 299.3c0.1 0.4 9.6 0.7 21.2 0.7 16.1 0 21-0.3 21-1.3 0-0.8 0.3-0.9 0.8-0.1 0.4 0.6 2.3 1.4 4.2 1.7 1.9 0.4 5.6 2 8.2 3.7 2.7 1.6 6.2 4.9 7.8 7.2 1.7 2.4 3.6 6.1 4.1 8.3 0.6 2.2 0.9 6.9 0.7 10.5-0.2 3.6-1.3 8.3-2.3 10.5-1 2.2-7.4 9.6-26.4 29l12 12c7.6 7.7 12.9 13.8 14.4 17 2 3.9 2.5 6.5 2.5 12 0 5.2-0.6 8.3-2.3 12-1.3 2.7-3.9 6.5-5.8 8.4-1.9 1.9-5.7 4.5-13.4 8.1h-225l-3.7-4.3c-2.1-2.3-6.1-7.6-8.9-11.7-3.7-5.6-4.7-7.7-3.7-8.2 0.7-0.4 2.2-0.8 3.3-0.8 1.1 0 4.5-1.2 7.5-2.6 3-1.4 7.7-4.6 10.3-7.2 2.7-2.6 6.2-7.4 7.9-10.7 1.7-3.3 3.7-8.9 4.4-12.5 0.8-3.6 1.4-8.1 1.4-10 0-2-0.8-4.7-4-9h-15c-13.7 0-15.2 0.2-17 2-1.2 1.2-2 3.3-2 5.5 0 2.7 0.7 4 2.7 5.5 2.3 1.7 4.3 2.1 19.3 2l-1.5 4.7c-0.8 2.7-2.7 6.5-4.3 8.7-1.5 2.1-4.1 4.6-5.7 5.7-1.7 1-5.6 2.4-8.8 3.1-5 1.1-5.9 1.1-6.7-0.2-0.5-0.8-1.7-5.1-2.7-9.5-1.3-5.8-1.7-11.7-1.6-21.5 0.1-9.6 0.7-15.7 3.9-28.5l5.4 0.1c3.8 0 7.1 0.9 10.7 2.7 2.9 1.5 6.7 2.7 8.3 2.7 1.7 0 3.9-0.9 5-2 1.2-1.2 2-3.4 2-5.3 0-2.1-0.7-3.9-2.2-5.3-1.3-1.2-4.3-3.2-6.8-4.4-2.5-1.2-7.1-2.8-16-4.5l4.9-7.5c2.6-4.1 6.7-9.6 13.1-17l89.2-0.3c49.1-0.1 89.4 0.1 89.5 0.5z"/>
		<path id="Path 5" class="s5" d="m157.5 146.1c3.8-0.1 10.8 0.5 15.5 1.3 4.7 0.8 11.9 2.7 16 4.1 4.1 1.5 10.2 4.2 13.5 6 3.3 1.8 9.5 6 13.8 9.4 4.2 3.3 10.5 9.6 13.8 13.9 3.4 4.2 7.6 10.6 9.4 14.2 2.4 4.8 3.4 8.3 3.7 13.5 0.3 3.9 1.5 10.4 5 22l-2.3 3.7c-1.3 2.1-2.7 3.8-3.2 3.8-0.4 0-0.7-0.4-0.7-1 0-0.6-2.8-4.7-6.1-9.2-3.4-4.6-10.3-12.4-15.3-17.3-5.1-4.9-12.8-11.6-17.2-14.7-4.3-3.1-12.2-7.9-17.4-10.6-5.2-2.6-13.1-6-17.5-7.5-4.4-1.5-9.2-2.7-10.8-2.7q-2.7 0-4.7 2.8c-1.2 1.5-2.1 3.6-2.1 4.7 0 1.1 0.8 3 1.8 4.2 1 1.2 5.6 3.6 10.3 5.3 4.7 1.8 12.3 5.1 17 7.6 4.7 2.4 12.3 7.2 17 10.8 4.7 3.5 11.7 9.7 15.5 13.7 3.9 4.1 9.1 10.3 11.7 13.9 2.5 3.6 6.4 9.9 8.6 14 3.1 5.8 4.8 7.8 7.4 8.9 2.8 1.3 3.6 1.3 5.7 0 1.4-0.8 4-3.9 5.8-6.9 1.9-3 3.8-6.2 4.2-7 0.7-1.2 2.1-0.3 6.7 4.5 3.3 3.3 8.1 7.6 10.9 9.5 2.7 1.8 8.1 4.8 19 9.6l-6 1.6c-4.3 1.2-7.4 2.9-11 6-2.8 2.5-6 6.4-7.1 8.9-1.2 2.4-2.4 6.3-3.4 12.9h-28l-0.6-4.2c-0.3-2.4-1.5-6.3-2.7-8.7-1.2-2.5-4.5-6.4-7.2-8.9-3.1-2.7-6.9-4.9-10-5.8-2.8-0.8-9.2-1.4-14.8-1.4-5.3 0-13.2-0.7-17.5-1.6-4.2-0.9-10.4-2.7-13.7-4.1-3.3-1.4-8.5-4.1-11.5-6.1-3-1.9-8.1-6-11.4-9.1-3.2-3.1-7.8-8.3-10.1-11.6-2.4-3.3-6.2-9.8-8.4-14.5-2.2-4.7-5-12.1-6.2-16.5-1.7-6.3-2.2-11.1-2.3-22.5-0.1-13.7 0.1-14.8 2.5-20 1.5-3 4.4-7.2 6.5-9.3 2.2-2.2 5.2-4.6 6.9-5.5 1.7-0.9 5.5-2.1 8.5-2.8 3-0.7 8.7-1.3 12.5-1.3zm89.5 177.9l-6.5 14.9-5.5 1.4c-3.3 0.9-7.6 3.2-10.8 5.6-3.7 2.9-6 5.8-7.9 9.8-1.6 3.3-2.9 8.2-3.2 11.3-0.2 3.6 0.3 7.5 1.5 11.5 1.3 4 3.4 7.5 6.4 10.8 2.5 2.7 6.2 5.8 8.2 6.8 2.1 1.1 5.5 2.2 7.5 2.7 3.4 0.7 4.1 1.4 7 7.2 1.7 3.6 3.2 7.1 3.2 7.7q0.1 1.3-4.7 1.3c-2.6 0-6.7-0.5-9.2-1.1-2.5-0.6-7-2.2-10-3.7-3-1.5-8.1-5.1-11.3-8.2-4-3.7-7-7.8-9.3-12.5-2.2-4.5-3.7-9.3-4.2-13.5-0.4-3.6-0.4-9.4 0-13 0.5-4 2.1-9.2 4.1-13.5 1.9-3.9 5.4-9 7.8-11.5 2.4-2.6 6.6-5.9 9.4-7.5 2.7-1.7 7.2-3.8 10-4.7 2.7-1 7.8-1.7 17.5-1.8z"/>
		<path id="Path 6" class="s0" d="m328.5 324c2.9 0 4.6 0.6 6.2 2.2 1.2 1.3 8.3 18.5 16.7 40.8 8 21.2 14.6 39.5 14.6 40.8 0 1.2-1.1 3.3-2.5 4.7-1.4 1.5-3.6 2.5-5.2 2.5-1.7 0-3.7-0.9-4.9-2.2-1.2-1.3-3.3-5.6-7.4-16.8l-35.4 0.5-2.8 7.5c-1.6 4.1-3.9 8.3-5.1 9.3-1.2 1-3.3 1.8-4.7 1.8-1.4 0-3.5-1-4.8-2.1-1.4-1.3-2.2-3.1-2.2-5.2 0-1.8 6.4-19.9 14.1-40.3 7.8-20.4 14.6-37.9 15.2-39 0.6-1.1 1.7-2.5 2.6-3.2 0.9-0.7 3.4-1.3 5.6-1.3zm59.6 0c1.6 0 3.6 0.3 4.5 0.8 0.9 0.4 10.5 13.5 40.9 57.7l0.5-27.8c0.5-26.4 0.6-27.9 2.5-29.3 1.1-0.8 3.5-1.4 5.3-1.4 1.7 0 4 0.8 5 1.8 1.6 1.5 1.9 4.4 2.5 25.2 0.4 12.9 0.7 31 0.7 40.3 0 16.4-0.1 16.8-2.5 19.7-1.8 2.2-3.4 3-5.7 3-1.8 0-4.2-0.6-5.3-1.4-1.1-0.8-10.3-13.6-20.5-28.4-10.2-14.9-18.7-27.1-19-27.2-0.3 0-0.4 10.7-0.2 23.7 0.2 13.1 0.1 25.3-0.2 27.1-0.4 1.7-1.5 4.1-2.6 5.2-1.1 1.1-3.3 2-5 2-1.9 0-3.9-0.9-8-5l-0.1-40.4c-0.1-40-0.1-40.4 2.1-43q2.1-2.6 5.1-2.6z"/>
		<path id="Path 7" class="s5" d="m59.5 323c1.4 0 3.5 1 4.8 2.3 1.5 1.5 5.4 11.2 11.7 29.9 5.2 15.3 9.7 27.8 10 27.8 0.3 0 1.5-2.8 2.7-6.2 1.2-3.5 5.7-16.2 10-28.3 4.3-12.1 8.5-22.8 9.5-23.8 1-0.9 3-1.7 4.6-1.7 1.5 0 3.7 0.7 5 1.5 1.2 0.8 2.4 2.7 2.7 4.3 0.4 1.9-3.7 14.7-13.5 42.7-10.6 30.3-14.6 40.5-16.5 42.3-1.4 1.2-3.4 2.2-4.5 2.2-1.1 0-3.1-1-4.5-2.2-1.9-1.8-5.6-11.5-16-41.5-7.4-21.6-13.5-40.4-13.5-41.8 0.1-1.4 1.2-3.7 2.5-5 1.3-1.4 3.6-2.5 5-2.5zm100.1 1c10.1 0 19.2 0.3 20.1 0.7 0.9 0.5 2.3 2.1 3 3.7 1.1 2.2 1.1 3.7 0.4 5.8-0.6 1.5-2 3.2-3.1 3.8-1.1 0.6-7.8 1-28 1v23h12.5c11.7 0 12.6 0.1 14.5 2.3 1.1 1.2 2 3.4 2 5 0 1.5-1.1 3.8-2.5 5.2-2.3 2.4-2.9 2.5-26.5 2.5v22l13.5 0.3c11.9 0.2 13.7 0.4 15.5 2.2 1.2 1.2 2.1 3.4 2.2 5.5 0 2.6-0.6 4.1-2.6 5.8-2.5 2.1-3.4 2.2-38.6 2.2l-6-6 0.5-81.2 2.4-1.9c2.1-1.7 4.1-1.9 20.7-1.9z"/>
		<path id="Path 8" class="s4" d="m329 352c0.5 0.8 2.9 6.9 5.3 13.5 2.5 6.6 4.8 12.8 5.1 13.8 0.5 1.5-0.4 1.7-10.9 1.7-6.3 0-11.4-0.3-11.4-0.6 0.1-0.4 2.2-6.1 4.7-12.8 2.4-6.7 4.9-13.2 5.4-14.6 0.8-2 1.1-2.2 1.8-1z"/>
	</g>
</svg>