<svg version="1.2" xmlns="http://www.w3.org/2000/svg" viewBox="0 0 512 512" width="512" height="512">
	<title>sushi</title>
	<style>
		.s0 { fill: #393f4a } 
		.s1 { fill: #e4c05c } 
		.s2 { fill: #464f5d } 
		.s3 { fill: #7ed09e } 
		.s4 { fill: #ecf0f1 } 
		.s5 { fill: #f29c1f } 
		.s6 { fill: #d75e72 } 
	</style>
	<g id="Background">
		<path id="Path 0" class="s0" d="m246.7 121c0.2 27.8 0.2 50.6 0 50.8-0.1 0.2-4.7-1.1-10.2-2.8-5.5-1.6-15.6-4.1-22.5-5.4-6.9-1.4-16.9-2.9-22.2-3.5-5.4-0.6-16.4-1.1-24.5-1.1-8.2 0-20.5 0.7-27.5 1.5-7.1 0.8-17.2 2.4-22.5 3.6-5.4 1.2-13.4 3.2-17.8 4.6-4.4 1.4-10.9 3.8-14.5 5.3-3.6 1.6-9.4 4.5-13 6.7-3.5 2.1-9.2 6.3-12.5 9.4-3.3 3.1-7.4 7.8-9.2 10.5-1.8 2.7-3.9 7.6-4.7 10.9-1.3 5-1.6 15.3-1.6 64.5-0.1 32.2-0.3 58.7-0.5 59-0.2 0.3-2.4-0.7-4.7-2.2-2.4-1.4-6.2-4-12.8-8.8l0.3-58.3c0.3-52 0.5-58.8 2.1-64.2 0.9-3.3 3.2-8.7 4.9-11.9 1.9-3.5 5.7-8.1 9.2-11.3 3.3-3 9-6.8 19.4-11.8l0.1-43.5 2.3 0.4c1.2 0.2 6.5 1.5 11.7 2.9 5.2 1.4 14.9 3.3 21.5 4.2 9.4 1.4 16.3 1.6 32 1.2 16-0.4 22.4-1 32-3.1 6.6-1.4 16.3-3.9 21.5-5.7 5.2-1.7 12.9-4.7 17-6.6 4.1-1.9 11.3-5.9 16-9 4.7-3 11.7-8.8 15.5-12.7 4.4-4.5 8.2-9.6 10.2-13.7 1.7-3.5 3.5-7.3 4-8.4 0.4-1.1 0.9 19.9 1 48.5zm45.1 136.1c0.1 15.6 0 29.4-0.3 30.7-0.4 1.6-7.8 6.7-28.7 19.5-15.6 9.6-29.3 17.9-32.8 19.7l0.5-46.1 8-3.2c4.4-1.8 10.7-4.8 14-6.7 3.3-1.8 8.9-5.4 12.5-8.1 3.6-2.6 8.6-6.9 11.1-9.5 2.5-2.7 6-7.1 7.8-9.9 1.7-2.7 3.6-6.6 4.2-8.5 0.7-1.9 1.7-4.1 2.3-4.9 0.8-1.1 1.2 5.8 1.4 27zm-1.3 74.3c0.7 0.2 1 19.1 1 54.2 0 41.9-0.3 55.1-1.4 59.4-0.7 3-2.8 8.6-4.7 12.5-1.8 3.9-5.7 9.9-8.7 13.5-2.9 3.6-9.3 9.5-14.2 13.2-5 3.7-13.1 8.8-18 11.2-4.9 2.5-10.2 4.7-14.5 5.6l-0.5-133.7 30-18.1c16.5-9.9 30.4-18 31-17.8z"/>
		<path id="Path 1" fill-rule="evenodd" class="s1" d="m493.3 0c2.6 0 6.2 0.6 7.9 1.4 1.8 0.7 4.5 2.6 6 4.2 1.5 1.6 3.2 4.1 3.7 5.7 0.6 1.5 1.1 4.7 1.1 7.2 0 2.5-0.6 6-1.4 7.8-0.7 1.7-3.1 4.8-5.2 6.8-2.2 2-50.9 41.6-108.4 87.9-57.5 46.4-105.3 84.9-106.3 85.6-1.5 1.3-1.9 0.9-4-3.3-1.2-2.6-4.9-7.4-8.2-10.8-3.3-3.4-7.6-7.3-13-11.3l3-2.3c1.6-1.3 10-8 18.5-14.8 8.5-6.9 25.4-20.6 37.5-30.5 12.1-9.9 42.5-35 67.5-55.7 25-20.7 55.6-46.1 68-56.4 12.4-10.3 23.9-19.3 25.5-20.1 1.6-0.7 5.1-1.3 7.7-1.4zm-0.2 167c0.8 0 3.2 0.5 5.2 1 2.1 0.6 5.6 2.7 7.9 4.7 2.2 2.1 4.5 5.4 5.1 7.3 0.6 1.9 0.9 5.8 0.7 8.6-0.3 3.4-1.2 6.1-3 8.5-1.9 2.5-30 20-108.5 67.5-58.2 35.3-107 64.7-108.4 65.4-1.4 0.7-39.9 23.9-85.5 51.5-45.7 27.6-97.7 59.2-115.7 70.1-17.9 10.9-40.7 24.8-50.5 30.9-17.6 10.9-17.9 11-24 11-4.6 0-6.8-0.5-9-2.1-1.5-1.1-3.8-4-5.1-6.5-1.2-2.4-2.2-5.5-2.2-6.9 0-1.4 1-4.5 2.2-7 2.1-4.1 4-5.6 20.3-15.7 9.9-6.2 19.1-11.8 20.5-12.5 1.4-0.7 43.2-26.4 93-57.2 49.8-30.8 104.7-64.7 122-75.4 17.3-10.7 32.2-20 33-20.7 0.8-0.7 44.7-28 97.5-60.6 52.8-32.6 97.6-59.9 99.5-60.6 1.9-0.6 4.2-1.2 5-1.3zm-449.5 197l0.6 41.5-4.4 4c-2.4 2.2-6.8 5.9-9.8 8.2-3 2.2-7.2 4.6-9.4 5.2-3 0.8-5.2 0.7-8.4-0.2-2.9-0.8-5.6-2.5-7.7-4.9-2.3-2.6-3.6-5.2-4-8-0.4-2.8 0-5.7 1-8.3 1.2-3.3 5.2-7 21.8-20.8z"/>
		<path id="Path 2" class="s2" d="m1.2 72c0.6 1.4 2.3 5.2 3.9 8.5 1.5 3.3 5.2 8.7 8.2 12 3 3.3 7.8 7.9 10.8 10.2 3 2.3 9 6.2 13.4 8.8 4.4 2.5 11.7 6 24.5 11l-0.1 44-6.7 3.2c-3.7 1.8-9.4 5.6-12.7 8.6-3.5 3.2-7.3 7.8-9.2 11.3-1.7 3.2-4 8.6-4.9 11.9-1.6 5.3-1.8 12.8-2.9 121.8l-3.4-2.9c-1.9-1.6-5.5-5.6-8.1-8.9-2.6-3.3-6.2-8.8-7.9-12.2-1.7-3.5-3.8-9.1-4.6-12.5-1.3-5.4-1.5-21.8-1.4-111.8 0-75.3 0.3-104.8 1.1-103zm43.3 156c0.3 0 1.3 2.4 2.1 5.2 0.9 2.9 3.2 7.8 5.2 10.8 1.9 3 6.2 8.1 9.6 11.4 3.4 3.2 8.8 7.7 12.1 9.9 3.3 2.2 10.3 6.2 15.5 8.8 5.2 2.6 13.8 6.1 19 7.9 5.2 1.7 15.1 4.3 22 5.8 11.6 2.5 14.3 2.6 37.5 2.7 22.6 0 26.1-0.2 36.5-2.4 6.3-1.3 14.8-3.5 26-7.1v46.5l-92.5 57.2c-50.9 31.5-92.7 57.2-93 57-0.2-0.1-0.4-24.1-0.5-53.2 0-29.1 0-77.2 0-106.8 0-29.5 0.2-53.7 0.5-53.7zm184.7 140c0.4 0 0.9 30.1 1.3 133.9l-11 3.1c-6.1 1.6-16.2 3.9-22.5 5-8.5 1.5-16.1 2-29 2-12.9 0-20.6-0.5-29.5-2-6.6-1.1-16.3-3.2-21.5-4.6-5.2-1.4-13.6-4.1-18.5-6.1-5-2-12.3-5.4-16.4-7.7-4-2.3-11-7-15.5-10.6-4.5-3.6-8.1-7.3-8.1-8.2 0-1.2 25.3-17.1 85-53.2 46.7-28.4 85.3-51.6 85.7-51.6z"/>
		<path id="Path 3" class="s3" d="m187.2 8c0.4 0 4.7 1.4 9.6 3 4.8 1.7 11.9 4.7 15.7 6.7 3.9 1.9 9 4.9 11.5 6.6 2.5 1.7 6.7 5.2 9.3 7.7 2.7 2.5 6.2 6.5 7.7 9 1.6 2.5 3.6 6.5 4.5 9 0.9 2.5 1.6 7.8 1.7 12 0 4.1-0.4 8.4-1 9.5-0.5 1.1-2.5 5.1-4.3 8.9-2.3 4.7-5.7 9.4-10.4 14.2-3.8 3.9-10.8 9.7-15.5 12.7-4.7 3.1-11.9 7.1-16 9-4.1 1.9-11.8 4.9-17 6.6-5.2 1.8-15.1 4.4-22 5.9-11.5 2.4-14.5 2.6-36.5 2.7-19 0-26-0.4-33.5-1.8-5.2-1-13.9-3-19.3-4.5-5.3-1.5-9.7-2.9-9.6-3.2 0-0.3 7-6.8 15.5-14.5 8.6-7.7 16.1-13.9 16.7-13.9 0.7 0.1 5.3 0.9 10.2 1.8 5 0.9 13.5 1.6 19 1.6 5.5 0 14.2-0.7 19.3-1.5 5-0.8 12.9-2.9 17.5-4.5 4.5-1.7 10.6-4.7 13.6-6.8 3-2 6.7-5.7 8.3-8.2 2.1-3.3 2.8-5.7 2.8-9.3 0-2.6-0.8-6.4-1.9-8.4-1-2.1-3.4-5.2-5.2-6.8-1.9-1.7-5.4-4.2-7.9-5.7-2.5-1.4-7.3-3.7-10.8-4.9-5.9-2.3-6.2-2.5-4.5-4.1 1-0.9 8.5-7.7 16.7-15.2 8.2-7.5 15.3-13.6 15.8-13.6zm-21.2 151.1c9.1 0 20.6 0.4 25.5 0.9 5 0.6 14 1.9 20 3 6.1 1.1 17.3 3.9 25 6.2 7.7 2.2 17.2 5.6 21 7.6 3.9 1.9 10 5.9 13.8 8.8 3.7 3 8.4 7.5 10.5 10.2 2 2.6 5 7.4 6.7 10.7 2.4 5 2.9 7.2 3 13.6 0 4.2-0.5 8.7-1.1 10-0.7 1.3-2.5 5.3-4.2 8.9-1.7 3.6-5.5 9.2-8.5 12.5-2.9 3.3-8.5 8.3-12.3 11.1-3.8 2.8-9.8 6.7-13.4 8.7-3.6 2-10 5-14.2 6.6-4.3 1.7-8.4 2.8-9 2.4-0.7-0.4-7.9-6.8-16.1-14.2-8.1-7.5-14.7-13.6-14.8-13.6 0 0 2.9-1.1 6.3-2.4 3.5-1.3 7.9-3.3 9.8-4.4 1.9-1.1 4.9-3.2 6.5-4.5 1.7-1.4 4-3.9 5.3-5.6 1.2-1.7 2.7-4.8 3.2-6.8 0.7-2.5 0.7-5.2 0-7.8-0.6-2.5-2.8-5.9-5.7-9.1-3.3-3.5-7.2-6.3-12.8-8.9-4.4-2.1-10.7-4.5-14-5.4-3.3-0.8-10-2-15-2.7-5.5-0.7-13.2-0.9-20-0.5-6 0.4-13.7 1.3-23 3.4l-16.8-15.2c-10.7-9.7-16.3-15.3-15.5-15.8 0.7-0.3 5.8-1.6 11.3-2.8 5.5-1.1 15-2.7 21-3.4 6.1-0.8 18.4-1.4 27.5-1.5z"/>
		<path id="Path 4" class="s4" d="m123 0.1c13.4 0 25.5 0.5 32 1.3 5.8 0.8 14.8 2.4 20 3.6 5.2 1.1 9.8 2.4 10.2 2.8 0.3 0.4-6.9 7.5-32.7 30.9l-6.5-1.5c-4.5-1.1-11.6-1.5-23-1.5-14.4 0-17.7 0.3-26 2.5-5.2 1.4-12.4 3.9-16 5.6-3.6 1.7-8.5 4.8-10.9 6.9-2.4 2.1-5.2 5.5-6.2 7.5-1.1 2.1-1.9 5.6-1.9 7.8 0 2.2 0.5 5.2 1.1 6.8 0.5 1.5 2.7 4.4 4.7 6.6 2 2.1 5.5 5 7.7 6.4 2.2 1.4 7 3.7 17.5 7.7l-15.5 14.3c-8.5 7.8-15.9 14.2-16.5 14.2-0.5 0-5.2-1.8-10.2-4-5.1-2.2-12.7-6-16.8-8.5-4.1-2.5-10.4-7.1-13.9-10.3-3.6-3.1-8.3-8.2-10.6-11.2-2.2-3-5.4-8.9-6.9-13-2.5-6.6-2.8-8.5-2.5-15.5 0.4-6.2 1.1-9.3 3.4-14 1.6-3.3 5.4-8.6 8.5-11.8 3-3.3 9.1-8.2 13.5-11 4.4-2.8 11.6-6.6 16-8.4 4.4-1.9 11.6-4.5 16-5.8 4.4-1.3 11.4-3.1 15.5-4 4.1-0.9 12.2-2.2 18-2.9 5.8-0.8 20.2-1.4 32-1.5zm-18.8 167.2c0.4 0.1 6.9 5.8 14.4 12.7 7.5 6.9 15 13.6 19.6 17.5l-8.3 3.2c-4.6 1.8-10.9 5.2-13.9 7.6-3.3 2.5-6.4 6.1-7.7 8.7-1.3 2.5-2.3 6.2-2.3 8.3 0 2 0.8 5.4 1.9 7.4 1 2.1 3.8 5.6 6.2 7.7 2.4 2.2 7.6 5.4 11.4 7.2 3.8 1.8 9.7 3.9 13 4.8 3.3 0.8 10.1 2 15 2.7 5.5 0.7 13.5 0.9 20.5 0.5 6.3-0.3 14.2-1.2 23.5-3.4l8 7.3c4.4 4 11.5 10.4 15.7 14.1 4.2 3.8 7.7 7.1 7.7 7.4 0.1 0.3-3.1 1.5-7.1 2.7-4 1.2-12 3.2-17.8 4.5-9.4 2-13.2 2.2-36 2.3-23.9 0-26.3-0.2-38-2.7-6.9-1.5-16.8-4.1-22-5.8-5.2-1.8-13.8-5.3-19-7.9-5.2-2.6-12.2-6.6-15.5-8.8-3.3-2.2-8.7-6.7-12.1-9.9-3.4-3.3-7.7-8.4-9.6-11.4-2-3-4.3-7.8-5.3-10.5-0.9-2.8-1.9-7.3-2.2-10-0.3-3.1 0.1-7.5 1.1-11.5 0.9-3.6 3.1-8.7 4.9-11.4 1.8-2.7 5.9-7.4 9.2-10.5 3.3-3.1 9.2-7.4 13-9.6 3.9-2.3 9.3-5.1 12-6.3 2.8-1.2 8.2-3.3 12-4.6 3.8-1.4 7.3-2.4 7.7-2.3z"/>
		<path id="Path 5" class="s5" d="m127 35.5c6.9 0.2 15.7 1 19.5 1.9 3.8 0.8 10.2 2.6 14 4.1 3.8 1.4 8.8 3.7 11 5.2 2.2 1.4 5.3 3.7 6.8 5.2 1.6 1.4 3.7 4.3 4.8 6.3 1.1 2.2 1.9 5.9 1.9 8.6 0 3.5-0.7 5.9-2.8 9.2-1.6 2.5-5.3 6.2-8.3 8.2-3 2.1-9.1 5.1-13.6 6.8-4.6 1.6-12.7 3.7-18.1 4.6-6.8 1.1-13.5 1.5-22.7 1.1-8.2-0.3-16.5-1.3-22.5-2.6-5.2-1.2-12.4-3.6-16-5.3-3.6-1.8-8.7-5.2-11.4-7.7-2.7-2.5-5.5-6.1-6.2-7.8-0.8-1.8-1.4-5.1-1.4-7.3 0-2.2 0.8-5.7 1.9-7.7 1-2.1 3.8-5.5 6.2-7.6 2.4-2.1 7.1-5.1 10.4-6.7 3.3-1.6 9.4-3.8 13.5-4.9 4.1-1.2 10.4-2.5 14-3.1 3.6-0.5 12.1-0.7 19-0.5z"/>
		<path id="Path 6" class="s6" d="m167 194.2c4.7-0.1 12.8 0.4 18 1.2 5.2 0.8 12.4 2.4 16 3.6 3.6 1.2 9.1 3.6 12.4 5.3 3.2 1.8 7.8 5.3 10.2 8 2.6 2.8 4.8 6.3 5.4 8.7 0.7 2.6 0.7 5.3 0 7.8-0.5 2-2 5.1-3.2 6.8-1.3 1.8-4.1 4.6-6.3 6.4-2.2 1.7-6.5 4.3-9.5 5.7-3 1.4-9.8 3.6-15 5-5.7 1.4-14.1 2.6-21 3-6.9 0.3-15.1 0.1-20.5-0.6-4.9-0.7-11.7-1.9-15-2.7-3.3-0.9-9.2-3-13-4.8-3.8-1.8-9-5-11.4-7.2-2.4-2.1-5.2-5.6-6.2-7.6-1.1-2.1-1.9-5.5-1.9-7.5 0-2.1 1-5.8 2.3-8.3 1.3-2.6 4.4-6.2 7.7-8.7 3-2.4 9.1-5.7 13.5-7.4 4.4-1.7 11.2-3.7 15-4.5 3.8-0.7 8.6-1.5 10.5-1.7 1.9-0.2 7.3-0.4 12-0.5z"/>
	</g>
</svg>