<svg version="1.2" xmlns="http://www.w3.org/2000/svg" viewBox="0 0 512 512" width="512" height="512">
	<title>cake</title>
	<style>
		.s0 { fill: #844215 } 
		.s1 { fill: #5e3011 } 
		.s2 { fill: #92990e } 
		.s3 { fill: #aeae27 } 
		.s4 { fill: #777412 } 
		.s5 { fill: #bbd036 } 
	</style>
	<g id="Background">
		<path id="Path 0" class="s0" d="m248 120h16l0.5 77.4-4 7.8c-2.2 4.3-4.2 7.8-4.5 7.8-0.3 0-2.3-3.5-8.5-15.6l0.3-38.7zm-232.1 104h227l3.8 7.2c2.7 5.3 4.5 7.6 6.5 8.3 1.8 0.7 3.6 0.7 5.5 0 2-0.7 3.8-3 10.2-15.5h227v16h-232v104h-16v-104h-232v-8z"/>
		<path id="Path 1" class="s1" d="m167.8 48c1.5 0 3.6 0.6 4.7 1.4 1.1 0.8 20.2 37.9 42.5 82.5 22.3 44.6 40.7 81.1 41 81.1 0.3 0 18.7-36.5 41-81.1 22.3-44.6 41.4-81.7 42.5-82.5 1.1-0.8 3.1-1.4 4.5-1.4 1.4-0.1 3.7 1.1 5.3 2.7 1.7 1.7 2.7 3.8 2.7 5.3-0.1 1.4-20.4 43-45.3 92.5-39.6 78.8-45.5 90.1-48 91q-2.7 1-5.4 0c-2.5-0.9-8.4-12.2-48-91-24.9-49.5-45.3-91-45.4-92.2-0.1-1.2 1.1-3.5 2.6-5.2 1.7-2 3.6-3.1 5.3-3.1z"/>
		<path id="Path 2" class="s2" d="m116.5 120h23l-104 104h-9.8c-8.5 0-9.7-0.2-9.9-1.7-0.2-1.2 17.1-19.1 50.2-52zm288 0h10.2c5.7 0 10.5 0.3 10.8 0.7 0.2 0.4-16.3 17.5-36.8 38-33.6 33.7-37.5 37.2-40.4 37.2-2.2 0.1-4.1-0.8-5.8-2.4-1.4-1.5-2.6-3.9-2.7-5.8-0.2-2.9 2-5.5 32.2-35.5zm70.8 26c0.4 0 2.5 2.4 4.7 5.3 2.2 2.9 4 5.9 4 6.7 0 0.9-14.5 16.1-64.5 66h-23l39-39c21.5-21.4 39.4-39 39.8-39zm-299.5 14c2.1 0 4.1 0.9 5.7 2.5 1.7 1.7 2.5 3.6 2.5 5.8 0 2.9-2.7 6-52.5 55.8l-22.9-0.1 32-32c28.8-28.7 32.3-32 35.2-32zm-83.3 80h23l-39 39c-37.2 37.3-39 38.9-40.8 37.3-1-1-3.2-3.9-8.2-11.4l32.5-32.4zm96 0h23l-103.9 104h-7.5c-4.2 0-9.1-0.3-14.5-1.3l51.5-51.4zm95.9 0h23l-42.9 43.1-0.6-22.6 10.3-10.2zm96 0h23l-104 104h-23l52-52zm96 0h9.8c8.6 0 9.7 0.2 9.7 1.7 0 1-22.2 24-100.5 102.3h-23l52-52zm-229.1 36.6l0.7 22.9-44.6 44.5h-23l33.5-33.7z"/>
		<path id="Path 3" class="s3" d="m16.1 272.5l1.8 8.5c1 4.7 3.5 12.1 5.5 16.5 2.1 4.4 4 8.2 4.4 8.5 0.4 0.3 2.9 3.5 5.5 7.3 2.9 4.1 7.7 9.1 12.4 12.8 4.3 3.4 11.4 7.8 15.8 9.9 4.4 2.1 10.7 4.7 14 5.6 5.5 1.6 13.4 1.8 172.5 2.4v29l-2.5-2.5c-2.4-2.4-3.1-2.5-13.5-2.5-10.5 0-11.2 0.1-13.5 2.5-1.6 1.5-2.5 3.7-2.5 5.5 0 1.9 0.9 3.9 2.5 5.5 2.4 2.4 3.1 2.5 13.5 2.5 10.5 0 11.2-0.1 16-5v77h-12.5l-44-44c-40.1-40.1-44.3-44-47.3-44q-3.3 0-5.7 2.5c-1.6 1.6-2.5 3.6-2.5 5.8 0 2.9 3.7 6.9 76.5 79.7h-57l-28-28c-25.3-25.3-28.3-28-31.3-28q-3.3 0-5.7 2.5c-1.6 1.6-2.5 3.6-2.5 5.7 0 2.9 2.5 5.7 44.5 47.8h-23.5c-15.9 0-25.6-0.5-30-1.4-3.6-0.8-9.9-2.8-14-4.4-4.1-1.7-10.7-5.3-14.5-8-3.9-2.7-9.5-7.6-12.6-10.8-3.1-3.3-7.5-8.8-9.8-12.4-2.3-3.6-5.5-9.9-7-14-1.6-4.1-3.4-10.2-4-13.5-0.6-3.3-1.1-16.4-1.1-52l26.2 26.2c23.7 23.7 26.6 26.3 29.6 26.3q3.3 0 5.7-2.5c1.6-1.6 2.5-3.6 2.5-5.7 0-3-3.2-6.5-64-67.3l0.1-22zm479.6 56c0.2 37.8-0.1 58.1-0.8 62.5-0.6 3.6-2.5 10.1-4.2 14.5-1.7 4.4-5.3 11.1-7.9 15-2.6 3.9-7.3 9.6-16.4 18.5l-19-19c-16.9-16.9-19.3-19-22.3-19q-3.3 0-5.7 2.5c-1.6 1.6-2.5 3.6-2.4 5.7 0 2.9 2.1 5.4 35.4 38.6l-3 1.5c-1.6 0.8-6.1 2.5-10 3.7-5.9 2-9.7 2.4-44 3.1l-44-44c-40.1-40.2-44.3-44.1-47.3-44.1q-3.3 0-5.7 2.5c-1.6 1.6-2.5 3.6-2.5 5.7 0.1 3 3.7 7 76.5 79.8h-108.5v-112l87.5-0.1 1.3 2.8c0.7 1.5 10.8 12.4 22.5 24 18.3 18.3 21.7 21.3 24.2 21.3 1.7-0.1 3.8-0.6 4.6-1.3 0.9-0.7 2.2-2.3 2.9-3.7 0.7-1.4 0.9-3.6 0.6-5-0.4-1.4-8.7-10.5-36.1-37.9l29.5-0.4c26.7-0.3 30.2-0.6 36.5-2.5 3.9-1.2 10.2-3.7 14-5.6 3.9-1.9 10.2-5.9 14-8.8 3.9-3 9.3-8.4 12.2-11.9 2.8-3.5 6.5-8.9 8.2-11.9 1.7-3 4.2-8.9 5.6-13 1.4-4.1 2.9-9.8 3.3-12.5 0.4-2.8 0.9 20.2 1 51z"/>
		<path id="Path 4" class="s4" d="m16 316.5l32 32c28.8 28.8 32 32.3 32 35.3 0 2.1-0.9 4.1-2.5 5.7q-2.4 2.5-5.7 2.5c-3 0-5.9-2.6-55.8-52.5v-11.5zm232 27.5h16v112h-16v-77l-2.5 2.5c-2.3 2.4-3 2.5-13.5 2.5-10.4 0-11.1-0.1-13.5-2.5-1.6-1.6-2.5-3.6-2.5-5.5 0-1.8 0.9-4 2.4-5.5 2.4-2.4 3.1-2.5 13.5-2.5 10.5 0 11.2 0.1 16.1 5v-14.5zm123.5 0l17.7 17.7c9.7 9.8 17.9 18.9 18.3 20.3 0.4 1.4 0.1 3.6-0.6 5-0.7 1.4-2 3-2.8 3.7-0.9 0.7-3 1.2-4.6 1.3-2.6 0-6-3-23.8-20.8-11.5-11.4-21.5-21.9-22.3-23.4-0.8-1.6-1.4-3-1.4-3.3 0-0.3 4.4-0.5 19.5-0.5zm-227.3 24c3 0 7.1 3.9 91.3 88h-23l-38.3-38.2c-35-35.1-38.2-38.6-38.2-41.6 0.1-2.1 1-4.2 2.5-5.7 1.6-1.7 3.5-2.5 5.7-2.5zm160 0c3 0 7.1 3.9 91.3 88h-23l-38.3-38.2c-35-35.1-38.2-38.6-38.2-41.6 0.1-2.1 1-4.2 2.5-5.7 1.6-1.7 3.5-2.5 5.7-2.5zm-208 32c3 0 6 2.7 59.3 56h-23l-22.2-22.2c-20.1-20.1-22.3-22.6-22.3-25.6 0.1-2.1 0.9-4.2 2.5-5.7q2.4-2.5 5.7-2.5zm329 1c2.9 0 5.3 2.1 21.5 18.3 10.1 10 18.3 18.8 18.3 19.5 0 0.6-2.8 3-12.5 9.2l-17.7-17.8c-15.9-15.8-17.8-18-17.7-21 0-2.1 0.8-4.2 2.4-5.7q2.4-2.5 5.7-2.5z"/>
		<path id="Path 5" fill-rule="evenodd" class="s5" d="m116.5 120l-100 100-0.3-15.7c-0.2-13.2 0.1-17.1 1.8-23.8 1.1-4.4 3.3-10.7 4.8-14 1.6-3.3 4.6-8.7 6.9-12 2.2-3.3 7.6-9.4 12-13.5 5.8-5.5 10.4-8.8 17.3-12.3 5.2-2.6 12.9-5.6 17-6.7 5.9-1.5 11.1-1.9 40.5-2zm23 0h51.5l52 104h-111.5l26.2-26.2c23.3-23.4 26.3-26.7 26.4-29.6 0.1-2.3-0.7-4-2.5-5.7-1.6-1.6-3.8-2.5-5.7-2.5-2.8 0-6.8 3.6-67.4 64h-73zm69.5 0h39v38c0 20.9-0.2 38-0.5 38-0.3 0-9-17.1-19.5-38zm55 0h39l-19 38c-10.4 20.9-19.2 38-19.5 38-0.3 0-0.5-17.1-0.5-38zm57 0h83.4l-32.2 32.3c-29 29-32.2 32.5-32.2 35.5 0 2.1 0.9 4.1 2.5 5.7 1.7 1.7 3.6 2.5 5.8 2.5 2.9 0 6.8-3.6 40.4-37.3 20.5-20.4 36.9-37.6 36.5-38.1-0.4-0.6 1.1-0.6 3.8-0.1 2.5 0.4 7.4 1.6 11 2.7 3.6 1.1 8.8 3.2 11.5 4.6 2.8 1.3 7 3.8 9.5 5.5 2.5 1.6 6.7 5.1 14 12.2l-78.5 78.5h-127.5zm163.8 38.2c0.1-0.1 1.5 2.4 3.1 5.6 1.6 3.1 3.9 8.9 5.2 12.7 2 6.1 2.3 9.5 2.9 47.5h-76.5l32.5-32.8c17.9-18.1 32.6-33 32.8-33zm-468.8 81.8h76.4l-64.9 65.5-3.9-8c-2.3-4.7-4.6-11.7-5.7-17-1.3-6.5-1.9-13.4-1.9-24.7zm99.5 0h73l-103.4 103.5-6.3-1.4c-3.5-0.7-9.7-2.7-13.8-4.5-4.1-1.8-10-4.9-13-6.9-3-2-8-5.9-11-8.8-3-2.8-5-4.8-4.5-4.6 0.6 0.3 18.6-17 40-38.4zm96 0h36.5v36.5l-67.5 67.5h-73zm96 0h73l-104 104h-12.5l-0.4-60.5zm-43.5 0h10c5.5 0 10 0.1 10 0.3 0 0.1-4.5 4.7-20 20.2zm139.4 0h73l-103.9 104h-73zm91.9 3.6l0.3 12.5c0.2 6.8-0.1 15.8-0.8 19.9-0.7 4.1-2.3 10.7-3.6 14.5-1.3 3.9-3.8 9.5-5.5 12.5-1.7 3-5.4 8.4-8.2 11.9-2.8 3.6-8.3 8.9-12.1 11.9-3.9 3-10.2 6.9-14 8.8-3.9 1.9-10.2 4.4-14 5.5-5.6 1.7-10.7 2.2-42 3.1zm-247.7 56.4c0.2 0 0.3 9.9 0.3 44h-44.5l22-22c12.1-12.1 22.1-22 22.2-22z"/>
		<path id="Path 6" class="s4" d="m184 368c10.4 0 11.1 0.1 13.5 2.5 1.6 1.6 2.5 3.6 2.5 5.5 0 1.8-0.9 4-2.5 5.5-2.3 2.4-3 2.5-13.5 2.5-10.4 0-11.1-0.1-13.5-2.5-1.6-1.6-2.5-3.6-2.5-5.5 0.1-1.9 1.1-4.1 2.5-5.5 2.3-2.4 3-2.5 13.5-2.5z"/>
	</g>
</svg>