<svg version="1.2" xmlns="http://www.w3.org/2000/svg" viewBox="0 0 512 512" width="512" height="512">
	<title>4727204</title>
	<style>
		.s0 { fill: #a5c3dc } 
		.s1 { fill: #8caac8 } 
		.s2 { fill: #f28a39 } 
		.s3 { fill: #e1322d } 
		.s4 { fill: #d7e6f0 } 
		.s5 { fill: #d26e28 } 
		.s6 { fill: #afd763 } 
		.s7 { fill: #a55023 } 
		.s8 { fill: #f04b37 } 
		.s9 { fill: #5faa46 } 
		.s10 { fill: #91c83c } 
		.s11 { fill: #69a041 } 
		.s12 { fill: #4b8c41 } 
		.s13 { fill: #8c3c14 } 
	</style>
	<g id="Background">
		<path id="Path 0" class="s0" d="m254.5 16.1c10.2-0.1 21.6 0.5 28.5 1.4 6.3 0.8 15.1 2.2 19.5 3 4.4 0.9 12.9 2.9 19 4.6 6.1 1.8 14.8 4.6 19.5 6.4 4.7 1.8 11.6 4.7 15.5 6.5 3.9 1.7 11.3 5.5 16.5 8.5 5.2 2.9 10.2 5.9 11 6.6 0.8 0.8 2.8 2.1 4.4 2.9 1.5 0.8 7.6 5.1 13.5 9.5 5.8 4.4 16.5 13.8 23.6 21 7.2 7.1 16.7 17.8 21 23.6 4.4 5.9 8.7 12 9.5 13.5 0.8 1.6 2.1 3.6 2.9 4.4 0.7 0.8 3.7 5.8 6.6 11 2.9 5.2 7.1 13.6 9.3 18.5 2.2 4.9 5.3 12.8 7 17.5 1.7 4.7 4 11.7 5.1 15.5 1.1 3.8 2.9 11.3 4 16.5 1.1 5.2 2.7 14.9 3.5 21.5 0.9 6.6 1.6 19 1.6 27.5 0 8.5-0.7 20.9-1.6 27.5-0.8 6.6-2.4 16.3-3.5 21.5-1.1 5.2-2.9 12.6-4 16.5-1.1 3.9-4.1 12.6-6.6 19.5-2.6 6.9-7.3 17.7-10.6 24-3.2 6.3-9.3 16.7-13.4 23-4.2 6.3-11 15.6-15.1 20.5-4.1 4.9-7.9 8.9-8.3 8.7-0.5-0.1-0.7 0.1-0.4 0.5 0.2 0.5-2.8 4.1-6.8 8.1-4 4-7.6 6.9-8 6.5-0.5-0.4-0.7-0.3-0.5 0.3 0.2 0.6-2.6 3.5-6.1 6.5-3.5 3-6.5 5.2-6.7 4.9-0.2-0.3-1 0.4-1.7 1.5-0.8 1.1-7 5.7-13.8 10.2-6.8 4.5-17.6 10.8-23.9 14.1-6.3 3.2-13.5 6.7-16 7.7-2.5 1-6.8 2.6-9.5 3.7-2.8 1-9.5 3.2-15 4.8-5.5 1.6-14.3 3.8-19.5 4.9-5.2 1.1-14.9 2.7-21.5 3.5-6.6 0.9-19 1.6-27.5 1.6-8.5 0-20.7-0.7-27-1.5-6.3-0.8-16.2-2.4-22-3.6-5.8-1.1-17-4.2-25-6.8-8-2.7-18.3-6.5-23-8.6-4.7-2.1-13-6.3-18.5-9.3-5.5-3-14.7-8.7-20.4-12.6-5.7-3.9-10.6-7.7-10.8-8.4-0.1-0.6-0.8-1.2-1.3-1.2-0.6 0-4.5-2.9-8.8-6.4-4.2-3.6-10.9-9.7-14.8-13.8-3.9-4-9.4-10.1-12.2-13.6-2.9-3.4-4.9-6.2-4.5-6.2 0.5 0 0-0.5-1-1-0.9-0.6-5.2-6.3-9.5-12.8-4.3-6.4-9.9-15.5-12.4-20.2-2.6-4.7-6.4-12.6-8.6-17.5-2.2-4.9-5.1-12.4-6.5-16.5-1.4-4.1-3.5-10.6-4.6-14.5-1.1-3.9-2.9-11.3-4-16.5-1.1-5.2-2.7-14.9-3.5-21.5-0.9-6.6-1.6-19-1.6-27.5 0-8.5 0.7-20.7 1.5-27 0.8-6.3 2.2-15.1 3.1-19.5 0.8-4.4 2.9-12.9 4.6-19 1.7-6.1 4.9-15.7 7.1-21.5 2.2-5.8 6.7-15.7 9.9-22 3.3-6.3 9.6-17.1 14.1-23.9 4.5-6.8 9.1-13 10.2-13.8 1.1-0.7 1.7-1.3 1.2-1.3-0.4 0 1.2-2.4 3.5-5.2 2.4-2.9 7.9-9 12.3-13.7 4.4-4.6 11.5-11.3 15.9-15 4.3-3.6 8.1-6.4 8.5-6.3 0.3 0.2 0.9-0.3 1.3-1.2 0.5-0.9 7-5.7 14.5-10.7 7.6-5 19.6-11.9 26.8-15.4 7.2-3.5 20.4-8.9 29.5-11.9 9.1-3 21.2-6.4 27-7.5 5.8-1.2 15-2.7 20.5-3.5 5.5-0.7 17.7-1.4 27-1.5z"/>
		<path id="Path 1" class="s1" d="m254.3 64.1c5.9-0.1 15.1 0.4 20.4 0.9 5.4 0.6 14.5 2 20.3 3.1 5.8 1.1 15.2 3.6 21 5.5 5.8 1.9 16.1 6.2 23 9.5 6.9 3.3 17.4 9.3 23.5 13.4 6.1 4.1 13 9.1 20 15.2l-2.2 2.9c-1.2 1.6-2.8 5.3-4.8 13.4h-39.5l-0.5-3.5c-0.3-2-1.9-5-3.8-7.1-1.7-1.9-4.6-3.9-6.2-4.4-1.6-0.4-6.1-1.1-10-1.4-3.9-0.2-9.5-1.4-12.5-2.4-3-1.1-9.1-4.1-13.5-6.7-4.4-2.6-13.2-7.3-19.5-10.5-6.3-3.1-16.7-7.8-23-10.3-6.3-2.5-16.4-6-22.5-7.8-6.1-1.7-11.2-3.3-11.5-3.5-0.3-0.2-0.3-0.6 0-0.9 0.3-0.3 2.5-1 5-1.6 2.5-0.6 9.2-1.7 15-2.4 5.8-0.7 15.3-1.3 21.2-1.4zm81.8 95.9h19.5c12 0 19.7 0.4 20 1 0.3 0.6-2.3 2.3-5.8 3.9-3.4 1.5-8.9 4.9-12.2 7.4-3.3 2.5-7.7 6.7-9.7 9.4-2 2.6-5 7.7-6.6 11.3-1.7 3.6-3.6 9.7-4.2 13.5-0.8 4.1-1 10-0.6 14.3 0.3 3.9 1.7 10.2 5.3 20.7h-6.9c-6.8 0-6.8 0-6.8-2.8 0-1.5-0.6-4.2-1.3-6-0.8-1.7-2.8-4.4-4.5-6-1.8-1.5-4.9-3-7-3.3-2-0.4-5.3-0.2-7.2 0.3-1.9 0.6-4.3 1.3-5.3 1.7-1.3 0.5-1.9-0.1-2.7-2.7-0.5-1.7-2.2-4.4-3.7-5.8-1.6-1.5-3.8-3.2-5.1-3.8-1.2-0.6-4-1.1-6.2-1.1-2.2 0-5 0.5-6.3 1.1-1.2 0.6-3.2 2-4.5 3-2.2 1.9-2.2 1.9-6.5-2.5-3-3.2-5.3-4.6-8.2-5.1-2.2-0.4-5.5-0.4-7.3-0.1-1.9 0.4-4.9 2.3-12.2 9.6l-2.9-2.3c-1.7-1.2-3-2.6-3.1-3.2 0-0.6 3.5-2.3 7.7-3.9 4.3-1.6 12.5-5 18.3-7.5 5.8-2.6 16.8-8.3 24.5-12.6 7.7-4.4 16.5-8.8 19.5-9.8 3-1 9.1-2.1 13.5-2.5 5.6-0.4 8.9-1.2 11-2.7 1.6-1.1 4-3.6 5.2-5.5 1.3-1.9 2.3-4.5 2.3-5.8zm88.2 3.5l1.4 2.5c0.7 1.4 1.4 3.1 1.4 3.8 0 0.7-0.3 1.3-0.7 1.3-0.4 0-1.5-0.6-2.4-1.3-1.3-1-1.5-1.8-0.7-3.8zm-339.7 7.5c0.2 0 0.3 0.5 0 1-0.2 0.6-0.1 1 0.3 1 0.4 0 1.3 1.5 2 3.3 0.6 1.8 3.4 6.7 6.2 11 2.8 4.3 7.5 10.2 10.5 13.2 3.1 3.1 8.1 7.3 11.3 9.4 3.2 2.1 7.5 4.8 9.7 5.9 2.2 1.1 7.2 2.9 11 4.1 3.9 1.1 10.2 2.6 14 3.2 4.6 0.8 11.8 1 20.5 0.6 7.5-0.3 16.4-1.1 19.8-1.6 3.4-0.6 6.8-0.8 7.5-0.4 0.8 0.4-0.3 1.3-2.8 2.3-2.2 1-4.9 2.9-6.1 4.2-1.2 1.3-2.7 3.6-3.3 5.1-0.6 1.5-1.1 4.1-1.1 8.8l-5.7-0.6c-5-0.6-6.2-0.3-9.2 1.7-1.9 1.3-4.5 3.9-5.9 5.8-2 3.1-2.3 4.3-1.2 15h-3c-1.6 0-4.4 0.6-6.2 1.4-1.8 0.7-4.5 2.7-6 4.5-1.5 1.7-3 4.8-3.4 6.9-0.4 2.1-0.2 5.3 0.4 7.2 0.5 2 1.3 4.3 1.6 5.3 0.5 1.3-0.1 2-2.6 2.7-1.8 0.6-4.4 2.2-5.9 3.8-1.4 1.5-3.1 3.8-3.7 5-0.6 1.2-1.2 4.1-1.2 6.2 0 2.2 0.6 5.1 1.2 6.3 0.6 1.2 1.9 3.3 3 4.5 1.8 2.2 1.8 2.3-2.6 6.5-2.8 2.7-4.6 5.5-5.1 7.7-0.4 2-0.4 5.4 0 7.5 0.5 3 1.9 5.2 5.1 8.3 4.4 4.2 4.4 4.3 2.6 6.5-1.1 1.2-2.4 3.3-3 4.5-0.6 1.2-1.2 4.1-1.2 6.2 0 2.2 0.6 5.1 1.2 6.3 0.6 1.2 2.3 3.5 3.7 5 1.5 1.6 4.1 3.2 5.9 3.8 2.5 0.7 3.1 1.4 2.6 2.7-0.3 1-1.1 3.3-1.6 5.2-0.6 2-0.8 5.2-0.4 7.3 0.4 2.1 1.9 5.2 3.4 6.9 1.5 1.8 4.2 3.8 6 4.5 1.8 0.8 4.6 1.3 9.2 1.3l-0.6 5.3c-0.4 3.2-0.2 6.1 0.5 7.5 0.9 1.7 0.9 2.2-0.1 2.2-0.7 0-5.5-2.8-10.8-6.3-5.2-3.4-12.6-8.9-16.5-12.1-3.8-3.2-9.4-8.1-12.3-10.9-3-2.9-8.8-9.2-12.9-14.2-4.2-4.9-10.4-13.2-13.9-18.5-3.4-5.2-8.9-15.1-12.2-22-3.3-6.8-7.4-16.5-9.1-21.5-1.6-4.9-4.1-14.1-5.5-20.5-1.3-6.3-2.9-16.2-3.5-22-0.6-5.7-1.1-14.3-1.1-19 0-4.6 0.5-13.2 1.1-19 0.6-5.7 2-15 3.1-20.5 1.1-5.5 3.5-14.5 5.3-20 1.8-5.5 4.9-13.4 6.9-17.7 1.9-4.3 3.8-7.8 4.1-7.8zm126.8 47.2c1-0.1 1.8 0.2 1.8 0.6 0 0.4-0.6 2.2-1.3 4.1-0.9 2.4-1.7 3.1-2.8 2.6-0.8-0.4-3.4-1.3-5.7-1.9-2.3-0.6-4.3-1.5-4.3-2.1 0-0.5 2.4-1.5 5.3-2.1 2.9-0.6 6-1.1 7-1.2zm172.4 101.4c3.8 1.8 9.2 3.8 12.1 4.4 2.9 0.6 8.4 1 12.2 1 3.9 0 9.4-0.5 12.3-1.1 2.9-0.6 7.7-2.2 10.7-3.5 3.1-1.3 5.9-2.4 6.3-2.4 0.4 0-0.5 3.3-2.1 7.3-1.6 4-5.2 11.7-7.9 17.2-2.8 5.5-7.7 14.1-11 19-3.2 5-8.5 12.2-11.7 16-3.2 3.9-8.1 9.5-10.9 12.4-2.9 3-9.2 8.8-14.2 13-4.9 4.1-13.7 10.6-19.5 14.3-5.7 3.8-10.6 6.6-10.7 6.3-0.1-0.2 0.3-1.5 0.9-2.7 0.7-1.4 0.9-4.3-0.2-12.8h3c1.7 0 4.5-0.5 6.3-1.3 1.8-0.7 4.5-2.7 6-4.5 1.5-1.7 3-4.8 3.4-6.9 0.4-2.1 0.2-5.3-0.4-7.3-0.5-1.9-1.3-4.2-1.6-5.2-0.5-1.3 0.1-2 2.6-2.7 1.8-0.6 4.4-2.2 5.9-3.8 1.4-1.5 3.1-3.8 3.7-5 0.6-1.2 1.1-4.1 1.1-6.3 0-2.2-0.5-5-1.1-6.2-0.6-1.2-1.9-3.3-3-4.5-1.8-2.2-1.8-2.3 2.6-6.8 3.2-3.1 4.7-5.6 5.2-8.2 0.3-2.1 0.3-5.2 0-7-0.4-2-2.4-5-5.2-7.8-4-4-4.3-4.6-3-6.3 1.4-1.8 1.6-1.8 8.2 1.4z"/>
		<path id="Path 2" class="s2" d="m157.8 64.1c6.3-0.1 7.5 0.2 9.2 2.2 1.2 1.3 1.9 3.7 2 6 0 2.9-0.6 4.1-2.8 5.7-1.8 1.4-4.2 2.1-7.2 2.1-2.5-0.1-7.7 0.6-11.5 1.4-3.9 0.8-10.8 3.3-15.5 5.6-6.8 3.4-10.2 5.9-17.1 12.8-6.4 6.5-9.4 10.5-12.2 16.1-2 4.1-4.3 10.7-5.2 14.5-0.8 3.8-1.5 9-1.4 11.5 0 3-0.7 5.4-2.1 7.3-1.6 2.1-2.8 2.7-5.8 2.7-2.2-0.1-4.6-0.8-6-2-1.9-1.7-2.2-3-2.2-8.5 0-3.6 0.7-9.8 1.6-13.7 0.8-4 2.8-10.5 4.4-14.3 1.6-3.8 5.1-10.2 7.8-14 2.7-3.8 8-9.9 11.8-13.5 3.8-3.6 9.6-8.2 12.9-10.2 3.3-2 9.1-4.9 13-6.3 3.8-1.5 9.7-3.3 13-4 3.3-0.7 9.3-1.4 13.2-1.4z"/>
		<path id="Path 3" class="s3" d="m391 160.1c3-0.1 8.2 0.4 11.5 1 3.3 0.6 9.8 2.9 14.5 5.1 6.6 3.2 9.9 5.5 14.8 10.7 4.3 4.4 7.6 9.2 10.2 14.6 2.2 4.6 4.4 11 5.1 15 0.6 3.9 1 9.7 0.7 13-0.3 3.3-0.8 6.6-1.1 7.3-0.5 0.9-1.7 0.4-4.4-1.6-2.1-1.6-5.2-3.7-7-4.8-2.9-1.7-3.2-2.4-3.7-8.4-0.4-4-1.7-8.8-3.4-12.5-1.5-3.3-4.8-8.2-7.2-10.8-2.9-3.2-7.1-6.2-11.9-8.5-7.1-3.5-8.1-3.7-17.1-3.7-9 0-10 0.2-17.1 3.7-4.8 2.3-9 5.3-11.9 8.5-2.4 2.6-5.8 7.7-7.5 11.3-2.7 5.8-3 7.5-3 16.1 0 8.9 0.2 10 7.3 24.4l-2.5 5.5c-1.4 3-3 6.5-3.6 7.8-1.2 2.3-1.2 2.3-3.1-1.5-1-2.1-3.5-5.6-5.6-7.8-2.3-2.5-4.6-6.4-5.9-10.2-1.1-3.5-2.4-9.6-2.7-13.5-0.4-4.3-0.2-10.2 0.6-14.3 0.6-3.8 2.5-9.9 4.2-13.5 1.6-3.6 4.6-8.7 6.6-11.3 2-2.7 6.4-6.9 9.7-9.4 3.3-2.5 8.8-5.9 12.3-7.4 3.4-1.6 8.3-3.3 11-3.8 2.6-0.5 7.2-0.9 10.2-1z"/>
		<path id="Path 4" class="s4" d="m399.5 104.1c2.2-0.1 6.2 0.7 8.9 1.6q5 1.8 9 6.4c2.3 2.5 4.7 6.3 5.3 8.5 0.7 2.1 1.3 5.5 1.3 7.4 0 1.9-0.7 5.5-1.5 8-0.9 2.5-2.3 5.3-3.1 6.3-1.2 1.5-1.1 2.2 1.3 5.9 2.4 3.6 2.8 5.2 2.8 11.4 0 4-0.3 7.6-0.7 8.1-0.5 0.4-4.1-0.7-8-2.5-4.3-2-10.5-3.8-14.8-4.5-5.5-0.8-9.6-0.8-15.5 0-5 0.7-8.4 0.8-9 0.2-0.6-0.5-9.5-0.9-39.5-0.9v-32h20c18.4 0 20-0.1 20-1.7 0-1 0.6-3.6 1.3-5.7 0.6-2.2 3.2-6.2 5.7-8.8 2.7-3 6.1-5.5 8.5-6.3 2.2-0.7 5.8-1.4 8-1.4zm-143.8 103.9c1.8 0 4.8 0.6 6.6 1.3 1.7 0.8 4.7 3.1 9.6 9.2l2.3-2.1c1.3-1.2 3.3-2.7 4.6-3.3 1.2-0.6 4-1.1 6.2-1.1 2.2 0 5 0.5 6.3 1.1 1.2 0.6 3.4 2.3 5 3.8 1.5 1.4 3.2 4.1 3.7 5.9 0.8 2.5 1.4 3.1 2.8 2.6 0.9-0.4 3.3-1.1 5.2-1.7 1.9-0.5 5.2-0.7 7.3-0.3 2 0.3 5.1 1.8 6.9 3.3 1.7 1.6 3.7 4.3 4.5 6 0.7 1.8 1.3 4.6 1.3 9.3l6.3-0.6c6-0.7 6.3-0.6 10.1 2.7 2.1 1.9 4.8 5.2 5.8 7.4 1.5 2.9 1.9 5 0.8 11.5l5.3 1.4c3.6 1 6.2 2.5 8.5 5 1.8 2.1 3.5 5.2 3.8 7.3 0.4 2.1 0.2 5.4-0.3 7.3-0.6 1.9-1.3 4.3-1.7 5.2-0.5 1.4 0.1 2 2.7 2.8 1.7 0.5 4.4 2.2 5.8 3.7 1.5 1.6 3.2 3.8 3.8 5 0.6 1.3 1.1 4.1 1.1 6.3 0 2.2-0.5 5-1.1 6.2-0.6 1.3-2 3.3-3 4.5-1.9 2.3-1.9 2.3 2.6 6.8 2.8 2.8 4.7 5.8 5.1 7.7 0.3 1.8 0.3 5 0 7-0.4 2.7-1.9 5.1-5.1 8.3-4.5 4.5-4.5 4.5-2.6 6.7 1 1.3 2.4 3.3 3 4.5 0.6 1.3 1.1 4.1 1.1 6.3 0 2.2-0.5 5-1.1 6.2-0.6 1.3-2.3 3.5-3.8 5.1-1.4 1.5-4.1 3.2-5.8 3.7-2.6 0.8-3.2 1.4-2.7 2.7 0.4 1 1.1 3.4 1.7 5.3 0.5 1.9 0.7 5.2 0.3 7.2-0.3 2.1-1.8 5.2-3.3 7-1.6 1.7-4.3 3.7-6 4.5-1.8 0.7-4.7 1.3-9.3 1.3l0.6 5.7c0.5 5 0.3 6.3-1.8 9.3-1.3 1.9-3.9 4.6-5.8 5.8-3 2.1-4.3 2.3-15 1.2v3c0 1.6-0.6 4.5-1.3 6.2-0.8 1.8-2.8 4.5-4.5 6-1.8 1.6-4.9 3.1-6.9 3.4-2.1 0.4-5.4 0.2-7.3-0.3-1.9-0.6-4.3-1.3-5.2-1.7-1.4-0.5-2 0.1-2.8 2.6-0.5 1.8-2.2 4.5-3.7 5.9-1.6 1.5-3.8 3.2-5 3.8-1.3 0.6-4.1 1.1-6.3 1.1-2.2 0-5.2-0.6-6.7-1.4-1.6-0.8-3.7-2.3-6.8-5.5l-2 3.1c-1.1 1.7-3.3 4.1-4.8 5.2-2.1 1.6-4.3 2.1-8.6 2.1-4.7 0-6.4-0.5-9.4-2.8-2-1.5-4.3-3.8-6.2-7.7l-2.5 2.4c-1.4 1.4-3.7 3-5.2 3.5-1.6 0.6-4.4 1.1-6.3 1.1-1.9 0-4.5-0.5-5.7-1.1-1.3-0.6-3.5-2.3-5.1-3.8-1.5-1.4-3.2-4.1-3.7-5.9-0.6-1.7-1.3-3.2-1.7-3.2-0.5 0-2.4 0.7-4.3 1.6-2.4 1.2-4.9 1.5-8 1.1-2.5-0.3-5.6-1.4-6.9-2.4-1.3-1-3.2-2.9-4.3-4.3-1.1-1.4-2.2-4.6-3.3-11.8l-5.5 0.5c-4.6 0.4-6.1 0.1-9-1.9-1.9-1.2-4.5-3.9-5.8-5.8-2.1-3-2.3-4.3-1.2-15h-3c-1.6 0-4.5-0.6-6.2-1.3-1.8-0.8-4.5-2.8-6-4.5-1.6-1.8-3.1-4.9-3.4-7-0.4-2-0.2-5.3 0.3-7.2 0.6-1.9 1.3-4.3 1.7-5.3 0.5-1.3-0.1-1.9-2.6-2.7-1.8-0.5-4.5-2.2-5.9-3.7-1.5-1.6-3.2-3.8-3.8-5.1-0.6-1.2-1.1-4-1.1-6.2 0-2.2 0.5-5 1.1-6.3 0.6-1.2 2-3.2 3-4.5 1.9-2.2 1.9-2.2-2.5-6.5-3.2-3-4.6-5.3-5.1-8.2-0.4-2.2-0.4-5.6 0-7.5 0.4-2.3 2.2-5 5.1-7.8 4.4-4.2 4.4-4.2 2.5-6.5-1-1.2-2.4-3.2-3-4.5-0.6-1.2-1.1-4-1.1-6.2 0-2.2 0.5-5 1.1-6.3 0.6-1.2 2.3-3.4 3.8-5 1.4-1.5 4.1-3.2 5.9-3.7 2.5-0.8 3.1-1.4 2.6-2.8-0.4-0.9-1.1-3.3-1.7-5.2-0.5-1.9-0.7-5.2-0.3-7.3 0.3-2 1.8-5.1 3.4-6.9 1.5-1.7 4.2-3.7 6-4.5 1.7-0.7 4.6-1.3 9.2-1.3l-0.6-5.8c-0.5-4.9-0.3-6.2 1.8-9.2 1.3-1.9 3.9-4.6 5.8-5.8 3-2.1 4.3-2.3 15-1.2v-3c0-1.7 0.6-4.5 1.4-6.3 0.7-1.7 2.4-4.2 3.7-5.4 1.3-1.2 4-2.8 5.9-3.6 2.9-1.2 4.3-1.3 8-0.2 2.5 0.7 5.3 1.5 6.3 1.9 1.4 0.5 1.9-0.3 2.9-3.9 0.7-2.5 1.6-4.5 2-4.5 0.4 0 2.5-1.1 4.6-2.5 2.9-2 4.9-2.6 9.5-2.5 3.1 0 5.8 0.3 6 0.7 0.1 0.5 1.4 1.9 5.7 5.8l3.2-3.7c1.8-2.1 4.7-4.5 6.3-5.3 1.7-0.8 4.5-1.5 6.3-1.5z"/>
		<path id="Path 5" class="s5" d="m174.4 64.5c4.4 0.3 13.7 1.5 20.6 2.7 6.9 1.1 17.9 3.5 24.5 5.3 6.6 1.8 16.5 5 22 7 5.5 2 16.3 6.7 24 10.4 7.7 3.7 18.1 9.1 23 12 4.9 3 11.5 6.2 14.5 7.3 3 1 9.6 2.3 14.5 2.8 6.1 0.6 9.8 1.4 11.4 2.7 1.3 1 3.3 3.1 4.5 4.6 1.8 2.4 2.1 4.4 2.6 24.7l-184.5 0.5-5 2.6c-2.8 1.5-6.4 3.8-8 5.1-1.6 1.4-4.6 5.4-10 15.3v33l3.5 6.4c1.9 3.5 4.6 7.3 6 8.5 1.4 1.2 3.7 2.8 5 3.7 1.4 0.9 2.1 2.1 1.7 2.5-0.5 0.5-2.7 0.4-5-0.3-2.3-0.6-6.7-2.1-9.7-3.2-3-1.1-9-4.3-13.3-7.1-4.2-2.7-10.2-7.5-13.2-10.5-3-3-7.4-8.3-9.7-11.8-2.3-3.4-5.4-8.9-6.9-12.2-1.4-3.3-3.3-8.9-4.2-12.5-0.9-3.6-1.8-8.4-2.1-10.8-0.3-2.3-0.3-4.2 0.1-4.2 0.5-0.1 1.5 0.6 2.3 1.5 0.9 0.9 3.1 1.6 5.2 1.5 3 0 4.3-0.6 5.8-2.7 1.4-1.9 2.1-4.3 2.1-7.3-0.1-2.5 0.6-7.7 1.4-11.5 0.9-3.8 3.2-10.4 5.2-14.5 2.8-5.6 5.8-9.6 12.2-16.1 6.9-6.9 10.3-9.4 17.1-12.8 4.7-2.3 11.6-4.8 15.5-5.6 3.9-0.8 9-1.5 11.5-1.4 3 0 5.4-0.7 7.2-2.1 2.2-1.5 2.8-2.8 2.8-5.7 0.1-2.2-0.6-4.4-1.5-5.3-0.9-0.8-1.5-1.9-1.4-2.4 0.1-0.4 3.8-0.5 8.3-0.1z"/>
		<path id="Path 6" class="s6" d="m411.5 221.7c3.3 0.2 8.3 1.1 11 2 2.8 0.9 7.5 3 10.5 4.9 3 1.8 7.2 5 9.2 7.1 2 2.1 5.3 6.5 7.2 9.8 2 3.3 4.3 9 5.1 12.8 0.8 3.7 1.5 8.7 1.5 11.2 0 2.5-0.5 6.9-1.1 9.8-0.6 2.8-2.5 7.9-4.1 11.2-1.7 3.3-4.6 8-6.7 10.4-2 2.4-6.3 6.1-9.6 8.3-3.3 2.1-8.9 4.8-12.5 5.9-4 1.2-9.4 1.9-14 1.9-4.1 0-10-0.7-13-1.6-3-0.9-7.7-2.8-10.3-4.2-3.9-2.2-4.8-3.2-4.7-5.4 0-1.6-0.5-3.8-1.1-5-0.6-1.3-2.3-3.5-3.8-5.1-1.4-1.5-4.1-3.2-5.8-3.7-2.6-0.8-3.2-1.4-2.7-2.7 0.4-1 1.1-3.4 1.7-5.3 0.6-2 0.7-5.3 0.2-7.5-0.5-2.7-1.9-5.2-8.5-11.5l1-5.2c0.6-2.9 2.4-8.2 4.2-11.8 2-4.1 5.4-8.7 9.2-12.5 3.4-3.3 8.6-7.2 11.6-8.7 3-1.4 7.3-3.1 9.5-3.7 2.2-0.6 5.4-1.3 7-1.5 1.6-0.2 5.7-0.2 9 0.1z"/>
		<path id="Path 7" class="s7" d="m336 144v10.3c0.1 9-0.2 10.6-2.2 13.7-1.3 1.9-3.7 4.3-5.3 5.5-2.1 1.5-5.3 2.3-11 2.8-4.4 0.3-10.3 1.3-13 2.1-2.8 0.9-10.6 4.8-17.5 8.7-6.9 4-16.8 9.2-22 11.7-5.2 2.4-14.6 6.4-20.8 8.8-8.2 3.2-12.6 4.4-16.4 4.4-4.1-0.1-6.2 0.5-9.3 2.6-2.8 1.9-7.5 3.4-15.5 5-6.3 1.3-15.9 2.8-21.3 3.3-5.3 0.6-13.9 1.1-18.9 1.1-5.1 0-11-0.5-13.1-1-2-0.6-4.5-1.8-5.6-2.7-1-1-3.3-3-5.2-4.4-1.9-1.4-5-5.4-10.4-15.4v-16.5c0-15.9 0.1-16.7 2.6-21.5 1.5-2.7 3.8-6.3 5.1-8 1.4-1.7 5-4.3 7.9-5.9 3-1.7 6.7-3.3 8.4-3.7 1.7-0.4 43.6-0.7 183.5-0.9z"/>
		<path id="Path 8" class="s8" d="m394 176.4c5.7 0.2 9 1 14 3.2 3.6 1.7 8.7 5 11.3 7.4 3.1 2.9 6.1 7.1 8.3 11.5 2.1 4.3 3.7 9.4 4.2 13.3 0.4 4 0.3 6.2-0.3 6.2-0.6 0-3.9-1-7.5-2.1-4.5-1.4-9.3-2.1-15.5-2.2-5.9 0-11.1 0.6-15 1.7-3.3 1-8.5 3.1-11.5 4.6-3 1.5-7.9 5-10.9 7.6-3 2.7-6.7 6.6-11.1 12.4l-1.4-2.3c-0.8-1.2-2.5-4.5-3.8-7.2-1.8-4.1-2.3-6.8-2.3-14.5 0-8.5 0.3-10.2 3-16 1.7-3.6 4.9-8.5 7.2-11 2.2-2.5 6.7-5.9 9.9-7.7 3.3-1.8 7.7-3.7 9.9-4.2 2.2-0.6 7.4-0.9 11.5-0.7z"/>
		<path id="Path 9" class="s9" d="m412 213.7c3.6 0.3 9.6 1.5 13.5 2.7 3.9 1.2 9.5 3.8 12.5 5.8 3 2 7.2 5.3 9.4 7.5 2.1 2.1 5.6 6.5 7.8 9.8 2.1 3.3 4.8 8.9 5.9 12.5 1.1 3.6 2.3 9.4 2.6 13 0.3 3.6 0 9.8-0.7 14-0.8 4.7-2.8 10.4-5.3 15.5-2.9 5.7-6 9.9-10.9 14.8-4.8 4.7-8.9 7.7-14.1 10.1-3.9 1.9-9.6 3.9-12.5 4.5-2.8 0.6-8.3 1.1-12.2 1.1-3.9 0-9.4-0.5-12.3-1.1-2.8-0.6-8-2.4-11.5-4-3.4-1.6-6.2-3.3-6.2-3.9 0-0.6 0.5-2.2 1.2-3.7 0.7-1.6 1.3-2.9 1.5-3 0.2-0.2 1.8 0.6 3.5 1.7 1.8 1.1 6.2 2.9 9.8 4 4.1 1.3 9.3 2 14 2 4.6 0 10-0.7 14-1.9 3.6-1.1 9.2-3.8 12.5-5.9 3.3-2.2 7.6-5.9 9.6-8.3 2.1-2.4 5-7.1 6.7-10.4 1.6-3.3 3.5-8.4 4.1-11.2 0.6-2.9 1.1-7.3 1.1-9.8 0-2.5-0.7-7.5-1.5-11.2-0.8-3.8-3.1-9.5-5.1-12.8-1.9-3.3-5.2-7.7-7.2-9.8-2-2.1-6.2-5.3-9.2-7.1-3-1.9-8-4.2-11-5.1-3.5-1.2-8.5-1.8-14-1.8-4.7 0-10.3 0.5-12.5 1.2-2.2 0.7-6.5 2.5-9.5 4-3 1.4-8.2 5.3-11.6 8.6-3.8 3.8-7.2 8.4-9.2 12.5-1.8 3.6-3.6 8.8-4.2 11.5-0.5 2.8-1.1 5.1-1.2 5.3-0.2 0.1-1.9-0.1-3.8-0.6-3.3-0.8-3.5-1.1-3.5-5.1 0-2.3 0.5-4.5 1.1-4.9 0.7-0.4 1.7-2.5 2.3-4.7 0.5-2.2 2.8-6.7 4.9-10 2.1-3.3 6.5-8.4 9.8-11.4 3.2-2.9 8.4-6.6 11.4-8.1 3-1.5 7.3-3.3 9.5-4 2.2-0.7 6.2-1.6 9-2.1 2.7-0.4 7.9-0.5 11.5-0.2z"/>
		<path id="Path 10" class="s10" d="m408.1 233c0.5 0 1.6 0.7 2.4 1.5 1.1 1.1 1.4 3.4 1.2 8.6-0.1 5.6-0.6 7.4-2 8.3-1.2 0.8-2.2 0.8-3.5 0-1.3-0.8-1.8-2.8-2.1-8.1-0.4-5.8-0.1-7.4 1.3-8.7 1-0.9 2.2-1.6 2.7-1.6zm-22 9c0.5 0 3.4 2.4 6.4 5.2 3.1 2.9 5.6 6 5.6 6.8-0.1 0.8-0.6 2.1-1.3 2.7-0.7 0.7-1.9 1.3-2.8 1.3-0.8 0.1-3.9-2.4-6.8-5.5-2.8-3-5.3-5.8-5.4-6.2-0.1-0.3 0.7-1.5 1.7-2.5 1-1 2.2-1.8 2.6-1.8zm43.4 0c0.5 0 1.8 0.8 2.8 1.8 1 0.9 1.8 2 1.7 2.4 0 0.5-2.4 3.3-5.3 6.3-2.8 3.1-5.9 5.6-6.7 5.6-0.8-0.1-2.1-0.6-2.8-1.3-0.7-0.7-1.3-2-1.4-2.8-0.1-0.8 2.2-3.8 5.2-6.7 3-2.9 5.9-5.3 6.5-5.3zm-46.2 22.2c5.4 0.2 7.2 0.7 8.1 2 0.8 1.3 0.8 2.3 0 3.5-0.9 1.4-2.7 1.9-8.3 2-5.2 0.2-7.5-0.1-8.6-1.2-0.8-0.8-1.5-1.9-1.6-2.4 0-0.5 0.7-1.7 1.6-2.6 1.3-1.2 3.4-1.5 8.8-1.3zm50.4-0.2c6.3 0 7.4 0.3 8.3 2 0.5 1.1 1 2.2 1 2.5 0 0.3-0.7 1.2-1.6 2-1 1-3.7 1.5-8.2 1.5-4.1 0-7.2-0.5-8-1.2-0.7-0.7-1.3-2-1.4-2.9-0.1-0.8 0.4-2 1.2-2.7 0.8-0.7 4.5-1.2 8.7-1.2zm-39.8 14c0.9 0 2.2 0.5 2.9 1.2 0.7 0.7 1.2 2 1.3 2.8 0 0.8-2.5 3.9-5.6 6.8-3 2.8-5.8 5.2-6.3 5.2-0.4 0-1.5-0.8-2.5-1.8-1-0.9-1.8-2.1-1.9-2.5-0.1-0.5 2.3-3.3 5.2-6.3 2.9-3 6-5.4 6.9-5.4zm28 0c0.9-0.1 4 2.4 6.8 5.5 2.9 3 5.3 5.8 5.3 6.3 0 0.4-0.8 1.5-1.8 2.5-0.9 1-2 1.8-2.5 1.7-0.4 0-3.2-2.4-6.2-5.2-3.1-2.9-5.6-6-5.7-6.9-0.1-0.8 0.4-2 1.2-2.7 0.8-0.7 2.1-1.2 2.9-1.2zm-14 6c0.9 0 2.2 0.5 2.9 1.2 0.7 0.8 1.2 3.9 1.2 8.1 0 4.8-0.5 7.1-1.6 8.2-0.8 0.8-1.7 1.5-2 1.5-0.2 0-1.3-0.4-2.4-1-1.7-0.8-2-2.1-2.2-8.3-0.1-5.2 0.2-7.6 1.2-8.5 0.8-0.7 2.1-1.2 2.9-1.2z"/>
		<path id="Path 11" class="s11" d="m255.9 288c3.2-0.1 4.5 0.8 10.8 7.2 4.4 4.5 8.1 9.4 9.7 12.8 1.4 3 2.8 8 3.2 11 0.4 3.1 0.2 8.4-0.5 12-1.1 6.2-1.4 6.7-5.9 9.7-2.6 1.7-7.5 6.1-17.2 16.3l-6.8-7.1c-3.7-3.9-8.5-8.1-10.7-9.4-3.7-2.2-4.1-2.8-5.4-9.2-0.8-4.2-1.1-8.9-0.7-12.3 0.4-3 1.8-8 3.2-11 1.6-3.3 5.4-8.4 9.7-12.8 6.1-6.3 7.5-7.2 10.6-7.2z"/>
		<path id="Path 12" class="s12" d="m221.5 336.3c7.4 0.2 10 0.7 14.5 2.9 3.4 1.7 8.3 5.5 19.9 17.3l7.8-7.7c4.5-4.3 9.9-8.6 12.8-10 4.3-2 6.5-2.3 16-2.3 10.5 0 11.2 0.1 16.5 3.2 3 1.7 8.5 6.3 12.3 10.2 4.6 4.9 6.7 7.9 6.7 9.6 0 1.7-1.9 4.6-5.8 8.7-3.1 3.5-6.4 6.8-7.2 7.5-0.8 0.6-3.8 2.3-6.5 3.7-2.8 1.4-7.7 2.9-11 3.4-3.5 0.5-8.3 0.5-11.5 0-3-0.5-7.5-1.8-10-3-2.5-1.1-5.7-3.2-7.3-4.4-1.5-1.3-3.1-2.2-3.7-1.9-0.6 0.3-1 3.1-1 6.2 0.1 4.3-0.5 6.5-2 8.5-1.6 2.3-2.8 2.8-6 2.8-3.2 0-4.4-0.5-6-2.8-1.5-1.9-2.1-4.2-2-8 0-2.8-0.2-5.9-0.5-6.7-0.4-1.2-1.3-0.8-4.3 1.7-2 1.7-5.5 3.9-7.7 4.9-2.2 1-6.7 2.2-10 2.7-3.5 0.5-8.3 0.5-11.5 0-3-0.5-7.9-2.1-10.9-3.6-3.1-1.6-8.1-5.6-12.2-10-4.8-5-6.9-8-6.9-9.7q0-2.5 5.8-8.6c3.1-3.4 7.7-7.5 10.2-9.2 2.5-1.7 6.3-3.7 8.5-4.4 2.4-0.8 7.6-1.2 13-1z"/>
		<path id="Path 13" class="s13" d="m179.9 160c0.9-0.1 2.2 0.6 2.8 1.5 0.7 0.8 1.2 2.2 1 3.1-0.1 0.9-1 2.2-2 2.8-1.2 0.8-2.2 0.8-3.5 0-0.9-0.6-1.8-1.9-2-2.8-0.1-0.9 0.3-2.3 0.9-3.1 0.6-0.8 1.9-1.5 2.8-1.5zm-16 16c0.9-0.1 2.2 0.6 2.8 1.5 0.7 0.8 1.2 2.2 1 3.1-0.1 0.9-1 2.2-2 2.8-1.2 0.8-2.2 0.8-3.5 0-0.9-0.6-1.8-1.9-2-2.8-0.1-0.9 0.3-2.3 0.9-3.1 0.6-0.8 1.9-1.5 2.8-1.5zm56 0c0.9-0.1 2.2 0.6 2.8 1.5 0.7 0.8 1.2 2.2 1 3.1-0.1 0.9-1 2.2-2 2.8-1.2 0.8-2.2 0.8-3.5 0-0.9-0.6-1.8-1.9-2-2.8-0.1-0.9 0.3-2.3 0.9-3.1 0.6-0.8 1.9-1.5 2.8-1.5zm-40 16c0.9-0.1 2.2 0.6 2.8 1.5 0.7 0.8 1.2 2.2 1 3.1-0.1 0.9-1 2.2-2 2.8-1.2 0.8-2.2 0.8-3.5 0-0.9-0.6-1.8-1.9-2-2.8-0.1-0.9 0.3-2.3 0.9-3.1 0.6-0.8 1.9-1.5 2.8-1.5z"/>
		<path id="Path 14" class="s0" d="m333.3 301c0.4 0 1.9 0.6 3.4 1.4 1.6 0.7 3.1 2.1 3.5 3 0.5 0.9 0.8 2.8 0.8 4.3 0 1.6-1 3.8-2.3 5.1-1.2 1.3-3.4 2.2-5 2.2-1.5 0-3.5-0.4-4.5-0.9-0.9-0.4-2.3-2.1-3-3.7-1.2-2.5-1.2-3.3 0.3-5.9 0.9-1.6 2.6-3.5 3.8-4.2 1.2-0.7 2.5-1.3 2.9-1.3zm-26.5 19c1.2 0 3.7 1.4 5.3 3 1.6 1.6 3 3.9 3 5 0 1.1-1.4 3.4-3 5q-3 3-5 2.5c-1.2-0.3-2 0-2 0.8 0 0.6-1.4-0.3-3-2-2-2.2-3-4.4-3.1-6.7-0.1-2.7 0.5-3.9 2.7-5.5 1.5-1.2 3.8-2.1 5.1-2.1zm-37.5 55.9c2.1 2 2.5 3 1.8 4.4-0.6 0.9-1.9 2.1-3 2.7-1.1 0.6-2.4 1-3 1-0.6 0-1.1-2.2-1.2-4.9-0.1-3.5 0.2-5.1 1.2-5.4 0.8-0.2 2.7 0.8 4.2 2.2zm46.9-0.9c0.4 0 0.5 0.4 0.3 1-0.2 0.6 0.5 0.7 1.6 0.4 1.4-0.4 2.8 0.2 4.5 2 1.7 1.8 2.5 3.7 2.5 6.1 0 2.7-0.7 4-2.8 5.5-1.5 1.2-3.7 2.1-5 2-1.2 0-3.6-1.4-5.2-3-2.4-2.4-2.9-3.6-2.5-6.2 0.3-2 1.6-4.2 3.3-5.5 1.5-1.3 3-2.3 3.3-2.3zm-84.5 12c2.3 0 4.2 0.8 5.9 2.5 1.4 1.4 2.5 3.6 2.5 5 0 1.4-1.3 3.8-2.9 5.5-1.6 1.6-3.9 3-5 3-1.2 0-3.5-1.4-5.1-3-1.7-1.6-3-4.1-3.1-5.4-0.1-1.3 0.9-3.5 2.1-5 1.5-1.9 3.1-2.6 5.6-2.6zm48.3 10c1.2 0 3.5 1.4 5.1 3 1.6 1.6 3 4 3 5.3 0.1 1.2-0.8 3.4-2 5-1.5 2-2.8 2.7-5.5 2.7-2.4 0-4.3-0.8-6-2.5-1.4-1.4-2.5-3.6-2.4-5.1 0-1.4 1.3-3.9 2.9-5.5 1.6-1.6 3.8-2.9 4.9-2.9z"/>
		<path id="Path 15" class="s7" d="m215.2 88c1 0 2.3 0.9 2.8 2 0.6 1.1 0.8 2.7 0.5 3.5-0.3 0.8-1.4 1.7-2.5 2-1.1 0.3-2.7-0.1-3.5-0.8-0.9-0.6-1.7-1.9-1.7-2.7-0.1-0.9 0.4-2.1 1.2-2.8 0.8-0.7 2.2-1.2 3.2-1.2zm-40 16c1 0 2.3 0.9 2.8 2 0.6 1.1 0.8 2.7 0.5 3.5-0.3 0.8-1.4 1.7-2.5 2-1.1 0.3-2.7-0.1-3.5-0.8-0.9-0.6-1.7-1.9-1.7-2.7-0.1-0.9 0.4-2.1 1.2-2.8 0.8-0.7 2.2-1.2 3.2-1.2zm56 0c1 0 2.3 0.9 2.8 2 0.6 1.1 0.8 2.7 0.5 3.5-0.3 0.8-1.4 1.7-2.5 2-1.1 0.3-2.7-0.1-3.5-0.8-0.9-0.6-1.7-1.9-1.7-2.7-0.1-0.9 0.4-2.1 1.2-2.8 0.8-0.7 2.2-1.2 3.2-1.2zm-16 16c1 0 2.3 0.9 2.8 2 0.6 1.1 0.8 2.7 0.5 3.5-0.3 0.8-1.4 1.7-2.5 2-1.1 0.3-2.7-0.1-3.5-0.8-0.9-0.6-1.7-1.9-1.7-2.7-0.1-0.9 0.4-2.1 1.2-2.8 0.8-0.7 2.2-1.2 3.2-1.2z"/>
	</g>
</svg>