<svg version="1.2" xmlns="http://www.w3.org/2000/svg" viewBox="0 0 512 512" width="512" height="512">
	<title>burger</title>
	<style>
		.s0 { fill: #e64c3c } 
		.s1 { fill: #804537 } 
		.s2 { fill: #d1d4d1 } 
		.s3 { fill: #14a085 } 
		.s4 { fill: #f3d55b } 
		.s5 { fill: #f29c1f } 
		.s6 { fill: #4482c3 } 
		.s7 { fill: #e57e25 } 
		.s8 { fill: #f0c419 } 
		.s9 { fill: #e6e7e8 } 
	</style>
	<g id="Background">
		<path id="Path 0" class="s0" d="m240 277.1c1.4 0 5.7 0.4 9.5 1 4.2 0.6 8.8 2 11.5 3.6 2.5 1.4 6.1 4.2 8 6.2 1.9 2.1 6.1 8.8 9.3 15.1 3.2 6.3 8 14.3 10.7 17.7 2.8 3.5 7.8 8.5 11.3 11.3 3.4 2.7 9.6 6.7 13.7 8.9 4.1 2.1 10.4 4.8 14 5.9 3.6 1 10.3 2.5 15 3.2 5.6 0.9 12.8 1.1 21 0.7 7-0.4 15.8-1.5 20-2.6 4.1-1 10-3 13-4.3 3-1.4 8.2-4.2 11.5-6.3 3.3-2.1 9.1-6.8 12.8-10.4 3.8-3.6 8.8-9.5 11.2-13.1 2.3-3.6 5.8-9.9 7.7-14 2.1-4.7 5.1-9.3 8.1-12.3 2.6-2.6 7.1-5.9 9.9-7.4 4.7-2.4 6.4-2.7 15.2-2.8 9.4 0 10 0.1 11.8 2.5 1.9 2.5 1.9 2.7-13.7 104.5-8.5 56.1-15.7 103-16.5 106.5h-193l-0.5-2.8c-0.2-1.5-7.2-47-15.5-101.2-8.2-54.2-15-100.1-15-102 0-1.9 0.4-4 0.9-4.7 0.5-0.7 1.9-1.6 3.2-2.2 1.3-0.5 3.5-1 4.9-1z"/>
		<path id="Path 1" class="s1" d="m93.5 320l51 51h-49c-35.9-0.1-49.9-0.4-52.5-1.3-1.9-0.7-5.3-2.6-7.5-4.3-2.2-1.7-5.2-5.4-6.8-8.5-2.1-4.1-2.7-6.8-2.7-11.4-0.1-4.6 0.6-7.2 2.7-11.4 1.5-3 4.4-6.7 6.3-8.3 1.9-1.5 5.3-3.5 7.5-4.3 3.1-1.1 9.6-1.4 51-1.5zm103.1 0h19.7c10.8 0 19.7 0.3 19.7 0.8 0 0.4 1.7 11.8 7.5 50.2h-97.9l25.5-25.5zm59.2 170.7c135.7 0.1 247.7 0.2 249 0.2 1.2 0.1 3.3 1.2 4.7 2.6 1.6 1.6 2.5 3.6 2.5 5.5 0 1.7-1.1 4.3-5 9h-502l-2.5-3c-1.4-1.6-2.5-4.2-2.5-5.7 0-1.6 0.7-3.8 1.6-5 0.9-1.3 2.9-2.6 4.5-3 1.6-0.5 113.9-0.7 249.7-0.6z"/>
		<path id="Path 2" class="s2" d="m252 38c119.2 0 127.7 0.1 130.9 1.8 1.9 0.9 4.8 3.4 6.5 5.5 3 3.8 3.1 4.2 3.4 16 0.2 8.5-0.1 13.1-1 15.1-0.7 1.6-2.1 3.3-3.1 3.7-0.9 0.5-62.8 0.9-273.2 0.9l-2.5-2.5c-2.2-2.3-2.5-3.6-2.9-11.3-0.2-4.8 0.2-11.2 0.8-14.2 0.7-3 2.1-6.8 3.3-8.4 1.1-1.5 3.9-3.7 6.1-4.7 4-1.8 9.6-1.9 131.7-1.9z"/>
		<path id="Path 3" class="s3" d="m51 371h192.5l11 70-15.5 15.5-42.5-42.4-145.5-0.1v-21.5z"/>
		<path id="Path 4" class="s4" d="m333 209v69.5c0 38.2-0.3 69.5-0.8 69.5-0.4 0-3.2-0.8-6.2-1.8-3-1.1-8-3.2-11-4.7-3-1.5-8-4.5-11-6.7-3-2.3-7.4-5.9-14-12.3l0.1-108.6 2.4-2.4c2.4-2.5 2.6-2.5 40.5-2.5zm42 0h19c18.7 0 19 0 24.5 4.8l-0.5 116.7-4.8 3.7c-2.6 2.1-8.3 5.6-12.7 7.8-4.4 2.2-11.6 4.9-16 6-4.4 1.1-8.3 2-8.8 2-0.4 0-0.7-31.7-0.7-70.5z"/>
		<path id="Path 5" class="s5" d="m190.5 174.8c46.4 0.2 82.9 0.7 87 1.3 3.9 0.6 10.4 2.1 14.5 3.5 4.1 1.4 10.9 4.4 15 6.7 4.7 2.7 10.9 7.6 26.5 22.7h-19.3c-19.3 0-19.3 0-21.7 2.5-2.4 2.4-2.5 3-2.5 31.5h-14l2.4-2.3c1.4-1.2 2.6-3.1 2.7-4.2 0.2-1.1 0-3.2-0.4-4.8-0.4-1.6-1.9-3.3-3.7-4.2-1.6-0.8-5.4-1.5-8.3-1.5-2.8 0-6.3 0.6-7.7 1.3-1.3 0.6-3.1 2.3-3.9 3.7-0.8 1.5-1.1 3.6-0.7 5.2 0.3 1.6 1.6 3.7 5.1 6.8h-3.7c-2.1 0-4.9 0.4-6.3 1-1.5 0.6-2.9 2.3-3.5 4.2-0.6 1.8-1 9.2-1 29.3l-106.8-0.1c-58.7-0.1-107.9-0.4-109.5-0.7-1.7-0.5-3.3-1.9-4.3-4-1.4-2.7-1.6-5.1-1.1-14.7 0.4-6.3 1.5-14.7 2.5-18.5 1.1-3.9 3.2-9.9 4.7-13.5 1.5-3.6 4.8-9.6 7.4-13.5 2.5-3.8 7.5-9.8 11.1-13.3 3.6-3.5 8.7-7.9 11.5-9.7 2.7-1.8 7.8-4.7 11.2-6.4 3.5-1.7 9.8-4.1 14-5.2 4.3-1.2 11.2-2.5 15.3-2.8 4.1-0.3 43.5-0.5 87.5-0.3zm-143.5 238.7c6.9 0.3 43.3 0.5 149.5 0.6l42.5 42.4 7.5-7.5c4.1-4.1 7.6-7.3 7.8-7 0.2 0.3 1.8 10.4 3.6 22.5 1.8 12.1 3.5 23 4.1 26.5l-213.5 0.1-4.1-3.3c-2.3-1.8-5.5-4.9-7.1-6.8-1.6-1.9-4-5.3-5.2-7.5-1.3-2.2-3.3-6.5-4.4-9.5-1.6-4.5-2.1-8.7-2.5-23.5-0.3-15.1-0.2-18.6 1.2-21.8 1.2-2.7 2.5-4 4.8-4.7 1.8-0.5 8.9-0.8 15.8-0.5z"/>
		<path id="Path 6" class="s6" d="m129 81h122.5c97.1 0 122.6 0.3 122.9 1.3 0.2 0.6-2.3 25-5.5 54.2-3.2 29.2-5.9 53.6-5.9 54.3 0 0.9-3.3 1.2-13 1.2-11.7 0-13.2 0.2-15 2-1.6 1.6-2 3.3-2 8 0 3.3-0.1 6-0.3 6-0.1 0-4.3-3.9-9.2-8.8-5.6-5.4-11.9-10.3-16.5-12.9-4.1-2.3-10.9-5.3-15-6.7-4.1-1.4-10.4-3-14-3.5-4.1-0.7-31.2-1.1-139-1.1l-0.5-3.2c-0.3-1.8-2.5-21.9-5-44.5-2.5-22.7-4.5-42.4-4.5-43.8z"/>
		<path id="Path 7" class="s7" d="m268.8 226c2.8 0 6.6 0.7 8.2 1.5 1.8 0.9 3.3 2.6 3.7 4.3 0.4 1.5 0.6 3.6 0.4 4.7-0.1 1.1-1.3 3-2.7 4.3-2 1.8-3.5 2.2-9.7 2.2-5.8 0-7.6-0.3-9.5-2-1.2-1.1-2.5-3.2-2.8-4.8-0.5-1.8-0.1-3.6 1-5.2 0.9-1.4 2.6-3 3.8-3.7 1.3-0.7 4.7-1.3 7.5-1.3z"/>
		<path id="Path 8" class="s8" d="m354.5 192c16.4 0 17.6 0.1 19.3 2 1.6 1.9 1.7 6.9 1.4 78.8-0.2 42.2-0.6 76.9-0.9 77.2-0.2 0.3-6.2 0.6-13.1 0.8-7.5 0.2-15.8-0.3-27.7-2.4l-0.3-76.2c-0.2-75.1-0.2-76.2 1.8-78.2 1.8-1.8 3.3-2 19.5-2zm82.9 42c16.7-0.1 18.3 0.1 23.6 4v41l-4 2c-2.2 1.1-6.1 4.1-8.7 6.8-3 2.9-6 7.5-8.2 12.2-1.8 4.1-5 10-6.9 13-1.9 3-5.8 7.9-8.6 10.8-2.8 2.9-5.4 5.3-5.9 5.2-0.4 0-0.8-21.1-0.9-46.8-0.1-25.8 0.2-47.2 0.7-47.5 0.5-0.4 9-0.7 18.9-0.7zm-147.4 9l-0.1 78.5-2.9-3.5c-1.6-1.9-5.1-7.8-7.7-13-2.6-5.2-6-11.4-7.5-13.7-1.7-2.5-5.4-6-9.1-8.3-3.8-2.5-8-4.3-15.7-5.5v-13c0-8 0.5-14.3 1.2-16.4 0.7-1.9 2.2-3.8 3.3-4.2 1.1-0.4 10.2-0.8 38.5-0.9zm-239 34h184.5l-2.3 2c-1.6 1.4-2.2 3.1-2.2 6 0 2.2 0.9 9.7 2 16.8 1.1 7 2.2 13.9 3 18.2h-39l-52 51.5-51.5-51.5h-42.5v-21.5z"/>
		<path id="Path 9" class="s9" d="m251.8 4c100.2 0 102.3 0 106.2 2 2.2 1.1 5 3.5 6.2 5.3 2 2.7 2.4 4.9 3.3 27.2h-231.5v-9.5c0-5.2 0.5-11.1 1-13 0.6-1.9 2.1-4.8 3.3-6.5 1.2-1.6 3.8-3.5 5.7-4.2 2.7-0.9 26.6-1.2 105.7-1.3z"/>
		<path id="Path 10" class="s7" d="m115.8 209c5.6 0 6.5 0.3 9.2 3 1.7 1.7 3 3.9 3 5 0 1.1-0.5 3-1 4.3-0.6 1.2-2.1 2.8-3.5 3.5-1.4 0.6-5.4 1.2-9 1.2-5.3 0-6.9-0.4-8.9-2.3-1.4-1.2-2.6-3.1-2.7-4.2-0.2-1.1 0-3.2 0.4-4.8 0.4-1.5 1.9-3.4 3.5-4.2 1.5-0.8 5.5-1.4 9-1.5zm101.5 0c3.1 0 6.9 0.6 8.5 1.4 1.5 0.7 3 2.1 3.5 3 0.4 0.9 0.7 2.9 0.7 4.6 0 1.8-0.9 4-2.5 5.5-2.1 2.2-3.3 2.5-9.7 2.5-6.7 0.1-7.5-0.2-10.1-2.7-1.9-1.9-2.8-3.8-2.7-5.8 0-1.7 0.6-3.7 1.3-4.6 0.7-0.8 2.1-2.1 3.2-2.7 1.1-0.6 4.6-1.2 7.8-1.2zm-50.5 17c5.2 0 6.7 0.4 9.2 2.5 2.2 1.8 3 3.4 3 5.8 0.1 2.2-0.8 4.1-2.6 6-2.4 2.5-3.3 2.7-10 2.7-6.6 0-7.7-0.3-9.9-2.5q-2.5-2.5-2.5-5.8c0-1.7 0.6-3.9 1.3-4.8 0.7-0.8 2.1-2.1 3.2-2.7 1.1-0.6 4.8-1.2 8.3-1.2z"/>
		<path id="Path 11" class="s9" d="m353 388.1c0.3 0 3.3 0.4 6.8 0.9 3.4 0.6 8.4 2.1 11.2 3.5 2.8 1.4 6.9 4.2 9.1 6.2 2.3 2.1 5.2 5.6 6.5 7.8 1.3 2.2 3 6 3.9 8.5 0.9 2.5 1.6 7.5 1.6 11.5-0.1 3.9-0.7 8.8-1.4 11-0.7 2.2-2.2 5.8-3.4 8-1.1 2.2-4.1 6-6.4 8.3-2.4 2.4-6.4 5.4-8.9 6.7-2.5 1.2-7 2.8-10 3.5-3.3 0.8-7.8 1-11.2 0.6-3.2-0.3-8.2-1.5-11-2.5-3.2-1.2-7.6-4.1-11.1-7.3-4.1-3.6-6.9-7.3-9-11.8-2.4-5-3.2-8.2-3.6-14-0.3-5.4 0.1-9.1 1.4-13 0.9-3 3.1-7.7 4.9-10.4 1.7-2.7 4.9-6.4 7.1-8.2 2.2-1.8 6.3-4.3 9-5.5 2.8-1.2 7-2.5 9.5-2.9 2.5-0.4 4.7-0.8 5-0.9z"/>
	</g>
</svg>