<svg version="1.2" xmlns="http://www.w3.org/2000/svg" viewBox="0 0 512 512" width="512" height="512">
	<title>2203239</title>
	<style>
		.s0 { fill: #c3aff0 } 
		.s1 { fill: #e5646e } 
		.s2 { fill: #5d5360 } 
		.s3 { fill: #ffd064 } 
		.s4 { fill: #b6b1b7 } 
		.s5 { fill: #ff8b5a } 
		.s6 { fill: #b3e59f } 
		.s7 { fill: #c3ddff } 
		.s8 { fill: #ff8086 } 
		.s9 { fill: #c8c5c9 } 
		.s10 { fill: #c38c66 } 
		.s11 { fill: #95d6a4 } 
		.s12 { fill: #dad8db } 
		.s13 { fill: #ffa95f } 
		.s14 { fill: #ffe07d } 
		.s15 { fill: #ccf49f } 
		.s16 { fill: #dbeaff } 
		.s17 { fill: #d6bdef } 
		.s18 { fill: #a4ccff } 
	</style>
	<g id="Background">
		<path id="Path 0" class="s0" d="m293.1 97.9l15.4 0.6 0.5 80.5h-16v-7c0-3.9 0-14.7 0-24 0-9.3 0-24.4 0-33.5z"/>
		<path id="Path 1" class="s1" d="m99.2 179.5l30.4 79.5c16.7 43.7 31.4 81.5 32.6 83.9 1.3 2.4 4.8 6.9 7.8 10 3.6 3.7 8.1 7 13 9.5 5.1 2.5 9.9 4.1 15 4.8 7.2 1.1 12.9 0.3 156-19.6 81.7-11.4 149.6-20.6 150.9-20.4 2.3 0.3 2.1 0.7-3.5 6.7-3.2 3.5-7.9 7.4-10.4 8.6-2.5 1.2-6.1 2.7-8 3.3-1.9 0.6-63.6 9.5-137 19.8-97 13.5-136 18.6-142.5 18.6-5.5-0.1-11.5-0.8-15.5-1.9-3.6-1-10.1-3.9-14.5-6.3-5.1-2.9-10.7-7.2-15.5-12-4.1-4.1-8.7-9.8-10.2-12.5-1.5-2.8-16.2-40.4-32.7-83.8-16.6-43.3-30.1-79.7-30.1-81 0-1.2 0.6-3 1.3-3.9 0.7-1 2.4-2.2 3.7-2.7 1.4-0.6 4-0.9 9.2-0.6z"/>
		<path id="Path 2" class="s2" d="m20.2 106c14.6-0.1 15.4 0 17.4 2.2 1.2 1.3 2.4 3.3 2.8 4.5 0.3 1.3 0 3.5-0.8 5-0.7 1.6-2.6 3.4-4.2 4.1-2.1 0.9-6.9 1.2-16.6 1-13-0.3-13.8-0.4-16.2-2.8-1.9-1.7-2.6-3.5-2.6-5.8 0.1-2.1 1-4.2 2.5-5.7 2.3-2.4 2.8-2.5 17.7-2.5zm109.3 333.1c1.7-0.1 5.5 0.6 8.5 1.4 3 0.8 7.3 2.6 9.5 3.9 2.2 1.3 5.3 3.9 6.9 5.7 1.6 1.9 3.7 5.1 4.7 7.1 1.1 2.1 2.3 6.2 2.7 9 0.5 2.9 0.5 7.9 0 11-0.4 3.2-1.5 7.3-2.4 9-0.9 1.8-2.8 4.7-4.2 6.3-1.4 1.6-4.1 4.2-6.1 5.7-2 1.5-6.3 3.6-9.6 4.8-3.3 1.1-7.6 2-9.5 2-1.9 0-6.2-0.9-9.5-2-3.3-1.2-7.9-3.5-10.2-5.3-2.2-1.8-5.5-5.2-7.2-7.7-1.8-2.5-3.8-7.2-4.7-10.5-0.9-3.7-1.2-7.9-0.8-11 0.3-2.8 1.5-7 2.6-9.5 1.1-2.5 3.4-6.3 5.1-8.4 1.8-2.1 5.2-5 7.7-6.5 2.5-1.4 6.5-3.1 9-3.8 2.5-0.6 5.8-1.2 7.5-1.2zm352.3 0.4c3.5 0.3 8.5 1.6 11.4 2.9 3.3 1.5 7.2 4.5 10.1 7.8 2.7 2.9 5.7 7.6 6.8 10.5 1.1 3.1 1.9 7.8 1.9 11.3 0 3.5-0.8 8.2-1.9 11.2-1.1 2.9-3.9 7.5-6.3 10.2-2.7 3-6.7 6-10.8 8-5.4 2.6-7.6 3.1-13.5 3.1-5.4 0-8.3-0.6-12.5-2.6-3-1.4-7.5-4.3-9.8-6.5-2.4-2.1-5.6-6.4-7-9.4-2.3-4.6-2.7-6.8-2.7-14 0-6.7 0.5-9.5 2.3-13.5 1.3-2.8 4-6.7 6-8.8 2-2.1 5.3-4.8 7.2-6 1.9-1.2 5.5-2.7 8-3.4 2.6-0.8 7.1-1.1 10.7-0.8z"/>
		<path id="Path 3" class="s3" d="m187.1 41.1c0.3-0.1 5 30.6 10.3 68.2 5.3 37.5 9.7 68.5 9.6 68.9 0 0.5-2.3 0.7-10.4 0.3l-17.3-36.5c-10.4-21.9-17.3-37.7-17.3-39.5 0-1.7 1.1-7.5 2.5-13 1.3-5.5 3.8-14.3 5.6-19.5 2.8-8.7 3.1-10.2 2.5-18.3-0.5-6.7-0.3-8.6 0.7-8.2 0.6 0.2 3.9-0.2 7.2-0.9 3.3-0.8 6.3-1.4 6.6-1.5zm-52.1 45.2c0.9 0.1 8.3 17.1 20.2 46.2 10.4 25.3 18.8 46.1 18.8 46.2 0 0.2-9.8 0.2-43.4-0.2l-1.7-7c-1-3.9-2.4-11.5-3-17-0.8-6.6-1-16.6-0.5-29.5 0.6-18 0.5-20-1.4-26.5-1.2-3.9-2-7-1.8-7 0.2 0 2.8-1.2 5.8-2.7 3-1.5 6.2-2.6 7-2.5z"/>
		<path id="Path 4" class="s4" d="m373.5 41.5l0.5 32.5h-17l0.3-14.6c0.2-14.1 0.3-14.6 2.6-16.5 1.9-1.6 3.7-1.9 13.6-1.4zm-32.5 90.5h9.8c8.1 0 10.4 0.4 14.2 2.2 3 1.5 5.2 3.6 6.7 6.3 2.1 3.7 2.3 5.3 2.3 38.5h-33v-23.5z"/>
		<path id="Path 5" class="s5" d="m417.7 128c0.2 0 4.2 1.5 9.1 3.2 4.8 1.8 9.5 4.2 10.5 5.3 0.9 1.1 1.7 3.3 1.7 5 0 1.7-0.9 4-2 5.3-1.1 1.2-2.9 2.4-4 2.7-1.1 0.3-4.4-0.2-7.2-1.2-2.9-0.9-7.2-2.4-13.8-5.3l2.7-7.5c1.5-4.1 2.9-7.5 3-7.5zm46.7 9c1.7 0 6.4 1.2 10.4 2.7 5.7 2.2 7.3 3.2 7.2 4.8 0 1.1-0.7 4.3-1.6 7-0.9 2.8-1.9 5.3-2.3 5.7-0.3 0.5-4-0.3-8.1-1.7-4.1-1.3-8.7-3.3-10.2-4.5-2.1-1.5-2.8-3-3-5.7-0.1-2.7 0.4-4.3 2.2-6 1.4-1.4 3.6-2.3 5.4-2.3z"/>
		<path id="Path 6" class="s6" d="m496.9 74c1.4 0.4 3.2 1 3.9 1.3 0.6 0.4 1.7 2.2 2.2 4 0.6 1.7 0.7 4.2 0.3 5.4-0.5 1.2-7.1 9.2-28.8 33.5l-3-3c-1.6-1.6-4.7-3.8-10.8-6.7l4.4-5.1c2.4-2.7 8.7-10.3 14-16.7 6.1-7.3 10.7-11.9 12.5-12.5 1.5-0.5 3.9-0.6 5.3-0.2zm-286.9 57h16.5l0.1 10.7c0 9 0.4 11.4 2.1 14.3 1.1 1.9 3.8 4.6 5.9 6 3.9 2.5 4 2.5 58.4 3v14h-83v-24z"/>
		<path id="Path 7" class="s7" d="m374 74v34.5c0 19-0.2 34.5-0.5 34.5-0.3 0-1.4-1.6-2.5-3.5-1.2-2.2-3.6-4.3-6.3-5.5-3.3-1.5-6.4-2-23.7-2v-14.3c0-8 0.5-15.7 1.1-17.7 0.6-1.9 3.6-6 6.5-9 2.9-3 6-7.2 6.9-9.3 0.8-2 1.5-4.6 1.5-5.7 0-1.8 0.7-2 17-2z"/>
		<path id="Path 8" class="s8" d="m99 179h203.8c203.3-0.1 203.7-0.1 209.2 4v127l-2.5 8.5c-2.4 8-2.7 8.5-5.2 8.5-1.6 0-69.4 9.3-150.8 20.6-142.6 19.9-148.3 20.7-155.5 19.6-5.1-0.7-9.9-2.3-15-4.8-4.8-2.5-9.5-5.8-13-9.5-3-3.1-6.7-8-8.2-11-1.4-3-15.1-38-30.3-77.9-15.3-39.9-28.8-75.3-30.1-78.8z"/>
		<path id="Path 9" class="s9" d="m373.5 41h6.3c5.7 0 6.4 0.3 8.7 3 2.4 2.9 2.5 3.4 2 29.5l-16.5 0.5-0.2-16.5zm-153.6 24c3.1 0 5.2 0.5 5.5 1.3 0.3 0.6 0.6 15.6 1 65.2l-16.5-0.5 0.1-61.1 2.4-2.4c2-2 3.5-2.5 7.5-2.5z"/>
		<path id="Path 10" class="s10" d="m186.5 7.5c2.2 0.2 5 1.2 6.3 2 1.2 0.8 2.9 2.5 3.7 3.8 0.8 1.2 2.6 7.3 6.5 24.7l-2.3 0.5c-1.2 0.3-7.8 1.6-14.7 3-6.9 1.4-12.8 2.2-13.3 1.7-0.4-0.4-1-6.3-1.4-13.2-0.6-11.2-0.4-12.9 1.3-15.9 1.1-2 3.6-4.2 5.9-5.3 2.7-1.3 5.3-1.7 8-1.3zm-54.6 45.7c2 0.4 4.8 2 6.3 3.5 1.5 1.6 4.7 7.1 11.6 21.8l-12.9 6.2c-7.1 3.5-13.5 6.3-14.1 6.3-0.8 0-2.9-4.9-5-11.2-2.1-6.2-3.8-12.1-3.8-13.1 0-0.9 0.7-3.4 1.5-5.5 0.8-2 2.7-4.6 4.2-5.6 1.5-1.1 4.1-2.2 5.7-2.6 1.6-0.3 4.5-0.3 6.5 0.2z"/>
		<path id="Path 11" class="s11" d="m482.9 34c2 0 4 0.9 5.6 2.5 1.6 1.6 2.5 3.6 2.5 5.8 0 1.7-3.8 14-8.6 27.2-8.4 23.5-8.7 24.2-14.7 31.2-6.2 7.2-6.2 7.2-10.2 6.5-2.2-0.4-6.7-0.6-16-0.5l-0.8-12.1c-0.4-6.6-0.7-16.7-0.7-22.3 0-9.6 0.2-10.5 2.5-12.8 1.6-1.6 3.6-2.5 5.7-2.5 1.8-0.1 4.4 0.7 5.7 1.7 2.1 1.6 2.4 2.9 3.2 13.3 0.5 6.3 1 11.6 1.1 11.7 0.2 0.2 3.9-9.7 8.3-22 5.6-15.5 8.8-23 10.7-24.9q2.6-2.8 5.7-2.8z"/>
		<path id="Path 12" class="s12" d="m225.5 65h30.3c22.2 0 30.9 0.3 32.7 1.3 1.4 0.6 2.9 2.2 3.5 3.5 0.6 1.3 1 14.1 1 61.2h-33c-18.2 0-33.1-0.1-33.2-0.3-0.1-0.1-0.4-14.9-0.7-33zm-177.3 41.3c9.3 0.3 13.6 0.9 17.8 2.5 3.2 1.2 7.9 4.3 11.3 7.4 3.3 3 7.1 7.4 8.5 9.9 1.4 2.4 6.7 15.3 20.9 52.5l-8.6 0.5c-4.8 0.4-8.9 0.4-9.3 0-0.3-0.3-4.3-10.2-8.8-22-5.5-14.6-9.1-22.8-11.3-25.5-1.8-2.1-5.5-4.9-8.2-6.2-4.2-2-6.7-2.3-25.7-2.3l3.1-3c1.7-1.7 3.1-3.7 3.1-4.5 0-0.9-0.4-2.6-0.9-3.8-0.5-1.2-1.6-3.1-2.5-4.1-1.7-1.8-1.3-1.9 10.6-1.4zm116.7 264c0.9 0.9 4.1 3.1 12.9 8.3l-13.4 32.5c-7.4 17.8-13.6 33.1-13.9 34-0.5 1.3-0.8 1.3-2.3 0-1-0.9-2.6-2-3.7-2.7-1.1-0.6-4-1.4-6.3-1.7-2.8-0.4-4.1-1.1-3.8-1.9 0.2-0.7 6.3-15.6 13.6-33.2 7.2-17.6 13.7-33.1 14.3-34.4 0.9-2.2 1.2-2.3 2.6-0.9zm282.6 92.8v17h-285.5l-0.2-7.5c0-4.1-0.3-7.9-0.6-8.5-0.3-0.7 42.1-1 286.3-1z"/>
		<path id="Path 13" class="s13" d="m451.5 106.6c3.8 0.3 8.2 1.5 12 3.3 3.3 1.6 7.8 4.6 9.9 6.8 2.2 2.1 5 6.1 6.2 8.8 1.3 2.8 2.6 7.8 3.9 17.5l-7.8-3c-4.2-1.6-9.2-3-11-3-1.9 0-4.1 0.9-5.5 2.3-1.6 1.5-2.2 3.3-2.2 6 0 2.9 0.6 4.2 2.7 5.7 1.6 1.2 6.3 3.2 10.5 4.5 6.4 2.1 7.7 2.8 7.2 4.3-0.3 0.9-2 5.7-6.9 19.3l-63.5-0.1v-10.7c0-9.1 0.4-11.9 5.1-24.8l9.2 3.3c5.5 2 10.1 3.1 11.5 2.8 1.2-0.3 3.1-1.6 4.2-2.8 1.1-1.3 2-3.6 2-5.3 0-1.7-0.8-3.9-1.7-5-1-1.1-5.4-3.3-9.8-4.9-4.4-1.6-8.4-3.3-9-3.7-0.6-0.5 0-2.4 1.6-5.1 1.5-2.4 4.5-6 6.8-8 2.2-2.1 5.6-4.5 7.4-5.4 1.7-0.9 5-2 7.2-2.5 2.2-0.4 6.7-0.6 10-0.3z"/>
		<path id="Path 14" class="s14" d="m202.3 38.1c0.4-0.1 0.7 0.2 0.7 0.6 0 0.5 1.6 8.2 7 33.8v53.3c0 46.6-0.2 53.2-1.5 53.2-0.8 0-1.5-0.3-1.5-0.7 0.1-0.5-4.3-31.3-9.7-68.5-5.4-37.2-9.6-67.9-9.3-68.2 0.3-0.3 3.4-1.2 7-2 3.6-0.8 6.8-1.4 7.2-1.5zm-52.7 41.3c0.6 0.2 3.7 6.1 6.9 13.2 3.2 7.1 10.7 23.3 16.7 35.9 5.9 12.7 13.7 29.2 23.9 50.5l-22.5 0.1-18.9-45.8c-10.3-25.2-19-46.3-19.2-46.8-0.3-0.5 2.4-2.4 5.8-4.2 3.5-1.7 6.7-3 7.3-2.9z"/>
		<path id="Path 15" class="s15" d="m292.5 131.5v33h-27c-25.8 0-27.2-0.1-30.5-2.1-1.9-1.2-4.5-3.7-5.8-5.5-1.7-2.7-2.4-5.4-2.9-12.9-0.3-5.2-0.3-10.3 0-11.3 0.6-1.6 2.9-1.7 66.2-1.2z"/>
		<path id="Path 16" class="s16" d="m390.5 73.5l0.6 3.5c0.3 1.9 1.2 4.8 2.1 6.5 0.9 1.7 3.7 5 6.3 7.5 2.6 2.5 5.3 5.7 6.1 7.3 1.1 2.2 1.4 10 1.4 80.7h-33l-0.2-17.8c-0.2-9.7-0.2-33.3 0.2-87.2l8.3-0.2z"/>
		<path id="Path 17" class="s17" d="m308.5 98h34.5l-1 2.5c-0.6 1.5-1 17.5-1 78.5h-32l-0.3-40.5z"/>
		<path id="Path 18" class="s3" d="m413.3 204c1.8 0 4.2 0.8 5.4 2 1.3 1.1 2.5 3.5 2.8 5.3 0.3 1.7 0.5 28.3 0 114.9l-2.8 2.4c-1.5 1.3-3.8 2.4-5.2 2.4-1.4 0-3.7-1.1-8-4.8l-0.3-56.9c-0.1-31.2 0-57.8 0.3-59.1 0.3-1.2 1.4-3.1 2.5-4.2 1.2-1.2 3.4-2 5.2-2z"/>
		<path id="Path 19" class="s18" d="m361.2 204c1.5 0 3.5 0.3 4.4 0.8 0.9 0.4 2.3 1.9 3 3.5 1.1 2.2 1.4 14.1 1.4 62.5 0 46.1-0.3 60.3-1.3 62.2-0.7 1.4-2.4 3.1-3.7 3.7-1.8 0.9-3.4 1-5.7 0.3-1.8-0.6-3.7-1.9-4.3-3-0.6-1.3-1.1-25-1.4-125.4l2.4-2.3c1.3-1.3 3.6-2.3 5.2-2.3z"/>
		<path id="Path 20" class="s6" d="m233 204c1.8 0 3.9 0.9 5.3 2.3 2.1 2 3.4 8.6 13.5 69.7 6.2 37.1 11.2 68.5 11.2 69.8 0 1.2-1.1 3.3-2.5 4.7-1.5 1.6-3.5 2.5-5.5 2.5-1.8 0-3.9-0.9-5.3-2.3-2.1-2-3.4-8.6-13.5-69.7-6.2-37.1-11.2-68.5-11.2-69.8 0.1-1.3 1.2-3.4 2.5-4.7 1.5-1.6 3.5-2.5 5.5-2.5z"/>
		<path id="Path 21" class="s9" d="m130 456.1c2.6-0.1 6 0.7 8 1.8 1.9 1 4.5 3.6 5.7 5.7 1.4 2.4 2.3 5.6 2.3 8.4 0 3.1-0.7 5.6-2.3 8-1.2 1.9-3.8 4.6-5.7 5.8-2.8 1.9-4.5 2.3-8.7 2-3.2-0.2-6.2-1.1-8-2.4-1.5-1.1-3.8-3.6-5.1-5.5-1.5-2.3-2.2-4.8-2.2-7.9 0-2.8 0.8-5.8 2.1-8 1.2-1.9 3.1-4.2 4.3-5 1.1-0.8 2.7-1.8 3.6-2.2 0.8-0.4 3.5-0.7 6-0.7zm349.2-0.1c2.6 0 6.4 0.8 8.4 1.7 2.4 1.3 4.2 3.3 6 6.8 1.3 2.7 2.4 6 2.4 7.2 0 1.3-0.9 4.3-2 6.8-1.1 2.5-3.5 5.5-5.2 6.7-2.5 1.8-4.7 2.3-9.3 2.3-4.8 0-6.7-0.5-9.4-2.5-1.9-1.4-4.3-4.3-5.3-6.5-1-2.2-1.7-5.1-1.7-6.5 0-1.4 1-4.5 2.2-7 1.2-2.5 3.7-5.5 5.6-6.7 2.4-1.6 5-2.3 8.3-2.3z"/>
		<path id="Path 22" class="s13" d="m463.2 204c2 0 4.2 0.9 7.9 4.5v54c0 50.4-0.1 54.1-1.8 56.2-1 1.3-3.3 2.5-5 2.8-2.7 0.4-3.9-0.1-9.3-5.5l0.1-107.1 2.4-2.4q2.4-2.5 5.7-2.5z"/>
		<path id="Path 23" class="s14" d="m163.5 204c1.8 0 3.8 0.8 5.2 2.2 1.6 1.7 6.9 19.8 21.7 73.5 14.6 53.3 19.4 72 18.9 74-0.5 1.4-1.7 3.2-2.8 4-1.1 0.7-3.2 1.3-4.7 1.3-1.6 0-3.7-0.4-4.8-1-1.1-0.6-2.6-3-3.5-5.8-0.8-2.6-9.8-35.2-20-72.5-13.8-50.5-18.3-68.4-17.8-70.4 0.5-1.4 1.7-3.2 2.8-4 1.1-0.7 3.3-1.3 5-1.3z"/>
		<path id="Path 24" class="s15" d="m251.8 90c10 0 10.3 0.1 13.2 3 1.7 1.7 3 4.1 3 5.5 0 1.4-1.1 3.7-2.4 5.3-2.3 2.5-3 2.7-12.3 3-5.4 0.2-10.8 0.1-12.1-0.2-1.2-0.3-3.1-1.6-4.2-2.8-1.1-1.3-2-3.6-2-5.3 0-1.7 0.5-3.7 1.2-4.6 0.7-0.9 2.2-2.1 3.3-2.7 1.1-0.6 6.6-1.2 12.2-1.2z"/>
		<path id="Path 25" class="s17" d="m302.8 204c1.9 0 4 0.8 5.2 2 1.1 1.1 2.2 3 2.5 4.3 0.2 1.2 2 30.7 4 65.5 2.4 43.6 3.2 63.8 2.5 65.2-0.6 1.1-1.9 2.4-3 3-1.1 0.6-3.2 1-4.8 1-1.5 0-3.7-0.9-5-2.2-2.2-2.3-2.3-3.6-6-66.3-2.6-43.8-3.5-64.9-2.9-66.9 0.6-1.5 1.7-3.4 2.6-4.2 0.9-0.7 3.1-1.4 4.8-1.4z"/>
	</g>
</svg>