<svg version="1.2" xmlns="http://www.w3.org/2000/svg" viewBox="0 0 2000 2422" width="2000" height="2422"><defs><clipPath clipPathUnits="userSpaceOnUse" id="cp1"><path d="m0 0h2000v2422h-2000z"/></clipPath></defs><style>.a{fill:#eeb5eb}.b{fill:#98a8f8}.c{fill:#faf7f0}.d{fill:#bccef8}.e{fill:#703e23}.f{fill:#ffa4ba}.g{fill:#d7e0eb}</style><g clip-path="url(#cp1)"><path fill-rule="evenodd" class="a" d="m79.2 2066.5c6.4 0.4 14.5 1.4 18.1 2.3 3.6 0.9 9.3 3.1 12.5 4.6 3.4 1.7 9.2 6.1 13.3 10.2 4.9 4.9 8.4 9.6 11.2 15.3 2.2 4.5 5.1 11.3 6.2 15.3 1.2 3.9 2.8 11.8 3.8 17.5 0.9 5.6 1.6 14.2 1.6 27.3l-3.6 0.5c-1.8 0.2-12 1.2-22.3 2.2-10.4 0.9-20.1 1.6-21.6 1.6-2.8 0-2.8-0.2-3.4-10.6-0.3-5.9-1.3-13.7-2.2-17.4-0.9-3.9-2.4-8.8-3.6-11-1.1-2.3-3.5-5.4-5.5-7.1-2.6-2.4-4.5-3-8.4-3-4.4 0-5.6 0.5-9.2 4.1-2.3 2.2-4.7 6-5.4 8.4-0.7 2.4-1.6 9.1-1.9 14.8-0.4 7.6-0.1 12.2 1.2 17.5 1 3.9 3.5 10.8 5.7 15.3 2.2 4.4 5.7 11.1 7.9 14.7 2 3.6 10.6 16.4 18.9 28.4 8.2 12 18.1 27 21.9 33.3 4 6.4 9.7 15.9 12.7 21.3 3.1 5.5 7.2 13.8 9.3 18.6 2.1 4.8 5.1 14.2 6.8 20.8 2.8 11.3 2.9 13 2.4 30-0.4 13.2-1.2 20.6-2.9 27.3-1.3 5.2-4.2 13.2-6.5 18.1-2.3 4.8-6.7 11.4-9.6 14.7-3 3.3-8.1 7.8-11.4 9.8-3.3 2.1-8.8 4.8-12.5 6.2-3.6 1.3-11.4 3-17.4 3.7-8.6 1.1-13.4 1.1-21.9 0.1-6-0.8-14.4-2.5-18.6-4.1-4.1-1.4-10-4.2-13-6.2-2.9-1.9-7.6-6-10.4-9.1-2.7-2.9-6.5-8.4-8.4-12-1.9-3.5-4.5-9.5-5.8-13.2-1.2-3.8-3-11.1-3.9-16.4-1-5.3-2.1-16.6-3.3-40.7h2.7c1.6 0 12.8-1 25.2-2.1 12.3-1.2 22.7-2 23.3-1.7 0.4 0.3 0.7 5.5 0.7 11.7 0 6.2 0.5 13.9 1.1 17.2 0.7 3.3 1.9 8.5 2.7 11.5 0.9 3 2.8 7.1 4.1 9.1 1.4 2.1 3.9 4.8 5.6 6 1.9 1.5 5.2 2.5 8.7 2.7 4.6 0.3 6.5-0.1 9.5-2.2 2.3-1.5 5-4.9 6.8-8.5 1.9-3.6 3.5-9.5 4.3-14.8 0.6-4.8 0.8-11.5 0.5-14.7-0.3-3.3-1.9-9.5-3.3-13.7-1.4-4.1-4.2-11.1-6.4-15.3-2.2-4.1-7.6-13.1-11.9-19.9-4.4-6.7-15.5-23.2-24.4-36.6-9.1-13.4-19-29-22.1-34.7-3.1-5.7-7.4-15.1-9.6-20.8-2.3-5.6-5.3-14.7-6.6-20.2-1.4-5.4-2.8-13.7-3.2-18.5-0.5-5-0.3-13.1 0.4-18.6 0.6-5.5 2-12.8 2.8-16.4 1-3.6 3.1-9.5 4.7-13.1 1.6-3.6 4.6-9.3 6.8-12.6 2.3-3.3 6.7-8.4 10-11.3 3.2-3 9.4-7 13.5-9.1 4.2-2 10.8-4.4 14.8-5.3 4.8-1 10.8-1.4 18.5-1.2zm1868 2.9l51.9 0.5 0.6 348h-52.5zm-1646.1 0v144.2h38.3l0.5-143.7 51.6-0.5 0.3 348.5h-52.4v-150.8h-38.3v150.8h-52.4l-0.3-173.5c-0.1-95.5 0.3-173.8 0.8-174.2 0.4-0.5 12.4-0.8 51.9-0.8zm305.4 0.5l25.9 171.6c14.3 94.3 26 172.6 26.1 176.4l-49.7 0.1-0.8-4.1c-0.4-2.3-2.6-18.3-9-67h-48.1l-2.5 18.3c-1.5 10.1-3.6 26-7.4 52.8l-24.9-0.1c-22.9 0-24.8-0.1-24.8-1.9 0-1.1 11.6-78.8 25.7-172.9 14.2-94 26-171.5 26.2-172.3 0.5-1.1 7.4-1.3 63.3-0.9zm-40.9 164.8c-4.2 31.3-7.6 57.1-7.6 57.3 0 0.1 7.5 0.3 16.9 0.3h17c-0.9-5.5-4.3-31.3-8.2-60.9-4-29.6-7.1-54.3-7.1-54.9 0-0.6-0.8-1.1-1.7-1.1-1 0-1.6 0.5-1.6 1.1 0 0.6-3.5 26.7-7.7 58.2zm192.7-165.6l33.5 0.6c27.5 0.6 35.2 1.1 43.8 2.9 6.8 1.5 13.6 3.8 19.6 6.8 6.3 3.3 11.6 7 16.5 11.8 4 4 9.1 10.4 11.2 14.2 2.2 4 5.2 10.9 6.7 15.3 1.5 4.6 3.6 12.2 4.5 17 1 4.8 2 16.1 2.4 25.1 0.3 9.8 0.1 20.9-0.7 27.3-0.7 6-2.5 15.6-4 21.3-1.5 5.8-4.7 14.1-7 18.6-2.5 4.7-6.9 10.8-16.2 20.2l16.3 83.6c8.9 46 16.2 83.7 16.3 83.9 0 0.1-11.7 0.2-51.9 0.2l-26.4-145.9-13.5-0.5v146.4h-51.4zm50.9 154.9c9.9-1.2 15.2-2.8 18.4-4.3 3.9-1.9 7-4.4 9.5-7.9 2.1-2.9 4.8-8.4 6.1-12.4 2-5.5 2.6-10.3 3-22.9 0.3-11.9 0.1-17.8-1.3-24-0.9-4.5-2.9-10.6-4.3-13.7-1.4-3-3.9-6.9-5.8-8.7-1.7-1.8-5.1-4.2-7.5-5.4-2.4-1.2-7.3-2.4-11.1-2.6l-6.6-0.5zm195.6-154.5h51.4v61.4c0 42.2 0.3 61.1 1.1 60.4 0.6-0.7 11-27.9 23.1-60.7 12.1-32.7 22.1-59.8 22.4-60.4 0.2-0.4 11.5-0.7 25-0.7 19 0 24.6 0.3 24.6 1.3 0 0.7-10.4 26.7-46.1 113.9l26.3 115.8c14.5 63.7 26.3 116.1 26.3 116.6 0 0.5-11.2 0.9-25.1 0.9-23 0-25.1-0.3-25.6-2-0.3-1-8.4-35.6-18-77-9.6-41.3-17.6-75.8-17.6-76.7 0-0.9-0.3-1.7-0.8-1.7-0.4 0-4.1 8-15.6 35.5v121.9h-51.4zm253.9-0.4l31.8 0.7c21.1 0.4 35.2 1.2 41.7 2.3 5.4 0.9 12.6 2.5 15.8 3.5 3.4 1 9.4 3.5 13.6 5.7 5 2.6 9.8 6.4 14.2 11.1 4.5 4.8 8 10.1 10.9 16.4 2.3 5.1 5.5 14.4 6.9 20.7 1.4 6.4 3.4 18.8 4.5 27.9 1.5 13.9 1.9 27.1 1.9 86.9 0 49.3-0.4 74-1.4 82.4-0.7 6.6-2.1 16.8-3.1 22.4-1 5.7-3 14.4-4.5 19.2-1.4 4.8-4.3 11.7-6.1 15.3-1.9 3.6-6.2 9.2-9.5 12.5-3.3 3.4-8.5 7.7-11.5 9.4-3 1.7-8.7 4.3-12.6 5.7-3.8 1.4-12.6 3.5-19.3 4.7-10.2 1.7-17.6 2.1-73.6 2.1zm51 298c12.4-1.3 18.1-2.8 20.8-4.2 2.6-1.3 5.9-4.1 7.3-6.2 1.4-2.2 3.2-6.5 4.1-9.8 1-3.4 2.3-10.3 3.2-15.3 0.9-7 1.4-29.2 1.4-89 0-73.6-0.2-80.7-2.1-90.7-1.2-6-2.8-12.7-3.7-14.8-0.9-2.2-2.6-5.2-4-7.1-1.3-1.7-4.2-4-6.6-5.1-2.4-1-7.9-2.2-12.2-2.6l-7.7-0.8zm318.1-297.7v53.5h-65.6v90.7h47v56.8h-47v94h65.6v53.5h-118.1l-0.2-173.5c-0.1-95.5 0.2-173.9 0.8-174.2 0.4-0.5 27.1-0.8 117.5-0.8zm103.8 0h51.4v300.4h67.7v48.1h-119.1z"/><path fill-rule="evenodd" class="b" d="m1424.6 91.5c3.6-0.1 8.5 0.1 10.7 0.5 2.3 0.4 5.8 1.6 7.8 2.5 2.1 1 5.4 3.3 7.3 5.2 1.9 1.8 4.1 4.7 4.9 6.3 0.8 1.5 1.8 4.2 2.3 6 0.5 1.9 0.9 5.6 0.7 8.9-0.1 4.3-0.6 6.7-1.9 9.6-1 2.2-22.6 40.8-47.9 85.8-25.4 45.1-71.4 126.9-102.4 181.9-30.9 55-56.7 100.5-57.2 101-0.5 0.4-1 0.6-1 0.2 0-0.2-0.5-5.7-1-12.2-0.7-6.5-2.1-18.5-3.3-26.7-1.1-8.2-3.1-19.9-4.3-26-1.2-6-4.5-20.6-7.4-32.4-2.9-11.7-7-27.4-9.2-34.9-2.1-7.4-6-19.9-8.6-27.7-2.6-7.9-6.8-19.7-9.4-26.4-2.5-6.7-7-17.7-9.9-24.5-3-6.9-7.9-17.6-10.9-23.9-2.9-6.3-8.1-16.4-11.4-22.4-3.3-6.1-9.1-16.3-13-22.8-4-6.5-9.9-15.7-13.2-20.6-3.4-5-9.2-13.1-13-18.2-3.7-5-9.5-12.5-12.7-16.4-3.3-3.9-10-11.5-15-17-4.9-5.4-13-13.7-18.2-18.4-5.1-4.7-12.9-11.5-17.4-15.1-4.5-3.6-10.6-8.2-13.5-10.1-3-1.9-6.7-4.4-8.4-5.3-2-1.1-2.7-1.8-2.2-2.2 0.5-0.3 10.1-0.4 21.2-0.4 11.2 0 36-0.2 55.2-0.5 19.2-0.2 47.2-0.6 62.3-0.7 15.1-0.2 42.5-0.5 60.8-0.8 18.4-0.2 46.5-0.5 62.3-0.7 15.9-0.1 47.1-0.4 69.4-0.6 22.2-0.2 40.5-0.5 40.7-0.6 0-0.1 3.2-0.3 6.8-0.4zm-495.8 287.7c3 0.1 4.1 0.6 5.9 2.3 1.3 1.1 2.6 3.4 3 5 0.6 2.1 0.6 3.4 0 5.3-0.5 1.3-5.4 8.1-11.2 14.9-5.7 6.9-16 19.6-22.9 28.2-7 8.6-18.4 23.3-25.4 32.7-7.1 9.4-16.6 22.7-21.2 29.6-4.5 6.8-9.7 15.2-11.5 18.6-1.8 3.5-3.2 6.4-3.1 6.6 0.1 0.2 2.4 0.7 5.1 1.2 2.7 0.4 14.5 1 26 1.2 11.6 0.3 33.2 0.3 48.1 0 14.9-0.2 37.9-1 51.2-1.6 13.3-0.6 29.7-1.5 36.3-1.8 6.6-0.4 18-1.1 25.3-1.6 12.6-0.8 13.2-0.7 15.7 0.6 1.3 0.8 3.2 2.5 4.1 3.9 1 1.5 1.6 3.5 1.6 5.3 0 1.7-0.6 3.7-1.6 5.3-0.9 1.3-2.8 3.1-4.1 3.7-1.9 0.9-6.9 1.4-20.3 2.3-9.9 0.6-27.6 1.6-39.5 2.2-12 0.6-30.2 1.4-40.6 1.9-10.4 0.4-33.6 0.9-51.6 0.9-20.5 0-36.7-0.4-43.4-1-5.9-0.5-13.1-1.3-16.1-1.9-2.9-0.6-6.9-1.8-8.8-2.7-2-0.9-4.7-2.7-6-4.1-1.5-1.5-2.5-3.6-3-5.9-0.5-2-0.7-5-0.4-6.8 0.3-1.8 1.5-5.8 2.8-8.9 1.3-3.1 4.3-9.3 6.8-13.5 2.5-4.4 8-13 12.4-19.2 4.3-6.3 11.9-16.9 16.9-23.5 5-6.7 13.3-17.6 18.5-24.2 5.3-6.7 15.8-19.8 23.4-29.2 7.7-9.4 15.5-18.8 17.3-20.9 1.9-2.1 4.1-4.1 5-4.5 0.9-0.3 3.3-0.5 5.3-0.4zm321.8 166.9c0.7 0.2 26 14.2 56.1 31 30.1 16.9 55.7 31.5 56.8 32.5 1 1 2.5 3.1 3 4.7 0.8 1.9 1 3.9 0.7 6.2-0.2 2.5-1 4.1-2.8 6-1.3 1.5-5.3 4.5-9 6.7-3.7 2.2-33.2 19.7-65.7 39-32.4 19.2-59.2 35-59.6 35-0.3 0-0.7-0.2-0.7-0.4 0-0.2 0.7-2.8 1.4-5.9 0.8-3 2.5-11.1 4-17.9 1.4-6.9 3.6-18.9 5-26.7 1.3-7.9 3.2-20.5 4.2-28.1 0.9-7.7 2.2-19.5 2.9-26.4 0.5-6.8 1.3-18.1 1.7-24.9 0.4-6.8 0.8-16.7 0.7-21.9 0-8.7 0.1-9.4 1.3-8.9zm-649.8 12.3c0.2 0 4.4 2.3 17.9 10l-4.8 6.5c-2.6 3.6-7.9 11.4-11.8 17.3-3.9 5.8-8.5 13.5-10.2 16.9-2.1 4.3-2.8 6.3-2.2 6.5 0.5 0.2 5 0.7 10.1 1.2 6.2 0.7 20.4 1 42 1 18 0 38.7-0.3 59.1-1.1l14.6 9.6c9.3 6.1 14.2 9.8 13.5 10-0.5 0.2-2.5 0.3-4.2 0.3-1.8-0.1-7.2 0.1-12.1 0.3-5 0.3-15.2 0.7-22.8 1-7.6 0.3-28.4 0.6-45.9 0.6-17.7 0-36-0.3-41-0.6-4.9-0.3-11.3-0.8-14.2-1.3-2.9-0.4-7.3-1.4-9.8-2.1-2.6-0.8-5.5-2.4-7.1-3.7-1.4-1.2-3.1-3.6-3.8-5.1-0.9-2.1-1.1-4.3-1-7.9 0.1-2.7 0.8-6.5 1.6-8.5 0.8-2 2.8-6.3 4.4-9.6 1.8-3.4 4.7-8.6 6.7-11.8 2-3.1 6.1-9.4 9.2-13.8 3.1-4.5 7-9.9 8.5-12 1.5-2 3-3.7 3.3-3.7z"/><path fill-rule="evenodd" class="c" d="m463.1 95c0.2 0 0.1 0.3 0 0.7-0.3 0.4 2.3 0.9 6.5 1.2 3.8 0.2 12 0.8 18 1.4 6.1 0.5 16.8 2 23.8 3.1 7.1 1.1 17.5 3.1 23.2 4.3 5.7 1.1 15.1 3.5 21 5 5.8 1.6 15.1 4.4 20.6 6.2 5.5 1.7 15 5.1 21 7.4 6.1 2.4 15.5 6.2 21 8.6 5.5 2.4 15.9 7.4 23.1 11 7.3 3.7 19.6 10.5 27.4 15.2 7.9 4.7 20 12.6 27.1 17.5 7 5 17.6 12.7 23.5 17.3 5.8 4.6 11.1 8.5 11.5 8.8 0.5 0.3 6.3-0.6 12.8-1.9 6.6-1.4 15.5-3 19.8-3.7 5.4-0.8 10.8-1.1 17.4-1 8.7 0.3 9.9 0.5 12.8 2.1 1.7 1 3.8 2.7 4.6 3.8 1.2 1.6 1.6 3.3 1.8 8.5 0.1 3.7-0.2 8.4-0.7 10.5-0.5 2.1-2.1 7.6-3.6 12.1-1.5 4.5-2.9 9.5-3.1 11-0.2 1.7 0 3.6 0.5 4.7 0.5 0.9 2 2.4 3.4 3.3 1.8 1.3 3.5 1.7 6.4 1.6 2.1 0 5.8-0.6 8.2-1.4 2.3-0.8 8.7-3.8 14.2-6.8 5.5-2.8 11.3-5.6 13-6.1 2.7-0.9 3.1-0.8 4.4 0.5 1.2 1.1 1.5 2.2 1.5 5.3 0 2.1-0.8 7-1.8 10.9-1 3.8-3.1 10-4.6 13.8-1.5 3.8-4.5 10.5-6.4 14.8-2 4.3-4.5 9.8-7.2 16.7l5.2 7c2.9 3.8 8.9 12.2 13.5 18.6 4.5 6.5 10.7 15.8 13.9 20.7 3.1 4.9 8.4 13.4 11.7 18.9 3.3 5.4 8.6 14.5 11.7 20.2 3.2 5.7 7.6 14 9.8 18.4 3.4 6.8 3.8 8.2 3.1 9.3-0.5 0.7-6.3 8.2-12.9 16.5-6.6 8.4-16.1 20.7-21.1 27.4-5 6.7-12.6 17.2-16.9 23.5-4.4 6.2-9.9 14.8-12.4 19.2-2.5 4.3-5.5 10.4-6.8 13.5-1.3 3.1-2.5 7.1-2.7 8.9-0.3 1.8-0.2 4.8 0.3 6.8 0.5 2.3 1.6 4.4 3.1 5.9 1.2 1.4 3.9 3.2 5.9 4.1 1.9 0.9 5.9 2.1 8.9 2.7 2.9 0.6 10.1 1.4 16 1.9 7 0.7 23 1 46.2 1 19.6 0 37.4-0.3 43.5-1.1l1.7 5.5c0.8 3.1 3.7 13.6 6.1 23.4 2.5 9.8 6.2 25.8 8.5 35.6 2.1 9.8 5.3 25.2 7.1 34.1 1.7 9 4.6 24.2 6.4 33.9 1.8 9.6 6.4 35.8 10.3 58.3 3.9 22.5 8.2 47.2 9.7 54.8 1.4 7.7 4.1 22.1 6.1 32.1 2 9.9 5.6 27.6 8.2 39.1 2.5 11.5 6.7 29.1 9.2 38.8 2.4 9.8 6.9 26.1 9.9 36.3 2.9 10.2 7.4 24.8 9.8 32.4 2.6 7.6 6.8 19.8 9.4 27 2.7 7.3 7.3 19.5 10.4 27.1 3 7.6 7.1 17.2 9.1 21.3 1.9 4.2 4.3 10.2 5.4 13.6 1 3.3 2.8 9.9 3.9 14.6 1.1 4.7 2.8 12.2 3.6 16.7 0.8 4.5 1.9 12.5 2.4 17.8 0.7 5.3 1.3 14.7 1.6 21 0.3 6.6 0.1 16.4-0.3 23.5-0.5 6.6-1.5 16.6-2.3 22-0.8 5.5-2.6 15.1-3.9 21.4-1.5 6.3-4.5 17-6.7 23.8-2.3 6.9-5.9 16.5-7.9 21.4-2.1 4.9-5.7 12.6-8 17.1-2.3 4.5-6.6 12.3-9.6 17.3-3 5-8.2 12.9-11.5 17.4-3.2 4.6-8.2 11-10.9 14.4-2.8 3.3-10.8 11.8-17.9 18.9-7.1 7.1-16.9 16.1-22 20.1-5 4-10.2 7.8-11.7 8.4-1.5 0.6-4.6 1.2-6.9 1.2-3.2 0-5.2-0.4-7.9-1.8-1.9-1-4.4-2.8-5.6-4.2-1.1-1.3-2.5-3.5-3.1-4.9-0.9-1.9-1.2-6.8-1.6-21-0.3-10.2-0.9-21.5-1.4-25.2-0.4-3.7-1.4-10.7-2.2-15.4-0.8-4.6-2.4-12.5-3.6-17.4-1.1-4.9-3.2-12.6-4.6-17.1-1.4-4.5-4.3-12.6-6.5-18.1-2.1-5.5-6.2-14.8-9.1-20.7-2.9-5.8-7.5-14.5-10.4-19.2-2.7-4.7-7.4-11.7-10.1-15.6-2.8-4-8.2-11.2-12.1-16.1-4-4.9-12.1-13.8-18.3-19.9-6-6.1-15-14.2-19.9-18.1-4.9-4-12.4-9.7-16.7-12.6-4.3-3-11-7.3-15-9.7-3.9-2.3-11.6-6.5-17.3-9.3-5.5-2.8-12.8-6.2-16.3-7.7-3.4-1.4-9.8-3.8-14-5.4-4.3-1.5-11.6-3.8-16.1-5.2-4.4-1.3-12.3-3.2-17.4-4.2-5-1-13.4-2.5-18.5-3.2-5.1-0.8-15-1.8-22.1-2.3-9.6-0.6-16.5-0.6-27.7 0-8.2 0.5-20.4 1.6-27.1 2.6-6.7 0.9-16.7 2.9-22.4 4.3-5.7 1.4-13 3.4-16.3 4.4-3.4 1-8.9 2.9-12.4 4.2-4.7 1.8-7.2 2.4-10.6 2.4-2.9 0-5.4-0.5-7.3-1.3-1.6-0.8-4.1-2.8-5.6-4.5-1.6-1.7-3.3-4.2-3.8-5.4-0.5-1.2-0.9-4-0.9-6 0-2.5 0.9-6.7 2.8-12.3 1.5-4.7 4.4-12.6 6.5-17.5 2.1-4.9 5.9-13 8.5-18.1 2.5-5.1 7.3-13.4 10.4-18.5 3.2-5.1 9.2-13.8 13.2-19.2 4.1-5.5 10.3-13.2 13.8-17.1 3.5-3.9 9.7-10.4 13.8-14.5 4.1-4 10.6-9.9 14.3-13 3.7-3.1 10.8-8.6 15.8-12.2 4.9-3.6 12.8-8.9 17.4-11.7 4.6-2.8 12.4-7.2 17.3-9.8 4.9-2.5 13.4-6.4 18.8-8.7 5.5-2.2 12.6-4.9 15.8-6 3.3-1.1 10.4-3.3 15.7-4.8 5.4-1.5 13.8-3.6 18.7-4.7 4.9-1 12.8-2.2 17.5-2.9 4.7-0.6 12.7-1.3 17.7-1.8 5.1-0.3 13.1-0.7 17.6-0.7 7.3 0 8.5-0.1 9.1-1.2 0.3-0.7 2.2-5.8 4.2-11.2 2-5.5 4.5-13.7 5.7-18.2 1.2-4.5 2.9-12 3.7-16.7 0.8-4.9 1.7-13.5 1.9-19.9 0.3-8.6 0-13.9-0.9-21-0.6-5.3-2-13.2-3.2-17.5-1-4.3-3.2-10.9-4.6-14.6-1.4-3.7-4.3-10.3-6.5-14.6-2.1-4.2-6.6-11.8-9.8-16.7-3.3-4.9-9.3-12.9-13.5-17.8-4-4.9-11.8-13.2-17.2-18.5-5.5-5.3-13.8-12.9-18.5-16.8-4.7-3.8-11.7-9.5-15.6-12.5-3.9-2.9-10.1-7.5-13.8-10.1-3.5-2.6-6.7-4.6-6.9-4.4-0.2 0.2-0.2 0.2 0-0.1 0.2-0.4-4.5-3.8-10.4-7.8-6-3.9-16.8-10.9-24.1-15.3-7.3-4.6-18.6-11.4-25.3-15.4-6.6-3.9-19.6-11.4-28.8-16.7-9.2-5.2-23.1-13.2-30.9-17.6-7.9-4.4-21.5-12.2-30.3-17.3-8.8-5.2-22.3-13.2-29.9-18-7.6-4.7-15.8-9.9-18.1-11.4-2.4-1.5-10.1-6.7-17.1-11.6-7.1-4.9-17.2-12.1-22.4-16.1-5.3-4.1-13.6-10.8-18.5-15-4.9-4.2-12.7-11.4-17.3-15.9-4.6-4.6-11.6-12-15.4-16.5-3.8-4.4-8.6-10.6-10.8-13.5-2.1-2.9-5.5-7.9-7.5-11-2-3.1-5.9-10.2-8.7-15.7-2.9-5.4-6.8-13.8-8.7-18.6-1.9-4.9-4.8-12.7-6.4-17.5-1.6-4.8-3.9-13.1-5.3-18.3-1.3-5.3-3.2-14-4.2-19.2-0.9-5.3-2.3-14.6-2.8-20.5-0.7-6.4-1.2-17.3-1.2-26.3 0-8.7 0.5-19.9 1.1-25.5 0.6-5.5 1.7-13.7 2.5-18.1 0.8-4.5 2.5-12.7 3.8-18.2 1.4-5.5 3.8-13.9 5.4-18.9 1.7-4.9 4.4-12.3 6.2-16.7 1.7-4.3 6.1-13.6 9.7-20.6 3.8-7.5 10-18 14.8-25.3 4.6-6.8 10.8-15.5 13.8-19.2 3-3.7 8.8-10.5 13-15.2 4.1-4.5 7.6-8.3 7.7-8.3zm786.5 440.3c0.2 1.9 0.2 4.8 0 6.4-0.1 1.5-0.2 0-0.2-3.6 0-3.6 0.1-4.8 0.2-2.8z"/><path fill-rule="evenodd" class="d" d="m728.6 0c28 0.2 36 0.4 48.8 1.7 8.4 0.8 16.7 1.7 18.5 1.9 1.8 0.3 8.5 1.3 14.9 2.2 6.5 1 19.2 3.2 28.2 5 8.9 1.7 22.4 4.7 29.9 6.7 7.4 1.9 19.7 5.4 27.4 7.7 7.6 2.4 16.7 5.3 20.2 6.5 3.6 1.3 12.2 4.5 19.3 7.2 7 2.8 16.5 6.7 21 8.7 4.4 1.9 14.6 6.6 22.4 10.4 7.8 3.8 18.7 9.4 24.2 12.5 5.5 3 15.2 8.8 21.7 12.9 6.5 4 13.5 8.6 15.7 10.1 2.1 1.6 6.6 4.5 9.9 6.6 3.4 2.1 7.8 5 10 6.6 2.1 1.6 6.6 5.1 9.9 7.8 3.4 2.7 10.2 8.6 15.3 13.1 5 4.6 13.6 13.1 19 19 5.3 5.9 12.4 13.9 15.6 17.8 3.3 3.9 9 11.3 12.8 16.4 3.8 5.1 9.6 13.2 12.9 18.2 3.4 4.9 9.3 14.1 13.2 20.6 3.9 6.5 9.8 16.7 13 22.8 3.3 6 8.5 16.1 11.5 22.4 3 6.3 7.9 17 10.8 23.8 2.9 6.9 7.4 17.9 10 24.6 2.5 6.7 6.7 18.5 9.4 26.3 2.5 7.9 6.5 20.3 8.6 27.8 2.1 7.5 6.3 23.1 9.2 34.9 2.8 11.7 6.2 26.3 7.4 32.3 1.2 6.1 3.1 17.8 4.2 26 1.3 8.2 2.7 20.2 3.3 26.7 0.6 6.5 1.1 12.1 1.1 12.5 0 0.3 0.3 0.3 0.6-0.2 0.2-0.4 0.5 2.5 0.5 6.4 0 4 0.1 14.2 0.2 22.6 0.1 8.4 0.5 15.9 0.9 16.6q0.6 1.2-0.1 0.8c-0.4-0.2-0.7 3.1-0.7 9.1 0 5.2-0.3 15.1-0.7 21.9-0.4 6.8-1.2 18.1-1.8 24.9-0.6 6.8-1.9 18.7-2.9 26.3-1 7.7-2.8 20.3-4.2 28.2-1.3 7.8-3.6 19.8-5 26.6-1.4 6.9-3.1 14.9-3.8 17.8-0.8 3-1.4 5.9-1.4 6.4 0 0.6-1.4 6.7-3.2 13.6-1.8 6.8-5.3 19.5-7.9 28.1-2.5 8.6-7.2 23.3-10.4 32.7-3.2 9.4-7.5 21.7-9.7 27.4-2.2 5.7-6.5 16.8-9.6 24.6-3.2 7.8-9 21.4-12.8 30.2-4 8.9-12.1 26-18.1 38.1-6 12.1-14.3 28.3-18.5 36-4.2 7.6-11.1 19.9-15.4 27.4-4.3 7.4-11.3 19-15.4 25.6-4.1 6.6-11.4 17.8-16 24.9-4.7 7-11.9 17.5-15.9 23.3-4 5.8-7.5 10.5-7.7 10.5-0.2 0-1.7-2.8-3.3-6.2-1.6-3.5-5.4-12.5-8.5-20.1-3-7.6-7.7-19.8-10.3-27.1-2.6-7.2-6.8-19.4-9.4-27-2.5-7.6-7-22.2-9.9-32.4-3-10.2-7.4-26.6-9.9-36.3-2.5-9.8-6.6-27.3-9.2-38.8-2.5-11.5-6.2-29.2-8.1-39.1-2-10-4.7-24.5-6.2-32.1-1.4-7.6-5.7-32.3-9.6-54.8-4-22.5-8.6-48.7-10.4-58.3-1.7-9.7-5.2-27.8-7.7-40.5-2.6-12.6-6.4-30.7-8.6-40.2-2.3-9.5-6-24.4-8.3-33.2-2.4-8.9-4.4-16.5-4.6-17.1-0.2-0.9 1.5-1.1 11.6-1.6 6.6-0.3 21.8-1 33.7-1.6 12-0.6 29.8-1.6 39.5-2.2 13.5-0.9 18.5-1.4 20.3-2.3 1.4-0.6 3.2-2.3 4.1-3.7 1-1.6 1.7-3.6 1.7-5.3 0-1.8-0.7-3.8-1.7-5.3-0.9-1.4-2.7-3.1-4.1-3.9-2.4-1.3-3.1-1.4-15.7-0.6-7.2 0.5-18.6 1.2-25.2 1.6-6.6 0.3-23 1.2-36.3 1.8-13.3 0.6-36.4 1.4-51.3 1.6-14.9 0.3-36.5 0.3-48 0-11.6-0.2-23.2-0.8-26-1.2-2.8-0.4-5.1-0.9-5.1-1.2-0.2-0.2 1.3-3.1 3-6.5 1.8-3.5 7-11.9 11.6-18.7 4.5-6.9 14.1-20.2 21.1-29.6 7.1-9.4 18.4-24.1 25.4-32.7 6.9-8.6 17.2-21.3 22.9-28.1 7.2-8.6 10.7-13.4 11.3-15.3 0.6-2.2 0.6-3.5 0-5.4-0.4-1.3-1.8-3.4-3-4.6-2-1.9-2.7-2.1-6.8-2.1-4.2 0-4.7 0.1-7.1 2.5-1.4 1.3-7.6 8.5-13.7 16-6.1 7.5-11.5 14-12 14.6-0.8 0.9-1.5-0.2-5-7.1-2.2-4.5-6.6-12.8-9.7-18.5-3.1-5.7-8.5-14.8-11.8-20.3-3.2-5.5-8.6-14-11.7-18.9-3.1-4.9-9.4-14.2-13.9-20.6-4.5-6.5-10.5-14.9-18.6-25.7l1.7-4.4c0.9-2.5 3.4-7.9 5.4-12.3 2-4.3 4.9-10.9 6.5-14.7 1.5-3.9 3.5-10.1 4.5-13.9 1-3.8 1.8-8.7 1.9-10.9 0-3-0.4-4.2-1.5-5.3-1.4-1.3-1.7-1.4-4.5-0.5-1.7 0.5-7.5 3.3-13 6.2-5.5 2.9-11.9 5.9-14.2 6.7-2.4 0.8-6.1 1.5-8.2 1.5-2.9 0-4.5-0.4-6.4-1.7-1.3-0.8-2.9-2.4-3.4-3.3-0.5-1.1-0.7-3-0.5-4.7 0.2-1.5 1.6-6.5 3.1-11 1.5-4.5 3.2-9.9 3.6-12.1 0.5-2.1 0.8-6.8 0.7-10.4-0.2-5.3-0.6-7-1.8-8.6-0.8-1.1-2.9-2.8-4.6-3.8-2.9-1.6-4.1-1.7-12.8-2-6.6-0.2-12 0.1-17.4 1-4.3 0.6-13.2 2.3-19.8 3.6-6.5 1.4-12.3 2.2-12.8 1.9-0.4-0.3-5.7-4.2-11.5-8.8-5.9-4.6-16.5-12.3-23.5-17.2-7.1-4.9-19.2-12.8-27.1-17.5-7.8-4.7-20.1-11.6-27.4-15.3-7.2-3.6-17.6-8.6-23.1-10.9-5.5-2.4-15-6.3-21-8.6-6.1-2.4-15.5-5.7-21-7.5-5.5-1.8-14.8-4.6-20.6-6.1-6-1.6-15.3-3.9-20.9-5.1-5.6-1.1-15.8-3-22.8-4.2-6.9-1.1-18.3-2.6-25.4-3.3-7-0.6-15.4-1.3-24.2-2.2l5.7-5.6c3.1-3 8.8-8.2 12.5-11.4 3.7-3.2 10.7-8.8 15.6-12.5 4.9-3.7 12.8-9.1 17.5-12.1 4.7-3 12.7-7.8 17.8-10.7 5-2.8 14-7.4 19.9-10.1 5.9-2.7 14.5-6.5 19.2-8.3 4.7-1.9 13.5-5 19.6-7 6-2 16-4.9 22-6.5 6.1-1.5 15.3-3.6 20.3-4.6 5.1-1 13.8-2.4 19.2-3.2 5.5-0.8 13.6-1.8 17.8-2.2 4.3-0.4 11.9-1.1 16.8-1.4 4.9-0.3 23.9-0.5 42.3-0.4zm661.3 92.5c4.3 0 6.3 0 4.3 0.2-2 0.1-5.5 0.1-7.9 0-2.3-0.2-0.7-0.2 3.6-0.2zm-64.1 0.7c4.3 0 6.3 0.1 4.3 0.2-2 0.1-5.5 0.1-7.8 0-2.4-0.1-0.7-0.2 3.5-0.2zm-64.4 0.7c4.1 0 5.7 0.1 3.6 0.2-2.2 0.2-5.6 0.2-7.5 0-2-0.1-0.2-0.2 3.9-0.2zm-61.6 0.7c4 0 5.7 0.1 4 0.2-1.8 0.2-5 0.2-7.2 0-2.1-0.1-0.7-0.2 3.2-0.2zm-59.7 0.7c3.9 0 5.6 0.1 3.9 0.2-1.8 0.2-5 0.2-7.2 0-2.1-0.1-0.7-0.2 3.3-0.2zm-59.8 0.7c3.9 0 5.7 0.1 3.9 0.2-1.8 0.2-5 0.2-7.1 0-2.2-0.1-0.8-0.2 3.2-0.2zm-461.5 472.3l2.2 1.3c1.3 0.8 10 5.9 19.4 11.2 9.4 5.4 22.3 13 28.8 16.7 6.5 3.8 16.2 9.6 31.7 19.2l-11.4 0.5c-6.3 0.3-26.9 0.6-45.9 0.6-23.6 0-37.5-0.3-43.8-1-5.1-0.5-9.7-1-10.2-1.2-0.6-0.2 0.1-2.3 2.4-6.7 1.7-3.5 7-12.1 11.6-19 4.7-7 10-14.6 11.8-17.1z"/><path fill-rule="evenodd" class="e" d="m704.4 92.1c1.1 0 3.2 0.6 4.6 1.4 1.3 0.8 3 2.4 3.7 3.5 0.6 1.3 1.2 3.6 1.2 5.3 0 1.7-0.6 3.9-1.4 5.4-0.8 1.2-2.3 2.8-3.4 3.5-1.1 0.7-3.2 1.2-4.7 1.2-1.6-0.1-3.9-0.6-5.2-1.2-1.2-0.7-2.9-2.3-3.7-3.5-1.1-1.8-1.4-3.3-1.2-6.1 0.1-2.3 0.8-4.5 1.6-5.7 0.9-1.1 2.5-2.4 3.9-2.9 1.3-0.5 3.4-0.9 4.6-0.9z"/><path fill-rule="evenodd" class="f" d="m539.2 217.4c40.7 0 67.1 0.2 69.7 0.6 2.4 0.4 5.5 1.5 7 2.5 1.4 1 3.5 3.2 4.6 4.8 1.5 2.2 2 4.1 2.2 7.3 0.2 3.3-0.1 5.3-1.4 8.3-0.8 2.1-3.3 6.5-5.4 9.8-2.1 3.2-5.9 8.1-8.6 10.7-2.6 2.7-7.2 6.6-10.1 8.7-2.9 2-8.2 5.2-11.8 7-3.5 1.8-9.6 4.3-13.5 5.6-3.9 1.3-10.2 2.9-13.9 3.6-4.6 0.8-10.4 1.3-18.1 1.3-7.7 0-13.6-0.5-18.2-1.3-3.7-0.7-10-2.3-13.9-3.6-3.9-1.3-9.5-3.6-12.4-5.1-2.9-1.5-7.6-4.2-10.3-6-2.8-1.7-7.7-5.8-11-9-3.3-3.1-7.6-8.2-9.8-11.4-2-3.1-4.5-7.7-5.5-10.2-1.1-2.4-1.9-5.5-1.9-6.8 0-1.2 0.4-3.4 0.7-4.8 0.5-1.3 1.5-3.6 2.5-5 1-1.3 2.8-3.2 4.1-4.1 1.3-0.9 3.9-1.9 5.9-2.2 1.9-0.4 33-0.7 69.1-0.7z"/><path fill-rule="evenodd" class="g" d="m1919.2 308c2.5 0.1 6.9 1 9.9 1.8 2.9 0.9 7.7 2.9 10.5 4.7 2.9 1.7 7.5 5.4 10.3 8.4 2.7 2.9 6.2 7.7 7.6 10.6 1.5 3 3.2 7.9 3.9 11.1 0.7 3.1 1.2 7.5 1.2 9.8 0 2.2-0.7 7.1-1.6 10.7-1 3.6-3 8.9-4.7 11.8-1.6 3-5.2 7.6-8 10.3-2.8 2.7-7.5 6.2-10.7 7.9-3.1 1.7-7.1 3.4-8.9 3.9-1.8 0.4-54.2 9.5-116.3 20.1-62.2 10.7-113.1 19.4-113.2 19.5-0.1 0.1-79.4 203.2-176.3 451.4-97 248.2-176.3 451.8-176.3 452.5-0.1 0.8 21.6 18.3 55.6 45 30.6 24 59.3 46.8 63.8 50.7 4.5 3.8 11 9.7 14.4 13.1 3.3 3.4 8.5 9.1 11.4 12.7 3 3.6 8 10.4 11.1 15.2 3.2 4.7 7.8 12.8 10.4 18 2.5 5.2 6 13.7 7.8 18.8 1.8 5.2 4 13 4.9 17.2 0.9 4.3 2.2 11.7 2.7 16.4 0.6 5.2 0.8 13 0.5 19.7-0.2 6-1.2 14.9-2 19.6-1.1 5.7-2.7 11-4.8 15.6-1.8 3.8-5.4 10.6-8.1 15.1-2.6 4.5-7.3 11.7-10.4 16-3.2 4.3-9.9 11.9-14.9 16.9-5 4.9-12.7 11.6-17.2 14.8-4.5 3.2-12.1 7.9-16.8 10.3-4.8 2.5-10.8 5.3-18.1 8.4l6.8 2c3.7 1.2 9.9 3.7 13.7 5.6 3.9 1.9 10.1 5.8 14 8.7 3.8 2.8 9.3 7.7 12.2 10.8 3 3.1 7 8 9 10.9 2 3 5 8.1 6.8 11.5 1.6 3.4 4 8.9 5.1 12.3 1.2 3.3 2.7 9.2 3.4 13.1 0.7 3.8 1.4 11.4 1.4 16.8 0 6.1-0.5 12.6-1.4 17.2-0.8 4-2.4 9.9-3.6 13.1-1.1 3.1-3.5 8.5-5.1 11.9-1.7 3.3-4.8 8.5-6.9 11.4-2 3-6.8 8.4-10.5 12.1-3.7 3.8-9.6 8.7-12.9 11.1-3.4 2.3-9.8 5.9-14.3 8-4.5 2.1-11.2 4.7-14.8 5.7-3.6 0.9-10.6 2-15.5 2.4-5.6 0.5-12.5 0.5-18 0-5-0.4-12.2-1.6-16-2.8-3.9-1-9.9-3.3-13.5-5-3.6-1.6-9.7-5-13.5-7.6-3.9-2.5-10.1-7.7-14-11.6-3.8-3.8-9.2-10.3-11.8-14.3-2.7-4.1-6.3-10.5-7.9-14.4-1.7-3.8-3.8-9.9-4.7-13.5-0.9-3.6-2.2-10.6-2.7-15.5-0.8-7-0.8-11 0-17.6 0.5-4.8 1.8-12 3-16 1.1-4.1 3.9-11.1 6.1-15.6 2.2-4.5 6.4-11.3 9.3-15.1 2.9-3.9 7.8-9.4 10.9-12.2 3.1-3 8.1-7 11.2-9 3-2.1 5.4-3.9 5.3-4-0.1 0-177.7 0.4-394.5 1-216.8 0.7-394.4 1.3-394.7 1.2-0.2 0 2 1.7 4.9 3.8 3 2.1 7.9 6.5 11.1 9.7 3.2 3.2 7.8 9 10.3 12.8 2.5 3.8 5.6 8.7 6.7 11 1.1 2.2 3.1 7.2 4.5 11.1 1.3 3.8 3.1 10.5 3.8 14.7 0.7 4.3 1.3 11.6 1.3 16.4 0 4.7-0.6 11.7-1.2 15.5-0.8 3.9-2.1 9.4-3.1 12.3-0.9 3-2.7 7.7-4 10.7-1.4 2.9-4.5 8.3-6.9 12-2.5 3.8-7.1 9.6-10.3 13.1-3.3 3.5-9 8.5-12.6 11.2-3.6 2.6-10.2 6.6-14.7 8.8-4.5 2.1-11.5 4.9-15.6 6.1-4 1.1-11.3 2.4-16.3 2.8-5.4 0.5-12.6 0.5-17.6 0.1-4.8-0.4-11.8-1.5-15.6-2.5-3.9-1-10.8-3.6-15.6-5.9-4.7-2.2-10.9-5.8-13.9-7.9-2.9-2-7.8-6.1-11-9.1-3.1-2.9-7.8-8.3-10.5-11.9-2.6-3.6-6.5-9.8-8.5-13.8-1.9-3.9-4.5-10-5.6-13.5-1.2-3.4-2.6-9.7-3.3-13.7-0.6-4.1-1.2-10.9-1.2-15.1 0-4.3 0.6-11.2 1.2-15.2 0.8-4.1 2.2-10.1 3.4-13.5 1.1-3.3 3.6-9.1 5.4-12.7 1.8-3.6 4.8-8.7 6.6-11.4 1.9-2.8 6-7.7 9.2-11 3.1-3.3 7.9-7.7 10.6-9.8 2.7-2 5.4-4 5.8-4.4 0.5-0.4-15.3-0.6-37.7-0.5-35.6 0.3-38.9 0.2-43.4-1.3-2.7-0.8-7-2.5-9.6-3.8-2.6-1.3-7.2-4.7-10.1-7.6-3.1-2.8-6.9-7.4-8.6-10.4-1.8-2.9-3.9-8.2-4.9-11.8-0.9-3.7-1.6-8.8-1.6-11.5 0-2.7 0.6-7.3 1.3-10.3 0.7-2.9 2.6-7.9 4.3-11 1.8-3.4 5.1-7.9 8.3-11.1 3.3-3.3 7.6-6.5 11.1-8.3 3.2-1.7 8.1-3.6 11-4.3 4.8-1.1 53.4-1.4 441.4-2.5 239.8-0.7 464.4-1.3 499.1-1.5 61.5-0.3 63.2-0.3 69.8-2 3.7-1 8.9-3 11.6-4.3 2.7-1.4 6.5-4 8.5-6 1.8-1.9 4.3-5.3 5.4-7.5 1.1-2.3 2.5-6 3.1-8.2 0.5-2.3 1-7 1-10.6 0-3.8-0.7-9.5-1.6-13.4-0.9-3.7-2.9-9.4-4.5-12.7-1.6-3.2-4.3-8.3-6.3-11.2-1.9-2.9-6.1-7.9-9.3-11.1-3.1-3.1-8.1-7.6-11-9.8-3-2.2-40.5-31.7-161.7-127.1l-404.9-32.1c-238.7-19-406.8-32.7-409.5-33.3-2.4-0.7-6.8-2.4-9.8-3.8-3.6-1.7-7.3-4.5-11.5-8.7-4.7-4.7-7-7.8-9.2-12.4-1.6-3.4-3.3-8.2-3.8-10.6-0.5-2.5-14.9-120.7-32.1-262.5-18.3-152.1-31.2-260.8-31.2-264.9 0-5.4 0.5-8.4 2.2-13.1 1.1-3.4 3.3-8.1 4.8-10.5 1.4-2.4 4.5-6.1 6.7-8.4 2.3-2.2 6.3-5.3 9-6.9 2.7-1.7 7.3-3.7 10.3-4.6 3.3-1 8.6-1.8 14.3-2.1 5-0.2 261-6.7 569.1-14.3 308-7.7 560.1-14 560.2-14.1 0.2-0.1 26.2-66.9 58-148.4 31.8-81.5 58.9-150.6 60.3-153.5 1.5-2.9 4.6-7.3 6.9-9.8 2.3-2.5 6.2-5.8 8.6-7.4 2.5-1.6 6.7-3.7 9.5-4.7 3.4-1.2 49.4-9.4 132.2-23.5 70-11.9 128.5-21.8 130.1-21.9 1.5-0.2 4.9-0.2 7.3 0zm-586.5 444.7l-10.4 0.1v163h84.8c44.9-115.2 59.6-152.6 61.5-157.5l3.6-8.8c-21.3 0.2-50.3 0.9-78.2 1.8-28 0.7-55.5 1.4-61.3 1.4zm-192.8 4.9l-6.7 0.1v158.1h156.4v-162.2c-2.9 0.2-35.1 1.1-73.3 2.2-38.3 0.9-72.6 1.8-76.4 1.8zm-193.7 5h-2.2v153.2h156.4v-157.3c-14.9 0.2-49.1 1.1-85.5 2.2-36.6 1-67.4 1.9-68.7 1.9zm-191.2 4.9c0 0-0.1 33.4-0.1 74.2v74.1h156.4v-152.3c-16.2 0.1-51.3 1-88.5 2-37.1 1.1-67.6 1.9-67.8 2zm-178.9 4.1l-10.4 0.1v144.1h156.4v-147.4c-22.5 0.1-53 0.9-82.3 1.7-29.3 0.7-57.9 1.5-63.7 1.5zm-174.7 4.5c-0.1 0 3.5 30.6 8 68 4.5 37.4 8.4 68.8 8.5 69.8l0.4 1.9h114.7v-143.3c-3.5 0.1-33.1 1-68 1.9-34.9 0.9-63.5 1.6-63.6 1.7zm29.6 246.5c4.8 39.2 8.6 71.5 8.6 71.9 0 0.4 21 0.6 46.7 0.6h46.7v-146.6c-107.4 0-110.6 0.1-110.6 1.4 0 0.8 3.9 33.5 8.6 72.7zm134.7 72.5h156.4v-146.6h-156.4zm189.2 0h156.4v-146.6h-156.4zm189.1 0h156.4v-146.5h-156.4zm189.2 0h156.4v-146.6h-156.4zm189.1 0l15.2-0.4c44-113 56.9-145.9 56.9-146 0-0.1-16.2-0.2-36-0.2h-36.1zm-878.4 35c0.2 1.3 2.9 23.2 6 48.9 3.1 25.7 5.6 46.8 5.6 47 0.1 0 15.9 1.4 35.3 3 19.3 1.5 36.8 3 38.7 3.3l3.5 0.4v-104.9h-89.5zm121.8 51.4c0 53.1 0 53.6 1.7 53.6 0.9 0 34.1 2.6 73.8 5.8 39.7 3.2 74.2 5.9 76.6 6.1l4.3 0.4v-119.5h-156.4zm189.6 68.7c116.1 9.2 151.1 11.9 152.9 11.9h3.1v-134.3h-156.5zm188.7 15.2c2.9 0 36.1 2.6 75.8 5.7 39.6 3.2 74 6 76.4 6.2l4.2 0.4v-149.8h-156.4zm189.2-61.4c0 41.8 0.3 76.1 0.6 76.1 0.4 0 26.2 2.1 57.5 4.5 31.4 2.5 59.1 5 61.8 5.7 2.7 0.6 5.4 1.3 6.1 1.4 0.7 0.2 5.6-11.4 15.7-37.2l14.7-37.4v-89.3h-156.4zm-631.7 525.6c-3.5 1.8-8.1 5.4-11.9 9.1-3.8 3.6-7.5 8.3-9.2 11.5-1.6 2.9-3.8 7.7-4.7 10.6-1.1 3.4-1.9 8.4-2.2 13.6-0.3 5.8-0.1 9.9 0.8 14.3 0.8 3.3 2.8 9.1 4.5 12.7 1.8 3.6 4.8 8.5 6.8 10.9 2 2.3 5.6 5.9 8.1 7.8 2.5 2 6.4 4.5 8.6 5.6 2.3 1.2 6.7 3 9.8 4 4.7 1.6 7.4 1.9 15.6 1.9 7.1 0 11.2-0.4 14.7-1.5 2.7-0.8 7.1-2.6 9.8-3.9 2.7-1.4 6.8-3.8 9-5.5 2.2-1.6 5.8-5 8-7.4 2.3-2.5 5.5-7.5 7.3-11.1 1.8-3.6 3.7-8.8 4.5-11.5 0.6-2.7 1.2-8.4 1.3-12.7 0-4.2-0.4-9.6-0.9-11.8-0.6-2.3-2-6.5-3.1-9.4-1.2-3-3.3-7.3-4.8-9.5-1.5-2.3-4.5-5.9-6.6-8.1-2.2-2.2-6-5.4-8.5-7-2.5-1.7-6.3-3.8-8.6-4.8-2.3-0.9-6.3-2.3-9-3-3-0.7-8.2-1.2-13.1-1.2-5.5 0.1-10.3 0.6-14.4 1.7-3.3 0.9-8.7 2.9-11.8 4.7zm891.7-1.9c-2.7 1.1-7.2 3.7-9.9 5.6-2.7 1.9-6.6 5.5-8.7 8-2.2 2.4-5.4 7.2-7.2 10.5-1.7 3.4-3.8 8.4-4.5 11.1-1.2 3.6-1.6 7.5-1.5 14.7 0 8.4 0.3 10.8 2.2 16.4 1.1 3.6 3.5 8.9 5.2 11.8 1.8 2.9 5.8 7.8 9.3 11.1 3.4 3.2 8.3 6.9 11 8.3 2.7 1.5 7.7 3.5 11 4.5 5 1.6 8 2 15.6 2 7.6 0 10.6-0.4 15.5-2 3.5-1 8.6-3.2 11.5-4.8 3.1-1.7 8-5.6 11.5-9.1 3.6-3.6 7.5-8.5 9.2-11.6 1.6-2.9 3.8-8.1 4.8-11.4 1.6-5.1 1.9-7.9 1.8-15.6 0-7.8-0.5-10.5-2.2-15.9-1.1-3.6-3.5-9-5.2-11.9-1.7-3-5.5-7.7-8.5-10.7-3-2.9-7.4-6.5-9.9-8-2.3-1.4-7.1-3.6-10.5-4.8-5.2-1.8-7.7-2.2-16.4-2.5-6.7-0.1-11.7 0.2-14.7 0.9-2.5 0.7-6.7 2.2-9.4 3.4zm-864.3 21.1c5.6 0.2 7.8 0.6 11.7 2.4 2.6 1.3 6.4 3.9 8.3 6 2.1 2 4.7 5.5 5.8 7.9 1.1 2.4 2.3 6.6 2.8 9.3q0.8 4.9 0 9.4c-0.5 2.4-2.1 6.7-3.5 9.3-1.6 3.1-4.1 6.1-6.7 8.1-2.2 1.8-5.7 4-7.8 5-2.9 1.3-5.2 1.7-11.8 1.7-7.6 0-8.6-0.2-13.2-2.6-2.7-1.4-6.6-4.4-8.7-6.7-2.1-2.3-4.7-6-5.7-8.1-1.4-3.1-1.8-5.4-1.8-12 0-6.8 0.3-8.9 1.8-12.2 0.9-2.1 3.4-5.5 5.3-7.7 1.9-2 4.9-4.6 6.7-5.8 1.8-1.1 4.7-2.6 6.5-3.2 2-0.5 6.3-1 10.3-0.8zm887.7 0c5.9 0.2 7.7 0.5 12.3 2.7 3.4 1.7 6.6 4.1 9.2 7 2.1 2.4 4.7 6.4 5.7 8.9 1.1 3.2 1.7 6.4 1.7 11.1 0 4.9-0.4 7.7-1.9 11.4-1.4 3.4-3.4 6.2-6.3 9.2-2.5 2.4-6.5 5.3-9.1 6.5-4.1 2-5.7 2.3-12.5 2.3-6.6 0-8.5-0.3-12.3-2.1-2.5-1.1-6.2-3.7-8.4-5.7-2.4-2.2-5-5.8-6.6-9-2.3-4.7-2.6-6-2.5-12.6 0-6.2 0.3-8.2 2-11.9 1.2-2.5 3.5-6.2 5.3-8.1 1.8-2 4.9-4.5 6.9-5.8 2.1-1.1 5-2.6 6.6-3.1 1.6-0.5 6-0.9 9.9-0.8z"/></g></svg>