<svg version="1.2" xmlns="http://www.w3.org/2000/svg" viewBox="0 0 500 606" width="500" height="606"><defs><clipPath clipPathUnits="userSpaceOnUse" id="cp1"><path d="m0 0h500v606h-500z"/></clipPath></defs><style>.a{fill:#eeb5eb}.b{fill:#98a8f8}.c{fill:#faf7f0}.d{fill:#bccef8}.e{fill:#703e23}.f{fill:#ffa4ba}.g{fill:#d7e0eb}</style><g clip-path="url(#cp1)"><path fill-rule="evenodd" class="a" d="m19.8 517.3c1.6 0.1 3.6 0.4 4.5 0.6 0.9 0.2 2.3 0.8 3.2 1.2 0.8 0.4 2.3 1.5 3.3 2.5 1.2 1.2 2.1 2.4 2.8 3.8 0.5 1.1 1.2 2.8 1.5 3.8 0.3 1 0.7 3 1 4.4 0.2 1.4 0.4 3.5 0.4 6.8l-0.9 0.1c-0.5 0.1-3 0.3-5.6 0.6-2.6 0.2-5 0.4-5.4 0.4-0.7 0-0.7-0.1-0.9-2.7 0-1.4-0.3-3.4-0.5-4.3-0.2-1-0.6-2.2-0.9-2.7-0.3-0.6-0.9-1.4-1.4-1.8-0.6-0.6-1.1-0.8-2.1-0.8-1.1 0-1.4 0.2-2.3 1.1-0.5 0.5-1.1 1.5-1.3 2-0.2 0.6-0.4 2.3-0.5 3.7-0.1 1.9 0 3.1 0.3 4.4 0.3 1 0.9 2.7 1.4 3.8 0.6 1.1 1.4 2.8 2 3.7 0.5 0.9 2.6 4.1 4.7 7.1 2.1 3 4.6 6.7 5.5 8.3 1 1.6 2.4 3.9 3.2 5.3 0.8 1.4 1.8 3.4 2.3 4.6 0.5 1.2 1.3 3.6 1.7 5.2 0.7 2.8 0.7 3.2 0.6 7.5-0.1 3.3-0.3 5.1-0.7 6.8-0.3 1.3-1.1 3.3-1.6 4.5-0.6 1.2-1.7 2.9-2.5 3.7-0.7 0.8-2 1.9-2.8 2.4-0.8 0.6-2.2 1.2-3.1 1.6-0.9 0.3-2.9 0.7-4.4 0.9-2.1 0.3-3.3 0.3-5.5 0-1.4-0.2-3.6-0.6-4.6-1-1-0.3-2.5-1-3.3-1.5-0.7-0.5-1.9-1.5-2.5-2.3-0.7-0.7-1.7-2.1-2.1-3-0.5-0.9-1.2-2.4-1.5-3.3-0.3-1-0.8-2.8-1-4.1-0.2-1.3-0.5-4.1-0.8-10.2h0.7c0.4 0 3.2-0.2 6.3-0.5 3.1-0.3 5.7-0.5 5.8-0.4 0.1 0.1 0.2 1.4 0.2 2.9 0 1.6 0.1 3.5 0.3 4.3 0.1 0.8 0.4 2.1 0.6 2.9 0.3 0.7 0.7 1.7 1 2.3 0.4 0.5 1 1.2 1.4 1.5 0.5 0.3 1.4 0.6 2.2 0.6 1.2 0.1 1.6 0 2.4-0.5 0.6-0.4 1.3-1.3 1.7-2.2 0.5-0.9 0.9-2.3 1.1-3.6 0.1-1.2 0.2-2.9 0.1-3.7-0.1-0.8-0.5-2.4-0.8-3.4-0.4-1.1-1.1-2.8-1.6-3.8-0.6-1.1-1.9-3.3-3-5-1.1-1.7-3.9-5.8-6.1-9.1-2.3-3.4-4.8-7.3-5.5-8.7-0.8-1.4-1.9-3.7-2.4-5.2-0.6-1.4-1.3-3.6-1.7-5-0.3-1.4-0.7-3.4-0.8-4.6-0.1-1.3 0-3.3 0.1-4.7 0.2-1.3 0.5-3.2 0.7-4.1 0.3-0.9 0.8-2.3 1.2-3.2 0.4-0.9 1.2-2.3 1.7-3.2 0.6-0.8 1.7-2.1 2.5-2.8 0.8-0.7 2.3-1.7 3.4-2.3 1-0.5 2.7-1 3.7-1.3 1.2-0.2 2.7-0.3 4.6-0.3zm467.1 0.7l13 0.2 0.1 86.8h-13.1zm-411.6 0v35.9h9.6l0.1-35.8 12.9-0.1 0.1 86.9h-13.1v-37.6h-9.6v37.6h-13.1l-0.1-43.3c0-23.8 0.1-43.3 0.2-43.4 0.1-0.2 3.1-0.2 13-0.2zm76.4 0.1l6.4 42.8c3.6 23.5 6.5 43 6.6 44h-12.5l-0.2-1c-0.1-0.6-0.6-4.6-2.2-16.7h-12.1l-0.6 4.6c-0.3 2.5-0.9 6.5-1.8 13.1h-6.3c-5.7 0-6.2 0-6.2-0.5 0-0.2 2.9-19.6 6.5-43.1 3.5-23.4 6.5-42.8 6.5-43 0.1-0.3 1.9-0.3 15.9-0.2zm-10.3 41.1c-1 7.8-1.9 14.3-1.9 14.3 0 0 1.9 0.1 4.3 0.1h4.2c-0.2-1.4-1.1-7.8-2.1-15.2-0.9-7.4-1.7-13.6-1.7-13.7 0-0.2-0.2-0.3-0.4-0.3-0.3 0-0.5 0.1-0.5 0.3 0 0.1-0.8 6.7-1.9 14.5zm48.2-41.3l8.4 0.1c6.9 0.2 8.8 0.3 10.9 0.8 1.7 0.3 3.4 0.9 4.9 1.7 1.6 0.8 2.9 1.7 4.2 2.9 1 1 2.2 2.6 2.8 3.6 0.5 0.9 1.3 2.7 1.6 3.8 0.4 1.1 0.9 3 1.2 4.2 0.2 1.2 0.4 4 0.6 6.3 0 2.4 0 5.2-0.2 6.8-0.2 1.5-0.6 3.9-1 5.3-0.4 1.4-1.2 3.5-1.8 4.6-0.6 1.2-1.7 2.7-4 5.1l4.1 20.8c2.2 11.5 4 20.9 4 20.9 0 0.1-2.9 0.1-12.9 0.1l-6.6-36.4-3.4-0.1v36.5h-12.9zm12.8 38.6c2.4-0.3 3.8-0.7 4.6-1 0.9-0.5 1.7-1.1 2.3-2 0.6-0.7 1.2-2.1 1.6-3.1 0.5-1.4 0.6-2.6 0.7-5.7 0.1-3 0-4.5-0.3-6-0.2-1.1-0.7-2.7-1.1-3.4-0.3-0.7-1-1.7-1.4-2.2-0.5-0.4-1.3-1-1.9-1.3-0.6-0.3-1.9-0.6-2.8-0.7l-1.7-0.1zm49-38.5h12.8v15.3c0 10.5 0.1 15.2 0.3 15 0.1-0.1 2.7-6.9 5.7-15.1 3.1-8.2 5.6-14.9 5.7-15.1 0-0.1 2.9-0.1 6.2-0.1 4.8 0 6.2 0 6.2 0.3 0 0.2-2.6 6.7-11.6 28.4l6.6 28.9c3.7 15.9 6.6 29 6.6 29.1 0 0.1-2.8 0.2-6.3 0.2-5.7 0-6.3-0.1-6.4-0.5-0.1-0.3-2.1-8.9-4.5-19.2-2.4-10.3-4.4-18.9-4.4-19.2 0-0.2-0.1-0.4-0.2-0.4-0.1 0-1 2-3.9 8.9v30.4h-12.8zm63.4-0.1l8 0.2c5.3 0.1 8.8 0.3 10.4 0.5 1.4 0.2 3.2 0.7 4 0.9 0.8 0.2 2.3 0.9 3.4 1.4 1.2 0.7 2.4 1.6 3.5 2.8 1.1 1.2 2 2.5 2.8 4.1 0.5 1.3 1.3 3.6 1.7 5.2 0.3 1.5 0.8 4.7 1.1 6.9 0.4 3.5 0.5 6.8 0.5 21.7 0 12.3-0.1 18.5-0.4 20.6-0.2 1.6-0.5 4.1-0.8 5.5-0.2 1.5-0.7 3.6-1.1 4.8-0.3 1.2-1 2.9-1.5 3.8-0.5 0.9-1.5 2.3-2.4 3.2-0.8 0.8-2.1 1.9-2.9 2.3-0.7 0.4-2.1 1.1-3.1 1.4-1 0.4-3.1 0.9-4.8 1.2-2.6 0.4-4.4 0.5-18.4 0.5zm12.7 74.4c3.1-0.4 4.5-0.8 5.2-1.1 0.7-0.3 1.5-1 1.9-1.5 0.3-0.6 0.8-1.7 1-2.5 0.2-0.8 0.5-2.6 0.8-3.8 0.2-1.7 0.3-7.3 0.3-22.2 0-18.4 0-20.1-0.5-22.6-0.3-1.5-0.7-3.2-0.9-3.7-0.2-0.6-0.7-1.3-1-1.8-0.3-0.4-1.1-1-1.7-1.3-0.6-0.2-1.9-0.5-3-0.6l-2-0.2zm79.6-74.3v13.4h-16.4v22.6h11.7v14.2h-11.7v23.4h16.4v13.4h-29.5l-0.1-43.3c0-23.8 0.1-43.4 0.2-43.5 0.1-0.1 6.8-0.2 29.4-0.2zm25.9 0h12.9v75h16.9v12h-29.8z"/><path fill-rule="evenodd" class="b" d="m356.6 23.1c0.9 0 2.1 0.1 2.7 0.2 0.5 0.1 1.4 0.4 1.9 0.6 0.5 0.2 1.4 0.8 1.8 1.3 0.5 0.5 1.1 1.2 1.3 1.6 0.2 0.4 0.4 1 0.6 1.5 0.1 0.4 0.2 1.4 0.1 2.2 0 1.1-0.1 1.7-0.5 2.4-0.2 0.6-5.6 10.2-12 21.5-6.3 11.3-17.8 31.8-25.6 45.6-7.7 13.8-14.1 25.1-14.3 25.3-0.1 0.1-0.2 0.1-0.2 0 0 0-0.1-1.4-0.3-3-0.1-1.7-0.5-4.7-0.8-6.7-0.3-2.1-0.8-5-1.1-6.5-0.3-1.6-1.1-5.2-1.8-8.1-0.8-3-1.8-6.9-2.3-8.8-0.6-1.9-1.5-5-2.2-6.9-0.6-2-1.7-5-2.3-6.6-0.7-1.7-1.8-4.5-2.5-6.2-0.7-1.7-2-4.4-2.7-6-0.8-1.5-2.1-4.1-2.9-5.6-0.8-1.5-2.3-4.1-3.2-5.7-1-1.6-2.5-3.9-3.3-5.2-0.9-1.2-2.3-3.2-3.3-4.5-0.9-1.3-2.4-3.1-3.2-4.1-0.8-1-2.5-2.9-3.7-4.3-1.2-1.3-3.3-3.4-4.6-4.6-1.3-1.2-3.2-2.9-4.3-3.8-1.2-0.9-2.7-2-3.4-2.5-0.8-0.5-1.7-1.1-2.1-1.3q-0.8-0.4-0.6-0.6c0.2 0 2.6-0.1 5.4-0.1 2.7 0 8.9 0 13.8-0.1 4.8-0.1 11.8-0.2 15.5-0.2 3.8 0 10.7-0.1 15.3-0.2 4.6 0 11.6-0.1 15.5-0.1 4-0.1 11.8-0.2 17.4-0.2 5.6-0.1 10.1-0.1 10.2-0.1 0-0.1 0.8-0.1 1.7-0.2zm-124.1 72.1c0.8 0 1.1 0.2 1.5 0.6 0.3 0.3 0.7 0.8 0.8 1.2 0.1 0.6 0.1 0.9 0 1.4-0.2 0.3-1.4 2-2.8 3.7-1.5 1.7-4.1 4.9-5.8 7.1-1.7 2.1-4.6 5.8-6.3 8.2-1.8 2.3-4.2 5.6-5.3 7.4-1.2 1.7-2.5 3.8-2.9 4.6-0.5 0.9-0.8 1.6-0.8 1.7 0 0 0.6 0.2 1.3 0.3 0.7 0.1 3.6 0.2 6.5 0.3 2.9 0.1 8.3 0.1 12 0 3.8-0.1 9.5-0.3 12.9-0.4 3.3-0.2 7.4-0.4 9-0.5 1.7-0.1 4.5-0.2 6.4-0.4 3.1-0.2 3.3-0.1 3.9 0.2 0.3 0.2 0.8 0.6 1 1 0.3 0.3 0.4 0.8 0.4 1.3 0 0.4-0.1 0.9-0.4 1.3-0.2 0.3-0.7 0.8-1 0.9-0.5 0.3-1.7 0.4-5.1 0.6-2.5 0.2-6.9 0.4-9.9 0.6-3 0.1-7.5 0.3-10.1 0.4-2.6 0.1-8.4 0.3-12.9 0.3-5.2 0-9.2-0.1-10.9-0.3-1.5-0.1-3.3-0.3-4-0.5-0.7-0.1-1.8-0.4-2.2-0.6-0.5-0.3-1.2-0.7-1.5-1.1-0.4-0.3-0.7-0.9-0.8-1.4-0.1-0.6-0.1-1.3-0.1-1.7 0.1-0.5 0.4-1.5 0.7-2.3 0.3-0.8 1.1-2.3 1.7-3.4 0.6-1 2-3.2 3.1-4.8 1.1-1.5 3-4.2 4.2-5.9 1.3-1.6 3.4-4.4 4.7-6 1.3-1.7 3.9-5 5.8-7.3 2-2.4 3.9-4.7 4.4-5.3 0.4-0.5 1-1 1.2-1.1 0.2-0.1 0.8-0.1 1.3-0.1zm80.5 41.8c0.2 0.1 6.5 3.6 14.1 7.8 7.5 4.2 13.9 7.9 14.2 8.1 0.3 0.3 0.6 0.8 0.8 1.2 0.1 0.5 0.2 1 0.1 1.5 0 0.7-0.2 1.1-0.7 1.6-0.3 0.3-1.3 1.1-2.2 1.6-1 0.6-8.3 5-16.5 9.8-8.1 4.8-14.8 8.8-14.9 8.8-0.1 0-0.1-0.1-0.1-0.1 0-0.1 0.1-0.7 0.3-1.5 0.2-0.8 0.6-2.8 1-4.5 0.3-1.7 0.9-4.7 1.2-6.7 0.4-1.9 0.8-5.1 1.1-7 0.2-1.9 0.6-4.9 0.7-6.6 0.2-1.7 0.4-4.6 0.5-6.3 0.1-1.7 0.1-4.1 0.1-5.4 0-2.2 0-2.4 0.3-2.3zm-162.5 3.1c0 0 1.1 0.6 4.4 2.5l-1.1 1.6c-0.7 0.9-2 2.9-3 4.4-1 1.4-2.1 3.3-2.5 4.2-0.6 1.1-0.8 1.6-0.6 1.6 0.1 0.1 1.3 0.2 2.5 0.3 1.6 0.2 5.1 0.3 10.5 0.3 4.5 0 9.7-0.1 14.8-0.3l3.7 2.4c2.3 1.5 3.5 2.5 3.4 2.5-0.2 0.1-0.7 0.1-1.1 0.1-0.5 0-1.8 0-3 0.1-1.3 0-3.8 0.1-5.7 0.2-1.9 0.1-7.1 0.2-11.5 0.2-4.4 0-9-0.1-10.3-0.2-1.2-0.1-2.8-0.2-3.5-0.3-0.8-0.1-1.9-0.4-2.5-0.5-0.6-0.2-1.4-0.6-1.7-1-0.4-0.3-0.8-0.9-1-1.3-0.2-0.5-0.3-1-0.3-1.9 0.1-0.7 0.3-1.7 0.4-2.2 0.2-0.5 0.7-1.5 1.2-2.4 0.4-0.8 1.1-2.1 1.6-2.9 0.5-0.8 1.5-2.4 2.3-3.5 0.8-1.1 1.8-2.5 2.1-3 0.4-0.5 0.8-0.9 0.9-0.9z"/><path fill-rule="evenodd" class="c" d="m115.9 23.8q0 0 0 0.2c-0.1 0.1 0.6 0.2 1.6 0.2 1 0.1 3 0.3 4.5 0.4 1.5 0.1 4.2 0.5 5.9 0.8 1.8 0.3 4.4 0.7 5.8 1.1 1.4 0.2 3.8 0.8 5.3 1.2 1.4 0.4 3.8 1.1 5.1 1.5 1.4 0.5 3.8 1.3 5.3 1.9 1.5 0.6 3.8 1.6 5.2 2.2 1.4 0.6 4 1.8 5.8 2.7 1.8 0.9 4.9 2.7 6.8 3.8 2 1.2 5 3.2 6.8 4.4 1.7 1.3 4.4 3.2 5.9 4.3 1.4 1.2 2.7 2.2 2.8 2.2 0.2 0.1 1.6-0.1 3.2-0.4 1.7-0.4 3.9-0.8 5-0.9 1.3-0.3 2.7-0.3 4.3-0.3 2.2 0.1 2.5 0.1 3.2 0.5 0.4 0.3 1 0.7 1.2 1 0.3 0.4 0.4 0.8 0.4 2.1 0 0.9 0 2.1-0.1 2.6-0.2 0.6-0.6 1.9-1 3.1-0.3 1.1-0.7 2.3-0.7 2.7-0.1 0.4 0 0.9 0.1 1.2 0.1 0.2 0.5 0.6 0.8 0.8 0.5 0.3 0.9 0.4 1.6 0.4 0.6 0 1.5-0.1 2.1-0.3 0.6-0.2 2.2-1 3.5-1.7 1.4-0.7 2.9-1.4 3.3-1.6 0.7-0.2 0.8-0.2 1.1 0.1 0.3 0.3 0.4 0.6 0.4 1.4-0.1 0.5-0.2 1.7-0.5 2.7-0.2 1-0.8 2.5-1.1 3.5-0.4 0.9-1.2 2.6-1.7 3.7-0.4 1.1-1.1 2.4-1.7 4.2l1.3 1.7c0.7 1 2.2 3.1 3.3 4.7 1.2 1.6 2.7 3.9 3.5 5.2 0.8 1.2 2.1 3.3 2.9 4.7 0.8 1.3 2.2 3.6 3 5.1 0.7 1.4 1.8 3.4 2.4 4.6 0.8 1.7 1 2 0.8 2.3-0.1 0.2-1.6 2-3.3 4.1-1.6 2.1-4 5.2-5.2 6.9-1.3 1.6-3.2 4.3-4.2 5.8-1.1 1.6-2.5 3.8-3.1 4.9-0.7 1-1.4 2.6-1.7 3.3-0.4 0.8-0.7 1.8-0.7 2.3-0.1 0.4-0.1 1.2 0.1 1.7 0.1 0.6 0.4 1.1 0.7 1.5 0.3 0.3 1 0.7 1.5 1 0.5 0.2 1.5 0.5 2.2 0.7 0.8 0.1 2.6 0.3 4 0.4 1.8 0.2 5.8 0.3 11.6 0.3 4.9 0 9.3-0.1 10.8-0.3l0.5 1.4c0.2 0.8 0.9 3.4 1.5 5.8 0.6 2.5 1.5 6.5 2.1 9 0.5 2.4 1.3 6.3 1.8 8.5 0.4 2.3 1.1 6.1 1.6 8.5 0.4 2.4 1.6 9 2.5 14.6 1 5.6 2.1 11.8 2.5 13.7 0.3 1.9 1 5.5 1.5 8 0.5 2.5 1.4 7 2 9.8 0.7 2.9 1.7 7.3 2.3 9.8 0.7 2.4 1.8 6.5 2.5 9 0.7 2.6 1.9 6.2 2.5 8.2 0.6 1.9 1.7 4.9 2.3 6.7 0.7 1.8 1.8 4.9 2.6 6.8 0.8 1.9 1.8 4.3 2.3 5.3 0.5 1.1 1.1 2.6 1.3 3.4 0.3 0.9 0.7 2.5 1 3.7 0.3 1.2 0.7 3.1 0.9 4.2 0.2 1.1 0.5 3.1 0.6 4.4 0.2 1.3 0.3 3.7 0.4 5.3 0.1 1.6 0 4.1-0.1 5.9-0.1 1.6-0.4 4.1-0.6 5.5-0.2 1.4-0.6 3.8-0.9 5.3-0.4 1.6-1.1 4.3-1.7 6-0.6 1.7-1.5 4.1-2 5.4-0.5 1.2-1.4 3.1-2 4.2-0.5 1.2-1.6 3.1-2.4 4.4-0.7 1.2-2 3.2-2.8 4.3-0.8 1.2-2.1 2.8-2.8 3.6-0.7 0.9-2.6 3-4.4 4.8-1.8 1.7-4.3 4-5.5 5-1.3 1-2.6 1.9-3 2.1-0.3 0.2-1.1 0.3-1.7 0.3-0.8 0-1.3-0.1-1.9-0.4-0.5-0.3-1.2-0.7-1.4-1.1-0.3-0.3-0.7-0.9-0.8-1.2-0.2-0.5-0.3-1.7-0.4-5.3-0.1-2.5-0.2-5.4-0.4-6.3-0.1-0.9-0.3-2.7-0.5-3.8-0.2-1.2-0.6-3.2-0.9-4.4-0.3-1.2-0.8-3.2-1.2-4.3-0.3-1.1-1-3.2-1.6-4.5-0.5-1.4-1.5-3.7-2.3-5.2-0.7-1.5-1.8-3.6-2.5-4.8-0.7-1.2-1.9-2.9-2.6-3.9-0.7-1-2-2.8-3-4-1-1.3-3-3.5-4.6-5-1.5-1.6-3.7-3.6-4.9-4.6-1.3-1-3.1-2.4-4.2-3.1-1.1-0.8-2.8-1.8-3.8-2.4-0.9-0.6-2.9-1.7-4.3-2.4-1.4-0.7-3.2-1.5-4.1-1.9-0.8-0.4-2.4-1-3.5-1.3-1-0.4-2.8-1-4-1.4-1.1-0.3-3.1-0.7-4.3-1-1.3-0.3-3.4-0.6-4.6-0.8-1.3-0.2-3.8-0.5-5.5-0.6-2.5-0.1-4.2-0.1-7 0-2 0.1-5.1 0.4-6.7 0.7-1.7 0.2-4.2 0.7-5.6 1-1.5 0.4-3.3 0.9-4.1 1.1-0.9 0.3-2.2 0.8-3.1 1.1-1.2 0.5-1.8 0.6-2.7 0.6-0.7 0-1.3-0.1-1.8-0.3-0.4-0.2-1-0.7-1.4-1.2-0.4-0.4-0.8-1-0.9-1.3-0.1-0.3-0.3-1-0.3-1.5 0-0.6 0.3-1.7 0.7-3.1 0.4-1.2 1.2-3.1 1.7-4.4 0.5-1.2 1.5-3.2 2.1-4.5 0.6-1.3 1.8-3.4 2.6-4.6 0.8-1.3 2.3-3.5 3.3-4.9 1-1.3 2.6-3.3 3.4-4.2 0.9-1 2.5-2.6 3.5-3.7 1-1 2.6-2.4 3.5-3.2 1-0.8 2.7-2.2 4-3.1 1.2-0.9 3.2-2.2 4.3-2.9 1.2-0.7 3.1-1.8 4.4-2.4 1.2-0.7 3.3-1.6 4.7-2.2 1.3-0.6 3.1-1.3 3.9-1.5 0.8-0.3 2.6-0.9 3.9-1.2 1.4-0.4 3.5-0.9 4.7-1.2 1.2-0.3 3.2-0.6 4.4-0.7 1.1-0.2 3.1-0.4 4.4-0.5 1.3-0.1 3.3-0.2 4.4-0.2 1.8 0 2.1 0 2.3-0.3 0-0.1 0.5-1.4 1-2.8 0.5-1.3 1.1-3.4 1.4-4.5 0.3-1.1 0.8-3 1-4.2 0.2-1.2 0.4-3.4 0.4-5 0.1-2.1 0-3.5-0.2-5.3-0.1-1.3-0.5-3.3-0.8-4.3-0.2-1.1-0.8-2.8-1.1-3.7-0.4-0.9-1.1-2.6-1.7-3.6-0.5-1.1-1.6-3-2.4-4.2-0.8-1.3-2.3-3.2-3.4-4.5-1-1.2-2.9-3.3-4.3-4.6-1.4-1.3-3.4-3.2-4.6-4.2-1.2-1-2.9-2.4-3.9-3.1-1-0.8-2.5-1.9-3.4-2.6-0.9-0.6-1.7-1.1-1.8-1.1q0 0.1 0 0c0.1-0.1-1.1-1-2.6-2-1.5-0.9-4.2-2.7-6-3.8-1.8-1.1-4.6-2.9-6.3-3.8-1.7-1-4.9-2.9-7.2-4.2-2.3-1.3-5.8-3.3-7.7-4.4-2-1.1-5.4-3.1-7.6-4.4-2.2-1.3-5.5-3.3-7.4-4.5-1.9-1.2-4-2.4-4.6-2.8-0.6-0.4-2.5-1.7-4.2-2.9-1.8-1.3-4.3-3.1-5.6-4.1-1.4-1-3.4-2.7-4.7-3.7-1.2-1.1-3.1-2.9-4.3-4-1.1-1.1-2.9-3-3.8-4.1-1-1.1-2.2-2.7-2.7-3.4-0.5-0.7-1.4-2-1.9-2.8-0.5-0.8-1.5-2.5-2.2-3.9-0.7-1.4-1.7-3.5-2.1-4.7-0.5-1.2-1.2-3.1-1.6-4.3-0.4-1.2-1-3.3-1.4-4.6-0.3-1.3-0.8-3.5-1-4.8-0.2-1.4-0.6-3.7-0.7-5.2-0.2-1.6-0.3-4.3-0.3-6.5 0-2.2 0.1-5 0.3-6.4 0.1-1.4 0.4-3.5 0.6-4.6 0.2-1.1 0.6-3.1 1-4.5 0.3-1.4 0.9-3.5 1.3-4.7 0.4-1.3 1.1-3.1 1.5-4.2 0.5-1.1 1.6-3.4 2.5-5.2 0.9-1.9 2.5-4.5 3.7-6.3 1.1-1.7 2.6-3.9 3.4-4.8 0.8-1 2.2-2.7 3.2-3.8 1.1-1.2 1.9-2.1 2-2.1zm196.4 110.2c0 0.5 0 1.2 0 1.6 0 0.4 0 0 0-0.9 0-0.9 0-1.2 0-0.7z"/><path fill-rule="evenodd" class="d" d="m182.3 0c7 0 9 0.1 12.2 0.4 2.1 0.2 4.2 0.5 4.6 0.5 0.5 0.1 2.1 0.3 3.7 0.5 1.7 0.3 4.8 0.9 7.1 1.3 2.2 0.4 5.6 1.2 7.5 1.7 1.8 0.5 4.9 1.3 6.8 1.9 1.9 0.6 4.2 1.3 5.1 1.6 0.9 0.4 3 1.2 4.8 1.9 1.8 0.6 4.1 1.6 5.3 2.1 1.1 0.5 3.6 1.7 5.6 2.6 1.9 1 4.6 2.4 6 3.2 1.4 0.7 3.8 2.2 5.4 3.2 1.7 1 3.4 2.1 4 2.5 0.5 0.4 1.6 1.1 2.5 1.7 0.8 0.5 1.9 1.2 2.5 1.6 0.5 0.4 1.6 1.3 2.4 2 0.9 0.6 2.6 2.1 3.9 3.3 1.2 1.1 3.4 3.2 4.7 4.7 1.3 1.5 3.1 3.5 3.9 4.5 0.8 1 2.3 2.8 3.2 4.1 1 1.2 2.4 3.3 3.3 4.5 0.8 1.3 2.3 3.6 3.3 5.2 0.9 1.6 2.4 4.2 3.2 5.7 0.8 1.5 2.1 4 2.9 5.6 0.7 1.6 1.9 4.3 2.7 6 0.7 1.7 1.8 4.5 2.5 6.1 0.6 1.7 1.7 4.7 2.3 6.6 0.7 2 1.6 5.1 2.2 7 0.5 1.9 1.5 5.8 2.3 8.7 0.7 3 1.5 6.6 1.8 8.1 0.3 1.5 0.8 4.5 1.1 6.5 0.3 2.1 0.7 5.1 0.8 6.7 0.2 1.6 0.3 3 0.3 3.1 0 0.1 0.1 0.1 0.1 0 0.1-0.1 0.1 0.6 0.1 1.6 0.1 1 0.1 3.6 0.1 5.7 0 2.1 0.1 3.9 0.2 4.1q0.2 0.3 0 0.2c-0.1 0-0.2 0.8-0.2 2.3 0 1.3-0.1 3.8-0.1 5.5-0.1 1.7-0.3 4.5-0.5 6.2-0.1 1.7-0.5 4.7-0.7 6.6-0.3 1.9-0.7 5.1-1.1 7.1-0.3 1.9-0.9 4.9-1.2 6.6-0.4 1.7-0.8 3.8-1 4.5-0.2 0.7-0.3 1.5-0.3 1.6 0 0.1-0.4 1.7-0.8 3.4-0.5 1.7-1.4 4.9-2 7-0.6 2.2-1.8 5.9-2.6 8.2-0.8 2.4-1.9 5.5-2.4 6.9-0.6 1.4-1.7 4.2-2.4 6.1-0.8 2-2.3 5.4-3.2 7.6-1 2.2-3 6.5-4.5 9.5-1.6 3.1-3.6 7.1-4.7 9-1 2-2.8 5-3.8 6.9-1.1 1.9-2.9 4.8-3.9 6.4-1 1.7-2.8 4.5-4 6.3-1.2 1.7-3 4.4-4 5.8-1 1.5-1.8 2.6-1.9 2.6-0.1 0-0.4-0.7-0.8-1.5-0.4-0.9-1.4-3.2-2.1-5.1-0.8-1.9-2-4.9-2.6-6.7-0.7-1.8-1.7-4.9-2.4-6.8-0.6-1.9-1.7-5.6-2.4-8.1-0.8-2.6-1.9-6.7-2.5-9.1-0.6-2.4-1.7-6.8-2.3-9.7-0.7-2.9-1.6-7.3-2.1-9.8-0.5-2.5-1.1-6.1-1.5-8.1-0.4-1.9-1.4-8-2.4-13.7-1-5.6-2.2-12.2-2.6-14.6-0.4-2.4-1.3-6.9-1.9-10.1-0.7-3.2-1.6-7.7-2.2-10.1-0.6-2.4-1.5-6.1-2.1-8.3-0.6-2.2-1.1-4.1-1.1-4.3-0.1-0.2 0.4-0.3 2.9-0.4 1.6-0.1 5.4-0.2 8.4-0.4 3-0.1 7.5-0.4 9.9-0.5 3.4-0.3 4.6-0.4 5.1-0.6 0.3-0.2 0.8-0.6 1-0.9 0.3-0.4 0.4-0.9 0.4-1.4 0-0.4-0.1-0.9-0.4-1.3-0.2-0.3-0.7-0.8-1-1-0.6-0.3-0.8-0.3-3.9-0.1-1.9 0.1-4.7 0.3-6.4 0.4-1.6 0.1-5.7 0.3-9 0.4-3.4 0.2-9.1 0.4-12.9 0.4-3.7 0.1-9.1 0.1-12 0-2.9 0-5.8-0.2-6.5-0.3-0.7-0.1-1.2-0.2-1.3-0.3 0 0 0.4-0.7 0.8-1.6 0.4-0.9 1.7-3 2.9-4.7 1.1-1.7 3.5-5 5.3-7.4 1.7-2.3 4.6-6 6.3-8.2 1.8-2.1 4.3-5.3 5.8-7 1.7-2.2 2.6-3.4 2.8-3.9 0.1-0.5 0.1-0.8 0-1.3-0.1-0.3-0.5-0.9-0.8-1.2-0.5-0.4-0.6-0.5-1.7-0.5-1 0-1.1 0-1.7 0.6-0.4 0.4-1.9 2.2-3.5 4-1.5 1.9-2.8 3.6-3 3.7-0.2 0.2-0.4-0.1-1.2-1.8-0.6-1.1-1.7-3.2-2.5-4.6-0.7-1.4-2.1-3.7-2.9-5.1-0.8-1.4-2.1-3.5-2.9-4.7-0.8-1.2-2.4-3.6-3.5-5.2-1.1-1.6-2.6-3.7-4.7-6.4l0.5-1.1c0.2-0.6 0.8-2 1.3-3.1 0.5-1.1 1.2-2.7 1.6-3.7 0.4-0.9 0.9-2.5 1.2-3.5 0.2-0.9 0.4-2.2 0.4-2.7 0-0.8-0.1-1-0.3-1.3-0.4-0.3-0.5-0.4-1.2-0.1-0.4 0.1-1.8 0.8-3.2 1.5-1.4 0.7-3 1.5-3.6 1.7-0.6 0.2-1.5 0.4-2 0.4-0.7 0-1.2-0.1-1.6-0.5-0.4-0.2-0.7-0.6-0.9-0.8-0.1-0.3-0.1-0.7-0.1-1.2 0.1-0.3 0.4-1.6 0.8-2.7 0.4-1.1 0.8-2.5 0.9-3 0.1-0.6 0.2-1.8 0.2-2.7-0.1-1.3-0.2-1.7-0.5-2.1-0.2-0.3-0.7-0.7-1.1-1-0.8-0.4-1.1-0.4-3.2-0.5-1.7 0-3 0.1-4.4 0.3-1.1 0.1-3.3 0.6-4.9 0.9-1.7 0.3-3.1 0.5-3.3 0.5-0.1-0.1-1.4-1.1-2.8-2.2-1.5-1.2-4.1-3.1-5.9-4.4-1.8-1.2-4.8-3.2-6.8-4.3-1.9-1.2-5-2.9-6.8-3.9-1.8-0.9-4.5-2.1-5.8-2.7-1.4-0.6-3.8-1.6-5.3-2.2-1.5-0.5-3.9-1.4-5.2-1.8-1.4-0.5-3.7-1.2-5.2-1.6-1.5-0.4-3.8-0.9-5.2-1.2-1.4-0.3-4-0.8-5.7-1.1-1.7-0.3-4.6-0.6-6.4-0.8-1.7-0.2-3.8-0.3-6-0.5l1.4-1.5c0.8-0.7 2.2-2 3.1-2.8 1-0.8 2.7-2.2 3.9-3.1 1.3-1 3.2-2.3 4.4-3.1 1.2-0.7 3.2-1.9 4.5-2.7 1.2-0.7 3.5-1.8 4.9-2.5 1.5-0.7 3.7-1.6 4.9-2.1 1.1-0.4 3.3-1.2 4.8-1.7 1.6-0.5 4.1-1.2 5.6-1.6 1.5-0.4 3.8-0.9 5-1.2 1.3-0.2 3.5-0.6 4.8-0.8 1.4-0.2 3.4-0.4 4.5-0.5 1.1-0.2 3-0.3 4.2-0.4 1.2-0.1 6-0.1 10.6-0.1zm165.4 23.2c1.1 0 1.6 0 1.1 0-0.5 0-1.4 0-2 0-0.6 0-0.2 0 0.9 0zm-16 0.1c1.1 0 1.6 0.1 1.1 0.1-0.6 0-1.4 0-2 0-0.6 0-0.2-0.1 0.9-0.1zm-16.1 0.2c1 0 1.4 0 0.9 0.1-0.6 0-1.4 0-1.9 0-0.5-0.1-0.1-0.1 1-0.1zm-15.4 0.2c0.9 0 1.4 0 0.9 0-0.4 0.1-1.2 0.1-1.7 0-0.6 0-0.2 0 0.8 0zm-15 0.2c1 0 1.4 0 1 0-0.5 0.1-1.3 0.1-1.8 0-0.5 0-0.2 0 0.8 0zm-14.9 0.2c0.9 0 1.4 0 0.9 0-0.4 0-1.2 0-1.8 0-0.5 0-0.1 0 0.9 0zm-115.5 118.2l0.6 0.4c0.3 0.2 2.4 1.4 4.8 2.8 2.4 1.3 5.6 3.2 7.2 4.1 1.6 1 4.1 2.5 7.9 4.8l-2.8 0.2c-1.6 0-6.7 0.1-11.5 0.1-5.9 0-9.4-0.1-10.9-0.2-1.3-0.1-2.5-0.3-2.6-0.3-0.1-0.1 0-0.6 0.6-1.7 0.4-0.9 1.8-3 2.9-4.8 1.2-1.7 2.5-3.6 3-4.3z"/><path fill-rule="evenodd" class="e" d="m176.2 23.1c0.3 0 0.8 0.2 1.2 0.4 0.3 0.2 0.8 0.6 0.9 0.9 0.2 0.3 0.4 0.9 0.4 1.3 0 0.5-0.2 1-0.4 1.4-0.2 0.3-0.6 0.7-0.9 0.9-0.3 0.1-0.8 0.3-1.2 0.3-0.4 0-1-0.2-1.4-0.3-0.3-0.2-0.7-0.6-1-0.9-0.2-0.5-0.3-0.9-0.3-1.6 0.1-0.5 0.2-1.1 0.5-1.4 0.2-0.3 0.6-0.6 1-0.7 0.3-0.2 0.9-0.3 1.2-0.3z"/><path fill-rule="evenodd" class="f" d="m134.8 54.6c10.1 0 16.6 0.1 17.3 0.2 0.6 0.1 1.4 0.4 1.7 0.6 0.4 0.2 0.9 0.8 1.2 1.2 0.3 0.5 0.5 1 0.5 1.8 0.1 0.8 0 1.3-0.3 2-0.2 0.6-0.8 1.7-1.4 2.4-0.5 0.9-1.4 2.1-2.1 2.7-0.7 0.7-1.8 1.6-2.5 2.2-0.7 0.5-2.1 1.2-2.9 1.7-0.9 0.4-2.4 1-3.4 1.4-1 0.3-2.5 0.7-3.4 0.9-1.2 0.2-2.6 0.3-4.5 0.3-1.9 0-3.4-0.1-4.5-0.3-1-0.2-2.5-0.6-3.5-0.9-1-0.4-2.3-0.9-3.1-1.3-0.7-0.3-1.8-1-2.5-1.5-0.7-0.4-1.9-1.4-2.7-2.2-0.9-0.8-1.9-2-2.5-2.8-0.5-0.8-1.1-1.9-1.3-2.5-0.3-0.6-0.5-1.4-0.5-1.7 0-0.3 0.1-0.9 0.2-1.2 0.1-0.3 0.3-0.9 0.6-1.2 0.2-0.4 0.7-0.8 1-1.1 0.3-0.2 1-0.4 1.5-0.5 0.4-0.1 8.2-0.2 17.1-0.2z"/><path fill-rule="evenodd" class="g" d="m480.1 77.1c0.7 0.1 1.8 0.3 2.5 0.5 0.7 0.2 1.9 0.7 2.6 1.2 0.8 0.4 1.9 1.3 2.6 2.1 0.7 0.7 1.6 1.9 1.9 2.6 0.4 0.8 0.8 2 1 2.8 0.2 0.8 0.3 1.9 0.3 2.5 0 0.5-0.2 1.7-0.4 2.6-0.3 0.9-0.8 2.3-1.2 3-0.4 0.7-1.3 1.9-2 2.6-0.7 0.6-1.9 1.5-2.7 2-0.7 0.4-1.8 0.8-2.2 0.9-0.5 0.1-13.6 2.4-29.1 5.1-15.6 2.6-28.3 4.8-28.3 4.8-0.1 0.1-19.9 50.9-44.2 113.1-24.3 62.1-44.1 113.1-44.1 113.3 0 0.2 5.4 4.5 13.9 11.2 7.7 6 14.9 11.7 16 12.7 1.1 1 2.7 2.4 3.6 3.3 0.8 0.8 2.1 2.3 2.8 3.2 0.8 0.9 2 2.6 2.8 3.8 0.8 1.2 2 3.2 2.6 4.5 0.7 1.3 1.5 3.4 2 4.7 0.4 1.3 1 3.2 1.2 4.3 0.2 1.1 0.5 2.9 0.7 4.1 0.1 1.3 0.2 3.3 0.1 4.9 0 1.5-0.3 3.8-0.5 5-0.3 1.4-0.7 2.7-1.2 3.8-0.5 1-1.3 2.7-2 3.8-0.7 1.2-1.9 3-2.6 4-0.8 1.1-2.5 3-3.8 4.3-1.2 1.2-3.1 2.9-4.3 3.7-1.1 0.8-3 1.9-4.2 2.6-1.2 0.6-2.7 1.3-4.5 2.1l1.7 0.5c0.9 0.2 2.5 0.9 3.4 1.4 1 0.4 2.6 1.4 3.5 2.1 1 0.7 2.4 2 3.1 2.7 0.7 0.8 1.7 2 2.3 2.8 0.4 0.7 1.2 2 1.6 2.9 0.4 0.8 1 2.2 1.3 3 0.3 0.9 0.7 2.3 0.9 3.3 0.2 1 0.3 2.9 0.3 4.2 0 1.5-0.1 3.2-0.3 4.3-0.2 1-0.6 2.5-0.9 3.3-0.3 0.8-0.9 2.1-1.3 3-0.4 0.8-1.2 2.1-1.7 2.8-0.5 0.8-1.7 2.1-2.7 3.1-0.9 0.9-2.3 2.1-3.2 2.7-0.8 0.6-2.5 1.5-3.6 2.1-1.1 0.5-2.8 1.1-3.7 1.4-0.9 0.2-2.6 0.5-3.9 0.6-1.4 0.1-3.1 0.1-4.5 0-1.2-0.1-3-0.4-4-0.7-0.9-0.3-2.4-0.9-3.3-1.3-0.9-0.4-2.5-1.2-3.4-1.9-1-0.6-2.6-1.9-3.5-2.9-1-1-2.3-2.6-3-3.6-0.7-1-1.5-2.6-2-3.6-0.4-0.9-0.9-2.4-1.1-3.3-0.3-0.9-0.6-2.7-0.7-3.9-0.2-1.8-0.2-2.8 0-4.4 0.1-1.2 0.5-3 0.7-4 0.3-1.1 1-2.8 1.6-3.9 0.5-1.2 1.6-2.9 2.3-3.8 0.7-1 1.9-2.4 2.7-3.1 0.8-0.7 2-1.7 2.8-2.2 0.8-0.6 1.4-1 1.4-1-0.1 0-44.5 0.1-98.8 0.2-54.3 0.2-98.7 0.3-98.8 0.3 0 0 0.5 0.4 1.2 1 0.8 0.5 2 1.6 2.8 2.4 0.8 0.8 2 2.2 2.6 3.2 0.6 0.9 1.4 2.2 1.7 2.8 0.2 0.5 0.8 1.8 1.1 2.7 0.3 1 0.8 2.6 0.9 3.7 0.2 1.1 0.4 2.9 0.4 4.1 0 1.2-0.2 2.9-0.3 3.9-0.2 1-0.5 2.3-0.8 3.1-0.2 0.7-0.7 1.9-1 2.7-0.4 0.7-1.1 2-1.7 3-0.7 0.9-1.8 2.4-2.6 3.2-0.8 0.9-2.3 2.2-3.2 2.8-0.9 0.7-2.5 1.7-3.6 2.2-1.2 0.6-2.9 1.3-3.9 1.6-1 0.3-2.9 0.6-4.1 0.7-1.4 0.1-3.2 0.1-4.4 0-1.2-0.1-3-0.4-3.9-0.6-1-0.3-2.7-0.9-3.9-1.5-1.2-0.6-2.8-1.4-3.5-2-0.8-0.5-2-1.5-2.8-2.3-0.7-0.7-1.9-2-2.6-2.9-0.7-0.9-1.6-2.5-2.1-3.5-0.5-1-1.2-2.5-1.4-3.4-0.3-0.8-0.7-2.4-0.9-3.4-0.1-1-0.3-2.7-0.3-3.8 0-1.1 0.2-2.8 0.3-3.8 0.2-1 0.6-2.5 0.9-3.4 0.3-0.8 0.9-2.2 1.3-3.1 0.5-0.9 1.2-2.2 1.7-2.9 0.5-0.7 1.5-1.9 2.3-2.8 0.8-0.8 2-1.9 2.7-2.4 0.6-0.5 1.3-1 1.4-1.1 0.1-0.1-3.8-0.2-9.4-0.1-9 0-9.8 0-10.9-0.4-0.7-0.2-1.8-0.6-2.4-0.9-0.7-0.3-1.8-1.2-2.5-1.9-0.8-0.7-1.8-1.9-2.2-2.6-0.4-0.8-1-2.1-1.2-3-0.2-0.9-0.4-2.2-0.4-2.9 0-0.6 0.1-1.8 0.3-2.5 0.2-0.8 0.7-2 1.1-2.8 0.4-0.8 1.3-2 2.1-2.8 0.8-0.8 1.9-1.6 2.7-2 0.8-0.5 2.1-0.9 2.8-1.1 1.2-0.3 13.4-0.4 110.5-0.7 60-0.1 116.2-0.3 124.9-0.3 15.4-0.1 15.8-0.1 17.5-0.5 0.9-0.3 2.2-0.8 2.9-1.1 0.7-0.3 1.6-1 2.1-1.5 0.5-0.5 1.1-1.3 1.4-1.9 0.3-0.6 0.6-1.5 0.7-2 0.2-0.6 0.3-1.8 0.3-2.7 0-0.9-0.2-2.4-0.4-3.3-0.2-1-0.7-2.4-1.1-3.2-0.4-0.8-1.1-2.1-1.6-2.8-0.5-0.8-1.5-2-2.3-2.8-0.8-0.8-2.1-1.9-2.8-2.5-0.7-0.5-10.1-7.9-40.5-31.8l-101.3-8c-59.8-4.8-101.8-8.2-102.5-8.4-0.6-0.1-1.7-0.6-2.5-0.9-0.9-0.4-1.8-1.1-2.9-2.2-1.1-1.2-1.7-1.9-2.3-3.1-0.3-0.8-0.8-2-0.9-2.7-0.1-0.6-3.7-30.2-8-65.7-4.6-38-7.8-65.3-7.8-66.3 0-1.3 0.1-2.1 0.5-3.3 0.3-0.8 0.8-2 1.2-2.6 0.4-0.6 1.1-1.5 1.7-2.1 0.6-0.5 1.6-1.3 2.2-1.7 0.7-0.4 1.9-1 2.6-1.2 0.8-0.2 2.2-0.4 3.6-0.5 1.2-0.1 65.3-1.7 142.4-3.6 77.1-1.9 140.3-3.5 140.3-3.5 0 0 6.5-16.8 14.5-37.2 7.9-20.4 14.7-37.7 15.1-38.4 0.4-0.7 1.1-1.8 1.7-2.5 0.6-0.6 1.6-1.4 2.2-1.8 0.6-0.4 1.6-0.9 2.3-1.2 0.9-0.3 12.4-2.3 33.1-5.9 17.6-3 32.2-5.4 32.6-5.5 0.4 0 1.2 0 1.8 0zm-146.8 111.4h-2.6v40.8h21.2c11.3-28.8 15-38.2 15.4-39.4l0.9-2.2c-5.3 0-12.6 0.2-19.5 0.4-7 0.2-13.9 0.4-15.4 0.4zm-48.2 1.2h-1.7v39.6h39.1v-40.6c-0.7 0.1-8.8 0.3-18.3 0.6-9.6 0.2-18.2 0.4-19.1 0.4zm-48.5 1.3h-0.6v38.3h39.2v-39.3c-3.8 0-12.3 0.2-21.4 0.5-9.2 0.2-16.9 0.5-17.2 0.5zm-47.9 1.2c0 0 0 8.4 0 18.6v18.5h39.1v-38.1c-4 0-12.8 0.3-22.1 0.5-9.3 0.3-16.9 0.5-17 0.5zm-44.8 1h-2.6v36.1h39.2v-36.9c-5.7 0.1-13.3 0.2-20.6 0.4-7.4 0.2-14.5 0.4-16 0.4zm-43.7 1.1c0 0 0.9 7.7 2 17.1 1.1 9.3 2.1 17.2 2.1 17.4l0.1 0.5h28.7v-35.9c-0.8 0.1-8.2 0.3-17 0.5-8.7 0.2-15.9 0.4-15.9 0.4zm7.4 61.8c1.2 9.8 2.2 17.9 2.2 18 0 0.1 5.2 0.1 11.7 0.1h11.6v-36.7c-26.8 0-27.6 0-27.6 0.4 0 0.2 0.9 8.4 2.1 18.2zm33.7 18.1h39.2v-36.7h-39.2zm47.4 0h39.1v-36.7h-39.1zm47.3 0h39.2v-36.7h-39.2zm47.4 0h39.1v-36.7h-39.1zm47.3 0l3.8-0.1c11-28.3 14.3-36.5 14.3-36.5 0-0.1-4.1-0.1-9.1-0.1h-9zm-219.9 8.8c0.1 0.3 0.8 5.8 1.6 12.2 0.7 6.4 1.3 11.7 1.3 11.8 0.1 0 4 0.3 8.9 0.7 4.8 0.4 9.2 0.8 9.7 0.9l0.8 0.1v-26.3h-22.4zm30.5 12.9c0 13.3 0 13.4 0.4 13.4 0.3 0 8.6 0.7 18.5 1.4 10 0.8 18.6 1.5 19.2 1.6l1.1 0.1v-30h-39.2zm47.5 17.3c29 2.3 37.8 2.9 38.2 2.9h0.8v-33.6h-39.1zm47.2 3.8c0.7 0 9 0.7 19 1.5 9.9 0.8 18.5 1.5 19.1 1.5l1 0.1v-37.5h-39.1zm47.3-15.4c0 10.5 0.1 19.1 0.2 19.1 0.1 0 6.6 0.5 14.4 1.1 7.8 0.6 14.8 1.3 15.5 1.4 0.6 0.2 1.3 0.4 1.5 0.4 0.2 0 1.4-2.9 3.9-9.3l3.7-9.4v-22.3h-39.2zm-158.1 131.5c-0.8 0.5-2 1.4-3 2.3-0.9 0.9-1.8 2.1-2.3 2.9-0.4 0.7-0.9 1.9-1.1 2.7-0.3 0.8-0.5 2.1-0.6 3.3-0.1 1.5 0 2.6 0.2 3.6 0.2 0.9 0.7 2.3 1.2 3.2 0.4 0.9 1.1 2.2 1.7 2.7 0.4 0.6 1.3 1.5 2 2 0.6 0.5 1.6 1.1 2.1 1.4 0.6 0.3 1.7 0.7 2.5 1 1.2 0.4 1.8 0.5 3.9 0.5 1.8 0 2.8-0.1 3.7-0.4 0.6-0.2 1.7-0.6 2.4-1 0.7-0.3 1.7-0.9 2.3-1.3 0.5-0.5 1.4-1.3 2-1.9 0.5-0.6 1.3-1.9 1.8-2.8 0.4-0.9 0.9-2.2 1.1-2.8 0.2-0.7 0.3-2.2 0.3-3.2 0-1.1-0.1-2.4-0.2-3-0.1-0.6-0.5-1.6-0.8-2.4-0.2-0.7-0.8-1.8-1.2-2.3-0.3-0.6-1.1-1.5-1.6-2-0.6-0.6-1.5-1.4-2.1-1.8-0.7-0.4-1.6-0.9-2.2-1.2-0.6-0.2-1.6-0.6-2.2-0.8-0.8-0.1-2.1-0.3-3.3-0.3q-2.1 0.1-3.6 0.5c-0.9 0.2-2.2 0.7-3 1.1zm223.2-0.4c-0.7 0.3-1.8 0.9-2.4 1.4-0.7 0.4-1.7 1.4-2.2 2-0.6 0.6-1.4 1.8-1.8 2.6-0.5 0.9-1 2.1-1.2 2.8-0.3 0.9-0.4 1.9-0.3 3.7 0 2.1 0 2.7 0.5 4.1 0.3 0.9 0.9 2.2 1.3 2.9 0.5 0.7 1.5 2 2.3 2.8 0.9 0.8 2.1 1.7 2.8 2.1 0.7 0.4 1.9 0.9 2.8 1.1 1.2 0.4 2 0.5 3.9 0.5 1.9 0 2.6-0.1 3.9-0.5 0.8-0.2 2.1-0.8 2.8-1.2 0.8-0.4 2-1.4 2.9-2.3 0.9-0.9 1.9-2.1 2.3-2.9 0.4-0.7 0.9-2 1.2-2.8 0.4-1.3 0.5-2 0.5-3.9-0.1-2-0.2-2.7-0.6-4-0.3-0.9-0.9-2.3-1.3-3-0.4-0.7-1.4-1.9-2.1-2.7-0.8-0.7-1.9-1.6-2.5-2-0.6-0.3-1.8-0.9-2.6-1.2-1.3-0.4-2-0.5-4.1-0.6q-2.6-0.1-3.7 0.2c-0.6 0.2-1.7 0.6-2.4 0.9zm-216.3 5.3c1.4 0 1.9 0.1 2.9 0.6 0.7 0.3 1.6 0.9 2.1 1.4 0.5 0.6 1.2 1.4 1.4 2 0.3 0.6 0.6 1.7 0.7 2.3q0.2 1.3 0 2.4c-0.1 0.6-0.5 1.7-0.8 2.3-0.4 0.8-1.1 1.6-1.7 2.1-0.6 0.4-1.4 1-2 1.2-0.7 0.4-1.3 0.4-2.9 0.4-1.9 0-2.2 0-3.3-0.6-0.7-0.3-1.7-1.1-2.2-1.7-0.5-0.6-1.2-1.5-1.4-2-0.4-0.8-0.5-1.4-0.5-3 0-1.7 0.1-2.2 0.5-3.1 0.2-0.5 0.8-1.3 1.3-1.9 0.5-0.5 1.2-1.2 1.7-1.4 0.4-0.3 1.2-0.7 1.6-0.8 0.5-0.2 1.6-0.3 2.6-0.2zm222.2 0c1.5 0 1.9 0.1 3.1 0.6 0.8 0.5 1.6 1.1 2.3 1.8 0.5 0.6 1.1 1.6 1.4 2.2 0.3 0.8 0.4 1.6 0.4 2.8 0 1.2-0.1 1.9-0.5 2.9-0.3 0.8-0.8 1.5-1.5 2.2-0.6 0.6-1.7 1.4-2.3 1.7-1 0.5-1.4 0.6-3.1 0.6-1.7 0-2.2-0.1-3.1-0.6-0.6-0.3-1.6-0.9-2.1-1.4-0.6-0.5-1.3-1.4-1.7-2.2-0.5-1.2-0.6-1.6-0.6-3.2 0-1.6 0.1-2.1 0.5-3 0.3-0.6 0.9-1.5 1.3-2 0.5-0.5 1.3-1.2 1.8-1.5 0.5-0.3 1.2-0.6 1.6-0.7 0.4-0.2 1.5-0.3 2.5-0.2z"/></g></svg>