<svg version="1.2" xmlns="http://www.w3.org/2000/svg" viewBox="0 0 1830 326" width="500" height="89">
	<title>2-svg</title>
	<style>
		.s0 { fill: #eeb5eb } 
	</style>
	<path id="Path 0" fill-rule="evenodd" class="s0" d="m73 0.4c5.8 0.3 13.2 1.2 16.5 2.1 3.3 0.8 8.5 2.8 11.5 4.2 3.1 1.5 8.4 5.6 12.1 9.3 4.5 4.5 7.7 8.8 10.3 14 2 4.1 4.6 10.4 5.6 14 1.1 3.6 2.6 10.8 3.5 16 0.8 5.2 1.5 13 1.5 25l-3.3 0.5c-1.7 0.2-11 1.1-20.4 2-9.5 0.8-18.4 1.5-19.8 1.5-2.5 0-2.5-0.2-3.1-9.7-0.3-5.4-1.2-12.6-2-16-0.8-3.5-2.2-8-3.3-10-1-2.1-3.2-5-5-6.5-2.4-2.2-4.1-2.8-7.7-2.8-4 0-5.1 0.5-8.4 3.8-2.1 2-4.3 5.5-5 7.7-0.6 2.2-1.4 8.3-1.7 13.5-0.4 7-0.1 11.2 1.1 16 0.9 3.6 3.2 9.9 5.2 14 2 4.1 5.2 10.2 7.2 13.5 1.9 3.3 9.7 15 17.3 26 7.5 11 16.6 24.7 20.1 30.5 3.6 5.8 8.8 14.5 11.6 19.5 2.8 5 6.6 12.6 8.5 17 1.9 4.4 4.7 13 6.2 19 2.6 10.4 2.7 11.9 2.2 27.5-0.4 12.1-1.1 18.8-2.6 25-1.2 4.7-3.9 12.1-6 16.5-2.1 4.4-6.1 10.5-8.8 13.5-2.7 3-7.4 7.1-10.4 9-3 1.9-8.1 4.4-11.4 5.6-3.3 1.2-10.5 2.8-16 3.4-7.8 1-12.2 1-20 0.1-5.5-0.7-13.2-2.3-17-3.7-3.8-1.3-9.2-3.9-11.9-5.7-2.7-1.7-7-5.5-9.5-8.3-2.5-2.7-6-7.7-7.7-11-1.7-3.2-4.1-8.7-5.3-12.1-1.1-3.5-2.8-10.2-3.6-15-0.9-4.9-1.9-15.2-3-37.3h2.5c1.4 0 11.7-0.9 23-1.9 11.3-1.1 20.8-1.8 21.3-1.5 0.4 0.2 0.7 5 0.7 10.7 0 5.6 0.4 12.7 1 15.7 0.6 3 1.7 7.8 2.5 10.5 0.8 2.8 2.5 6.5 3.7 8.4 1.3 1.9 3.6 4.4 5.1 5.5 1.8 1.3 4.8 2.2 8 2.4 4.2 0.3 5.9-0.1 8.7-2 2.1-1.4 4.6-4.5 6.2-7.8 1.7-3.3 3.2-8.7 3.9-13.5 0.6-4.4 0.8-10.5 0.5-13.5-0.3-3-1.7-8.7-3-12.5-1.3-3.8-3.9-10.2-5.9-14-2-3.8-6.9-12-10.9-18.2-4-6.2-14.1-21.3-22.3-33.5-8.3-12.3-17.4-26.6-20.2-31.8-2.8-5.2-6.8-13.8-8.8-19-2.1-5.2-4.8-13.5-6-18.5-1.3-5-2.6-12.6-3-17-0.4-4.5-0.2-11.9 0.4-17 0.6-5 1.8-11.7 2.6-15 0.9-3.3 2.8-8.7 4.3-12 1.4-3.3 4.2-8.5 6.2-11.5 2.1-3 6.1-7.7 9.1-10.4 3-2.7 8.6-6.4 12.4-8.3 3.8-1.8 9.9-4 13.5-4.8 4.4-1 9.9-1.3 17-1.1zm1709 2.6l47.5 0.5 0.5 318.5h-48zm-1506 0v132h35l0.5-131.5 47.2-0.5 0.3 319h-48v-138h-35v138h-48l-0.2-158.8c-0.1-87.4 0.2-159.1 0.7-159.5 0.4-0.4 11.3-0.7 47.5-0.7zm279.4 0.5l23.7 157c13.1 86.4 23.8 158 23.9 161.5l-45.5 0.1-0.7-3.8c-0.4-2.1-2.4-16.7-8.3-61.3h-44l-2.3 16.8c-1.3 9.2-3.3 23.8-6.7 48.3l-22.8-0.1c-21 0-22.7-0.1-22.7-1.7 0-1 10.6-72.2 23.5-158.3 13-86 23.8-157 24-157.7 0.4-1 6.7-1.2 57.9-0.8zm-37.4 150.8c-3.9 28.7-7 52.3-7 52.5 0 0.1 6.9 0.2 15.5 0.2h15.5c-0.8-5-3.9-28.6-7.5-55.7-3.6-27.1-6.5-49.7-6.5-50.3 0-0.5-0.7-1-1.5-1-0.9 0-1.5 0.5-1.5 1 0 0.6-3.2 24.5-7 53.3zm176.3-151.6l30.6 0.6c25.2 0.5 32.2 1 40.1 2.6 6.2 1.4 12.4 3.5 17.9 6.3 5.8 3 10.6 6.4 15.1 10.8 3.7 3.6 8.3 9.5 10.3 13 2 3.6 4.7 9.9 6.1 14 1.4 4.2 3.3 11.1 4.1 15.5 0.9 4.4 1.8 14.8 2.2 23 0.3 9 0.1 19.1-0.6 25-0.7 5.5-2.3 14.3-3.7 19.5-1.4 5.3-4.3 12.9-6.4 17-2.3 4.3-6.3 9.9-14.8 18.5l14.9 76.5c8.1 42.1 14.8 76.6 14.9 76.8 0 0.1-10.7 0.2-47.5 0.2l-24.1-133.5-12.4-0.5v134h-47zm46.6 141.8c9-1.1 13.9-2.6 16.8-3.9 3.6-1.8 6.4-4.1 8.7-7.3 1.9-2.6 4.4-7.7 5.6-11.3 1.8-5.1 2.3-9.5 2.7-21 0.3-10.9 0.1-16.3-1.2-22-0.8-4.1-2.6-9.7-3.9-12.5-1.3-2.7-3.6-6.3-5.3-8-1.6-1.6-4.7-3.8-6.9-4.9-2.2-1.1-6.7-2.2-10.1-2.4l-6.1-0.4zm179-141.5h47v56.2c0 38.7 0.3 56 1 55.3 0.6-0.6 10.1-25.5 21.1-55.5 11.1-30 20.3-54.8 20.5-55.3 0.2-0.4 10.6-0.7 22.9-0.7 17.4 0 22.5 0.3 22.5 1.2 0 0.7-9.5 24.5-42.2 104.3l24.1 106c13.3 58.3 24.1 106.3 24.1 106.7 0 0.5-10.3 0.8-23 0.8-21 0-23-0.2-23.4-1.8-0.3-0.9-7.7-32.6-16.5-70.5-8.8-37.8-16.1-69.4-16.1-70.2 0-0.8-0.3-1.5-0.7-1.5-0.4 0-3.8 7.3-14.3 32.5v111.5h-47zm232.3-0.3l29.1 0.6c19.3 0.4 32.2 1.1 38.1 2.1 5 0.8 11.5 2.3 14.5 3.2 3.1 0.9 8.6 3.2 12.4 5.2 4.6 2.4 9 5.9 13 10.2 4.1 4.4 7.3 9.2 10 15 2.1 4.7 5 13.2 6.3 19 1.3 5.8 3.1 17.2 4.1 25.5 1.4 12.7 1.7 24.8 1.7 79.5 0 45.2-0.3 67.8-1.2 75.5-0.7 6-2 15.3-2.9 20.5-0.9 5.2-2.7 13.1-4.1 17.5-1.3 4.4-3.9 10.7-5.6 14-1.7 3.3-5.6 8.5-8.7 11.5-3 3.1-7.7 7-10.5 8.6-2.7 1.5-7.9 3.9-11.5 5.2-3.5 1.3-11.5 3.2-17.7 4.3-9.3 1.6-16.1 1.9-67.3 1.9zm46.7 272.8c11.3-1.2 16.5-2.6 19-3.8 2.4-1.2 5.4-3.8 6.7-5.7 1.2-2 2.9-6 3.7-9 0.9-3.1 2.1-9.4 2.9-14 0.9-6.4 1.3-26.7 1.3-81.5 0-67.3-0.2-73.8-1.9-83-1.1-5.5-2.6-11.6-3.4-13.5-0.8-2-2.4-4.8-3.6-6.5-1.2-1.6-3.9-3.7-6.1-4.7-2.2-0.9-7.2-2-11.1-2.4l-7.1-0.7zm291-272.5v49h-60v83h43v52h-43v86h60v49h-108l-0.2-158.8c-0.1-87.4 0.2-159.2 0.7-159.5 0.4-0.4 24.8-0.7 107.5-0.7zm95 0h47v275h62v44h-109z"/>
</svg>