<svg width="165" height="157" xmlns="http://www.w3.org/2000/svg" xmlns:xlink="http://www.w3.org/1999/xlink" xml:space="preserve" overflow="hidden"><defs><clipPath id="clip0"><rect x="929" y="775" width="165" height="157"/></clipPath></defs><g clip-path="url(#clip0)" transform="translate(-929 -775)"><path d="M1011.5 775C1012.74 775 1013.97 775.346 1015.21 776.038 1016.44 776.73 1017.37 777.769 1017.99 779.153L1037.44 825.292 1087.71 829.675C1089.26 829.829 1090.57 830.329 1091.65 831.175 1092.73 832.021 1093.43 833.059 1093.74 834.289 1094.04 835.52 1094.08 836.788 1093.85 838.096 1093.62 839.403 1092.89 840.595 1091.65 841.672L1053.66 874.661 1065.01 923.569C1065.32 925.107 1065.2 926.491 1064.66 927.722 1064.12 928.952 1063.31 929.951 1062.23 930.72 1061.15 931.49 1059.92 931.912 1058.52 931.99 1057.14 932.066 1055.82 931.72 1054.59 930.951L1011.5 905.113 968.413 930.951C967.178 931.72 965.865 932.066 964.475 931.99 963.085 931.912 961.85 931.49 960.769 930.72 959.688 929.951 958.877 928.952 958.337 927.722 957.796 926.491 957.68 925.107 957.989 923.569L969.34 874.661 931.35 841.672C930.114 840.595 929.38 839.403 929.149 838.096 928.917 836.788 928.956 835.52 929.265 834.289 929.573 833.059 930.268 832.021 931.35 831.175 932.43 830.329 933.743 829.829 935.287 829.675L985.556 825.292 1005.01 779.153C1005.63 777.769 1006.56 776.73 1007.79 776.038 1009.03 775.346 1010.26 775 1011.5 775Z" fill="#F8C641" fill-rule="evenodd"/></g></svg>