<svg width="86" height="83" xmlns="http://www.w3.org/2000/svg" xmlns:xlink="http://www.w3.org/1999/xlink" xml:space="preserve" overflow="hidden"><defs><clipPath id="clip0"><rect x="2169" y="531" width="86" height="83"/></clipPath></defs><g clip-path="url(#clip0)" transform="translate(-2169 -531)"><path d="M2193.04 602.713 2212 591.249 2230.96 602.835 2225.89 581.126 2242.55 566.491 2220.57 564.54 2212 544.05 2203.43 564.417 2181.45 566.369 2198.12 581.004ZM2212 599.786 2189.54 613.446C2188.9 613.852 2188.21 614.035 2187.49 613.995 2186.77 613.954 2186.12 613.73 2185.56 613.323 2185 612.917 2184.57 612.389 2184.29 611.738 2184.01 611.088 2183.95 610.356 2184.11 609.543L2190.03 583.687 2170.22 566.247C2169.58 565.678 2169.2 565.048 2169.08 564.356 2168.96 563.665 2168.98 562.995 2169.14 562.344 2169.3 561.693 2169.66 561.145 2170.22 560.698 2170.79 560.25 2171.47 559.986 2172.28 559.905L2198.48 557.588 2208.62 533.195C2208.94 532.464 2209.42 531.915 2210.07 531.549 2210.71 531.183 2211.36 531 2212 531 2212.64 531 2213.29 531.183 2213.93 531.549 2214.58 531.915 2215.06 532.464 2215.38 533.195L2225.52 557.588 2251.72 559.905C2252.53 559.986 2253.21 560.25 2253.78 560.698 2254.34 561.145 2254.7 561.693 2254.86 562.344 2255.02 562.995 2255.04 563.665 2254.92 564.356 2254.8 565.048 2254.42 565.678 2253.78 566.247L2233.97 583.687 2239.89 609.543C2240.05 610.356 2239.99 611.088 2239.71 611.738 2239.43 612.389 2239.01 612.917 2238.44 613.323 2237.88 613.73 2237.23 613.954 2236.51 613.995 2235.79 614.035 2235.1 613.852 2234.46 613.446Z" fill-rule="evenodd"/></g></svg>