<svg width="188" height="63" xmlns="http://www.w3.org/2000/svg" xmlns:xlink="http://www.w3.org/1999/xlink" xml:space="preserve" overflow="hidden"><defs><clipPath id="clip0"><rect x="2773" y="277" width="188" height="63"/></clipPath></defs><g clip-path="url(#clip0)" transform="translate(-2773 -277)"><path d="M2773 277 2780.61 277 2788.62 332.41 2790.34 332.41 2798.47 277 2806 277 2796.67 340 2782.17 340 2773 277Z" fill="#08B13C" fill-rule="evenodd"/><path d="M2814 277 2839.81 277 2839.81 284.518 2821.64 284.518 2821.64 304.565 2836.89 304.565 2836.89 312.082 2821.64 312.082 2821.64 331.483 2841 331.483 2841 339 2814 339 2814 277Z" fill="#08B13C" fill-rule="evenodd"/><path d="M2898.19 277 2912.81 277 2922 339 2914.39 339 2911.96 322.873 2899.04 322.873 2896.61 339 2889 339 2898.19 277ZM2904.67 284.518 2900.09 315.316 2910.91 315.316 2906.25 284.518 2904.67 284.518Z" fill="#08B13C" fill-rule="evenodd"/><path d="M2857.23 278 2869.81 278 2879 287.05 2879 298.174 2871.47 298.174 2871.47 290.08 2866.49 285.097 2860.55 285.097 2855.57 290.08 2855.57 326.521 2860.63 331.903 2866.41 331.903 2871.47 326.521 2871.47 313.125 2863.1 313.125 2863.1 305.749 2879 305.749 2879 329.431 2869.89 339 2857.15 339 2848 329.431 2848 287.05 2857.23 278Z" fill="#08B13C" fill-rule="evenodd"/><path d="M2931 278 2941.19 278 2948.22 299.888 2954.61 322.733 2954.85 322.733 2953.44 299.49 2953.44 278 2961 278 2961 339 2952.95 339 2943.29 308.939 2937.87 290.918 2937.63 290.918 2938.56 309.616 2938.56 339 2931 339 2931 278Z" fill="#08B13C" fill-rule="evenodd"/></g></svg>